<?xml version="1.0" encoding="UTF-8" standalone="no"?>
<!-- Created with Inkscape (http://www.inkscape.org/) -->

<svg
   xmlns:dc="http://purl.org/dc/elements/1.1/"
   xmlns:cc="http://creativecommons.org/ns#"
   xmlns:rdf="http://www.w3.org/1999/02/22-rdf-syntax-ns#"
   xmlns:svg="http://www.w3.org/2000/svg"
   xmlns="http://www.w3.org/2000/svg"
   xmlns:sodipodi="http://sodipodi.sourceforge.net/DTD/sodipodi-0.dtd"
   xmlns:inkscape="http://www.inkscape.org/namespaces/inkscape"
   width="167.9088mm"
   height="210.63348mm"
   viewBox="0 0 167.9088 210.63348"
   version="1.1"
   id="svg896"
   inkscape:version="0.92.3 (2405546, 2018-03-11)"
   sodipodi:docname="tea.svg">
  <defs
     id="defs890" />
  <sodipodi:namedview
     id="base"
     pagecolor="#ffffff"
     bordercolor="#666666"
     borderopacity="1.0"
     inkscape:pageopacity="0.0"
     inkscape:pageshadow="2"
     inkscape:zoom="0.7"
     inkscape:cx="590.43301"
     inkscape:cy="511.89622"
     inkscape:document-units="mm"
     inkscape:current-layer="layer1"
     showgrid="false"
     fit-margin-top="0"
     fit-margin-left="0"
     fit-margin-right="0"
     fit-margin-bottom="0"
     inkscape:window-width="1918"
     inkscape:window-height="1038"
     inkscape:window-x="0"
     inkscape:window-y="0"
     inkscape:window-maximized="1" />
  <metadata
     id="metadata893">
    <rdf:RDF>
      <cc:Work
         rdf:about="">
        <dc:format>image/svg+xml</dc:format>
        <dc:type
           rdf:resource="http://purl.org/dc/dcmitype/StillImage" />
        <dc:title></dc:title>
      </cc:Work>
    </rdf:RDF>
  </metadata>
  <g
     inkscape:label="Layer 1"
     inkscape:groupmode="layer"
     id="layer1"
     transform="translate(-20.367036,-38.22491)">
    <path
       style="fill:#000000;stroke-width:0.26458332"
       d="m 110.89951,248.69658 c 0.31255,-0.50573 -5.93267,-0.95576 -7.09163,-0.51102 -0.1987,0.0762 -1.545,-0.0275 -2.9918,-0.23053 -1.446787,-0.20304 -4.640947,-0.43265 -7.098147,-0.51028 -4.75926,-0.15033 -5.92121,-0.33162 -7.71735,-1.20422 -0.62318,-0.30274 -1.24977,-0.47829 -1.39243,-0.39013 -0.14266,0.0882 -0.61386,-0.0164 -1.0471,-0.23265 -0.43324,-0.21613 -1.13616,-0.4695 -1.56203,-0.56303 -0.42587,-0.0936 -0.84005,-0.34139 -0.9204,-0.55078 -0.0803,-0.20939 -0.48922,-0.38071 -0.90861,-0.38071 -0.58833,0 -1.07376,-0.33981 -2.12497,-1.48752 -0.74935,-0.81814 -1.36245,-1.63311 -1.36245,-1.81107 0,-0.17796 -0.23813,-0.53906 -0.52917,-0.80245 -0.29104,-0.2634 -0.52916,-0.80619 -0.52916,-1.20621 0,-0.8227 1.52618,-3.68216 2.60417,-4.87921 0.83367,-0.92575 1.89374,-2.41655 1.89374,-2.66319 0,-0.0941 0.33542,-0.60492 0.74538,-1.13519 0.93883,-1.21436 1.66898,-3.15349 1.58792,-4.21725 -0.0353,-0.4639 0.12539,-1.0241 0.37201,-1.29662 0.23884,-0.26392 0.51553,-1.09257 0.61488,-1.8415 0.16567,-1.24888 0.12738,-1.39652 -0.46249,-1.78303 -0.35371,-0.23174 -1.23069,-0.49553 -1.94884,-0.58618 -0.71815,-0.0906 -1.90104,-0.43238 -2.62865,-0.75946 -2.49488,-1.12144 -5.30713,-1.9848 -6.92657,-2.12648 -1.57274,-0.13759 -3.6842,-1.11617 -4.49012,-2.081 -0.37887,-0.45358 -1.32595,-1.51072 -2.10463,-2.34919 -1.46093,-1.57316 -4.07347,-5.25272 -4.07347,-5.73719 0,-0.15079 -0.58043,-1.39039 -1.28984,-2.75466 -0.70942,-1.36425 -1.29194,-2.76431 -1.29449,-3.11121 -0.008,-1.07148 -0.5901,-3.87207 -1.01773,-4.89553 -0.22364,-0.53523 -0.44999,-1.75916 -0.503,-2.71984 -0.053,-0.96065 -0.29163,-2.28243 -0.53028,-2.93727 -0.23865,-0.65485 -0.50097,-2.11336 -0.58292,-3.24115 -0.10735,-1.47714 -0.24943,-2.05052 -0.50809,-2.05052 -0.43941,0 -0.45078,-0.27244 -0.0518,-1.23954 0.16902,-0.40966 0.28826,-0.8336 0.26498,-0.94208 -0.0551,-0.2568 -0.58467,-6.74801 -0.71781,-8.79859 -0.0567,-0.87312 -0.11068,-2.3614 -0.11999,-3.30729 -0.062,-6.29901 -0.0755,-9.29616 -0.0469,-10.45104 0.0466,-1.88613 0.0661,-6.76428 0.0453,-11.34181 -0.0197,-4.35513 0.21767,-5.19465 1.4691,-5.19465 0.92974,0 2.45677,-1.03267 3.89888,-2.63662 0.80719,-0.89779 1.566,-1.46228 2.2016,-1.63777 0.98733,-0.2726 2.35912,-1.51125 2.74402,-2.47764 0.23018,-0.57796 3.44085,-1.97848 4.53956,-1.9802 0.34513,0 1.03869,-0.25167 1.54126,-0.55803 1.2756,-0.77764 3.0843,-1.28479 4.6425,-1.30172 0.7276,-0.008 1.85869,-0.1293 2.51354,-0.26977 0.65484,-0.14044 1.96453,-0.38661 2.91041,-0.54703 0.94589,-0.16041 2.04394,-0.45839 2.44012,-0.66217 0.39617,-0.20378 1.22961,-0.36576 1.85208,-0.35994 1.94756,0.0183 3.63369,-0.2209 4.85998,-0.68924 0.90717,-0.34644 1.32651,-0.38568 1.80275,-0.1687 0.34133,0.15552 1.09101,0.21966 1.66595,0.14256 0.63741,-0.0855 1.93076,0.0816 3.31418,0.42818 1.24786,0.3126 3.14381,0.58091 4.213227,0.59621 2.09984,0.0301 5.5958,-0.18397 5.9558,-0.3646 0.22143,-0.1111 1.657,-0.0487 3.66154,0.1591 3.65382,0.37877 5.21295,0.41536 6.62233,0.15533 0.86887,-0.16028 1.81788,-0.29593 2.10892,-0.30141 0.29104,-0.006 1.1153,-0.13507 1.83168,-0.28792 0.71639,-0.15288 2.85952,-0.31292 4.7625,-0.35573 4.30726,-0.0968 3.99804,-0.0987 5.57665,0.034 0.72761,0.0612 2.33495,0.15144 3.57188,0.2006 1.43386,0.057 2.53013,0.2454 3.02474,0.5198 0.4267,0.23673 1.43873,0.50523 2.24896,0.59667 0.81023,0.0914 2.33127,0.39317 3.38005,0.67053 1.99634,0.52798 2.42451,0.6014 6.29521,1.07976 1.39774,0.17275 2.65443,0.48364 3.04271,0.75274 0.68344,0.47369 3.79843,1.10477 5.73108,1.1611 0.6055,0.0177 1.19089,0.12139 1.30088,0.23053 0.10999,0.10914 0.53102,0.19844 0.93564,0.19844 0.40461,0 1.29546,0.29766 1.97967,0.66146 0.68421,0.3638 1.37626,0.66146 1.53786,0.66146 0.16161,0 0.44802,0.2469 0.63649,0.54868 0.18849,0.30179 0.73167,0.71123 1.20708,0.90988 0.47543,0.19865 1.20459,0.85204 1.62033,1.45195 0.6857,0.98947 0.72695,1.17092 0.44405,1.95319 -0.5525,1.52794 -0.40322,2.18484 0.68035,2.99418 0.54571,0.40759 1.12649,0.91292 1.29064,1.12297 0.25881,0.33118 0.35331,0.32705 0.71156,-0.0312 0.27191,-0.27192 0.91922,-0.41765 1.89391,-0.42641 0.81447,-0.007 1.972,-0.0963 2.57228,-0.19772 0.89731,-0.15158 1.4015,-0.0431 2.8347,0.61013 0.95879,0.43698 2.69576,1.18261 3.85992,1.65693 1.16417,0.47431 2.29526,1.11167 2.51355,1.41636 0.21828,0.3047 0.76636,0.97179 1.21795,1.48241 0.50448,0.57047 0.88609,1.34848 0.9897,2.0179 0.0928,0.5992 0.34251,1.42457 0.55499,1.83412 0.52158,1.00533 0.81405,3.47157 0.46199,3.89577 -0.15274,0.18405 -0.26762,1.45569 -0.25675,2.84226 0.0108,1.38007 -0.0634,3.04499 -0.16494,3.69983 -0.10152,0.65485 -0.23839,2.13032 -0.30411,3.27885 -0.0761,1.32876 -0.25189,2.19477 -0.48348,2.38125 -0.20015,0.16116 -0.43487,0.82881 -0.52157,1.48365 -0.16674,1.25955 -1.15745,3.84847 -2.48055,6.48229 -0.4386,0.87313 -1.05457,2.7186 -1.36879,4.10105 -0.59897,2.63525 -1.57414,4.93484 -2.41552,5.69629 -0.27384,0.24783 -0.75885,1.2347 -1.07775,2.19305 -0.86032,2.58527 -3.68102,5.33982 -5.46801,5.33982 -0.26951,0 -0.98288,0.23813 -1.58528,0.52917 -0.60238,0.29104 -1.2855,0.52917 -1.51804,0.52917 -0.66489,0 -1.94085,0.74789 -2.24477,1.31579 -0.16913,0.31602 -0.43593,0.45541 -0.68715,0.35899 -0.22588,-0.0867 -0.67056,-0.0348 -0.98817,0.11517 -0.31761,0.15002 -1.01716,0.46586 -1.55459,0.70186 -0.53742,0.23604 -1.20938,0.72443 -1.49328,1.08533 -0.2839,0.36091 -0.6241,0.65619 -0.75604,0.65619 -0.13195,0 -0.5773,0.5338 -0.9897,1.18623 -0.67808,1.07273 -0.87247,1.20251 -2.0314,1.35626 -1.1956,0.15859 -1.29267,0.22905 -1.44669,1.05002 -0.0955,0.50917 -0.43243,1.05519 -0.79949,1.29569 -0.3489,0.2286 -0.63439,0.56505 -0.63439,0.74764 0,0.33874 -0.90598,1.2378 -1.25979,1.25015 -0.10747,0.004 -0.57726,0.56931 -1.04399,1.25677 -1.48682,2.19012 -2.77892,3.38662 -4.34379,4.02246 -0.81852,0.33256 -2.06868,1.06651 -2.77813,1.631 -0.70945,0.56446 -1.94477,1.52355 -2.74513,2.13127 -0.80037,0.60772 -1.49122,1.19071 -1.53525,1.29551 -0.044,0.10483 -0.31191,0.45791 -0.59531,0.78467 -0.28339,0.32679 -0.51527,0.64619 -0.51527,0.70985 0,0.0637 0.59531,0.68953 1.32291,1.39081 0.72761,0.70128 1.32292,1.44807 1.32292,1.6595 0,0.21142 0.36772,0.84711 0.81711,1.41263 0.44942,0.56552 1.11268,1.6832 1.47389,2.48378 0.36118,0.80055 0.88646,1.94484 1.16724,2.54286 0.28077,0.59803 0.51051,1.1744 0.51051,1.28087 0,0.10644 0.47807,0.87508 1.06238,1.7081 1.01796,1.45118 1.48709,3.1225 1.38086,4.91955 -0.20952,3.5451 -0.54073,4.58862 -1.85034,5.8297 -1.29788,1.22997 -2.02316,1.48384 -3.37415,1.18105 -0.71019,-0.15915 -1.39568,-0.1755 -1.66132,-0.0396 -0.24871,0.12724 -0.90056,0.30023 -1.44854,0.38444 -0.54795,0.0842 -1.30495,0.39595 -1.68222,0.69271 -0.57912,0.4555 -0.9906,0.52586 -2.64173,0.45162 -1.07566,-0.0484 -1.95577,-0.0119 -1.95577,0.0812 0,0.093 -0.20836,0.18293 -0.46303,0.19981 -0.65664,0.0436 -2.91875,0.51962 -4.16718,0.87702 -1.12395,0.32173 -7.6802,0.58396 -12.30313,0.4921 -1.52797,-0.0304 -3.07578,-0.0564 -3.43958,-0.0579 -1.25333,-0.005 -4.3742,0.32811 -4.8758,0.52059 -0.32525,0.12481 -0.4418,0.0944 -0.3302,-0.0862 z"
       id="path166"
       inkscape:connector-curvature="0" />
    <path
       style="fill:#000000;fill-opacity:0.43781098;stroke-width:0.26458332"
       d="m 134.4279,64.198303 c -0.32742,-0.131603 -0.59531,-0.367453 -0.59531,-0.524113 0,-0.480563 -2.65258,-3.821245 -3.1945,-4.023175 -0.34673,-0.129196 -0.50966,-0.442092 -0.50966,-0.97872 0,-0.592799 -0.23358,-0.966973 -0.9401,-1.505849 -0.51704,-0.394362 -1.11566,-1.137285 -1.33027,-1.650921 -0.60954,-1.458807 -5.87737,-7.09385 -6.86281,-7.341182 -0.48157,-0.120862 -0.87043,-0.612457 -1.45749,-1.842505 -0.45916,-0.962078 -1.21364,-2.018057 -1.76882,-2.475707 -0.91932,-0.757766 -0.94567,-0.822907 -0.52205,-1.290981 0.24535,-0.271145 0.44612,-0.744723 0.44612,-1.052433 0,-0.721281 0.9525,-1.383242 1.99032,-1.383242 0.98836,0 1.44648,0.411612 1.45768,1.309688 0.004,0.371078 0.18322,0.905801 0.39687,1.18827 0.21365,0.282496 0.38846,0.788511 0.38846,1.124479 0,0.335994 0.15732,0.610897 0.34962,0.610897 0.5552,0 3.25358,2.736717 3.44318,3.492076 0.0945,0.376634 0.85739,1.398878 1.69527,2.271633 0.83785,0.872755 1.91013,2.165403 2.38281,2.872502 0.4727,0.707125 1.26847,1.880976 1.76837,2.60858 0.49993,0.727604 1.23597,1.97776 1.63568,2.778125 0.39971,0.800365 1.06246,2.004166 1.47278,2.675096 0.5017,0.820367 0.74604,1.578584 0.74604,2.315104 0,1.158002 -0.0513,1.200547 -0.99219,0.822378 z"
       id="path940"
       inkscape:connector-curvature="0" />
    <path
       style="fill:#000000;fill-opacity:0.43781098;stroke-width:0.26458332"
       d="m 71.254643,76.106353 c -0.36618,-0.592481 0.18452,-1.821815 1.04302,-2.32836 0.4794,-0.282839 1.21337,-0.974539 1.63106,-1.537123 0.41769,-0.562557 1.03563,-1.290664 1.37319,-1.61798 0.33757,-0.327289 0.77592,-0.982133 0.97412,-1.455208 0.19819,-0.473049 0.66223,-1.142921 1.03119,-1.488625 0.36896,-0.345705 0.74663,-0.973614 0.83927,-1.395386 0.0926,-0.421773 0.44827,-1.09945 0.79029,-1.505903 0.8468,-1.00637 1.06426,-1.974851 0.54094,-2.409164 -0.54946,-0.456036 -0.52213,-0.73787 0.0904,-0.932286 0.37948,-0.120438 0.54431,-0.501412 0.66592,-1.539187 0.0889,-0.758508 0.23025,-1.938973 0.31414,-2.623265 0.15512,-1.265422 -0.26265,-3.098482 -0.78287,-3.435006 -0.1956,-0.126523 -0.18954,-0.366077 0.0201,-0.79375 0.16514,-0.336867 0.2906,-1.661953 0.27882,-2.944627 -0.0236,-2.568204 0.16374,-2.968069 1.51669,-3.237256 0.64154,-0.127635 0.92829,-0.0127 1.52416,0.610526 0.89643,0.937683 1.77959,3.258661 1.77959,4.676801 0,2.639245 -1.19833,9.329526 -1.95843,10.933906 -0.18897,0.39886 -0.78074,1.618193 -1.31504,2.709599 -0.53431,1.091406 -0.96885,2.090605 -0.96566,2.220436 0.003,0.129831 -0.50447,0.844206 -1.12812,1.5875 -0.62366,0.743294 -1.33162,1.649095 -1.57326,2.012897 -0.24164,0.363802 -1.3149,1.584193 -2.38503,2.71198 -1.81641,1.914286 -2.01847,2.05052 -3.04133,2.05052 -0.60261,0 -1.17103,-0.121973 -1.26316,-0.271039 z"
       id="path938"
       inkscape:connector-curvature="0" />
    <path
       style="fill:#000000;fill-opacity:0.43781098;stroke-width:0.26458332"
       d="m 185.50735,128.57982 c -0.1737,-0.0625 -0.45236,-0.52731 -0.61921,-1.03288 -0.23643,-0.71639 -0.2291,-1.00867 0.0332,-1.32469 0.49956,-0.60193 0.4199,-7.56118 -0.12081,-10.55423 -0.23661,-1.30969 -0.50218,-2.97656 -0.59018,-3.70417 -0.088,-0.7276 -0.26712,-1.52344 -0.39804,-1.76855 -0.13091,-0.24508 -0.23804,-0.72583 -0.23804,-1.06831 0,-0.3425 -0.35235,-1.03494 -0.78301,-1.53876 -0.43064,-0.50382 -0.78782,-1.06884 -0.79375,-1.25556 -0.006,-0.18674 -0.3084,-0.92694 -0.6722,-1.64486 -0.3638,-0.71792 -0.66146,-1.46571 -0.66146,-1.66174 0,-0.42862 -2.23448,-3.862973 -2.87816,-4.423678 -1.20581,-1.050369 -1.91741,-5.10741 -1.04825,-5.976567 0.40449,-0.404495 0.5416,-0.387164 1.91645,0.242279 1.0704,0.490035 1.4808,0.82296 1.4808,1.201262 0,0.516546 2.11645,4.763267 3.33922,6.700284 0.34624,0.54848 0.62953,1.10297 0.62953,1.23219 0,0.12925 0.51858,1.23293 1.15239,2.45266 0.63381,1.21973 1.3548,3.11066 1.60218,4.20206 0.24739,1.09141 0.55811,2.46063 0.69054,3.04271 0.80923,3.55743 0.88093,11.31253 0.12517,13.53857 -0.21741,0.64037 -0.39528,1.43933 -0.39528,1.77551 0,0.82048 -1.11173,1.80375 -1.77107,1.56647 z"
       id="path936"
       inkscape:connector-curvature="0" />
    <path
       style="fill:#000000;fill-opacity:0.43781098;stroke-width:0.26458332"
       d="m 20.405013,133.87993 c -0.0931,-0.24265 -0.009,-1.10586 0.18644,-1.91823 0.19567,-0.81235 0.39181,-2.13186 0.43587,-2.93222 0.10482,-1.90413 0.61467,-5.03703 0.9144,-5.6188 0.13019,-0.2527 0.23773,-0.66942 0.23898,-0.92604 10e-4,-0.25665 0.4775,-1.45404 1.05833,-2.66089 0.58083,-1.20687 1.05606,-2.33013 1.05606,-2.49616 0,-0.28964 0.46482,-1.40123 1.41309,-3.37936 0.72463,-1.51159 1.49853,-2.72764 2.27315,-3.57188 0.40056,-0.43656 0.8765,-1.17088 1.05763,-1.63181 0.18113,-0.46093 0.67614,-1.22653 1.10002,-1.7013 0.42388,-0.47477 0.77069,-0.9956 0.77069,-1.15737 0,-0.16176 0.53578,-0.81997 1.19063,-1.46264 0.65484,-0.64267 1.19062,-1.27664 1.19062,-1.4088 0,-0.13213 0.65485,-0.94758 1.45521,-1.81206 0.80037,-0.8645 1.45521,-1.676053 1.45521,-1.803476 0,-0.127423 0.26034,-0.314298 0.57852,-0.41529 0.31819,-0.100991 0.94914,-0.555493 1.4021,-1.01002 0.45297,-0.454528 1.55953,-1.232112 2.45904,-1.727968 0.8995,-0.495882 1.87861,-1.12813 2.1758,-1.40499 0.35065,-0.326681 0.72959,-0.443336 1.07947,-0.33229 0.44959,0.14269 0.50874,0.309483 0.35615,1.004226 -0.10064,0.458205 -0.35227,1.091485 -0.55918,1.407266 -0.48263,0.7366 -4.04253,3.922292 -5.81561,5.204332 -0.75152,0.54337 -1.61071,1.40203 -1.9093,1.90809 -0.29859,0.50607 -0.64687,0.92015 -0.77395,0.92015 -0.12707,0 -0.8157,0.72943 -1.53027,1.62097 -5.60584,6.99412 -8.83406,13.43342 -10.06411,20.07486 -0.22909,1.23693 -0.54908,2.72521 -0.71108,3.30729 -0.35574,1.2782 -0.37665,1.3942 -0.4154,2.30439 -0.0176,0.41262 -0.3382,1.00221 -0.75541,1.38906 -0.8501,0.78828 -1.08349,0.82931 -1.3131,0.23096 z"
       id="path934"
       inkscape:connector-curvature="0" />
    <path
       style="fill:#000000;fill-opacity:0.43781098;stroke-width:0.26458332"
       d="m 51.846183,134.73437 c -1.52186,-0.40719 -1.91429,-0.95189 -1.57391,-2.18461 0.31978,-1.15813 0.16085,-3.35576 -0.32568,-4.50345 -0.3313,-0.78152 -0.31312,-0.90151 0.22307,-1.47224 0.32107,-0.34177 0.58376,-0.82992 0.58376,-1.08477 0,-0.25485 0.12419,-0.6954 0.27597,-0.97901 0.15179,-0.28361 0.32818,-1.3176 0.39199,-2.29772 0.22981,-3.52983 0.34974,-4.09186 1.02393,-4.79838 0.45818,-0.48014 0.712,-1.12723 0.84061,-2.14304 0.20756,-1.63936 0.40114,-2.10405 1.244,-2.98609 0.96358,-1.00838 2.5735,-3.85853 2.5735,-4.55607 0,-0.20373 0.47625,-0.75314 1.05834,-1.2209 0.58208,-0.46778 1.05833,-1.0129 1.05833,-1.21139 0,-0.19852 0.183,-0.43114 0.40666,-0.51697 0.22366,-0.0858 0.59818,-0.52856 0.83227,-0.98388 0.23408,-0.4553 0.91429,-1.32228 1.51156,-1.92665 1.82432,-1.84589 2.42857,-2.556401 3.22826,-3.795974 0.42247,-0.654844 1.06578,-1.427586 1.42958,-1.717225 0.84685,-0.674185 1.43848,-1.320827 2.91042,-3.181033 1.24963,-1.579271 3.01433,-2.624667 5.13921,-3.044481 0.9829,-0.194178 1.09291,-0.146685 2.06677,0.892254 1.01506,1.082887 1.02707,1.120035 0.91119,2.817151 -0.0646,0.945886 -0.25247,2.255573 -0.41752,2.910417 -0.16505,0.654844 -0.40015,1.785938 -0.52244,2.513542 -0.1223,0.727604 -0.41725,1.680109 -0.65545,2.116669 -0.23819,0.43656 -0.43382,1.06164 -0.43471,1.38906 -8e-4,0.32743 -0.10301,0.59532 -0.22692,0.59532 -0.12391,0 -0.2947,0.98226 -0.37954,2.18281 -0.0848,1.20055 -0.22035,2.3614 -0.30111,2.57969 -0.0808,0.21828 -0.0357,0.57165 0.10007,0.78525 0.20998,0.33031 0.31839,0.30912 0.72482,-0.1416 0.26286,-0.29152 1.05103,-0.99285 1.7515,-1.55853 0.70047,-0.56568 1.43595,-1.34247 1.63439,-1.72622 0.19844,-0.38373 0.81595,-1.17176 1.37225,-1.75115 0.5563,-0.57941 1.42817,-1.62065 1.93749,-2.31386 0.50932,-0.69323 1.31991,-1.700398 1.80131,-2.238111 0.4814,-0.537712 1.10316,-1.412901 1.38168,-1.944846 0.27853,-0.531945 0.78929,-1.189672 1.13503,-1.461638 0.34574,-0.271965 0.77447,-0.936413 0.95273,-1.476533 0.17826,-0.540147 0.43448,-1.05029 0.56939,-1.133661 0.1349,-0.08337 0.24528,-0.429709 0.24528,-0.769673 0,-0.339936 0.2956,-0.898445 0.65688,-1.241134 0.46915,-0.445002 0.6582,-0.906462 0.66146,-1.614513 0.004,-0.76253 0.22396,-1.234255 0.95481,-2.043245 0.63892,-0.707179 0.9966,-1.397397 1.09173,-2.106639 0.0778,-0.580152 0.36458,-1.256718 0.63726,-1.503495 0.27267,-0.246777 0.49577,-0.661326 0.49577,-0.921226 0,-0.2599 0.11907,-0.546127 0.26459,-0.636059 0.14552,-0.08993 0.26458,-0.447119 0.26458,-0.79375 0,-0.34663 0.10791,-0.696912 0.2398,-0.77843 0.13188,-0.08152 0.32331,-0.773139 0.42539,-1.536965 0.10207,-0.763825 0.36514,-1.591971 0.5846,-1.840336 0.44299,-0.501359 1.3763,-3.671093 1.38834,-4.715086 0.004,-0.367798 0.19,-0.929005 0.41283,-1.24714 0.32653,-0.46617 0.34293,-0.678022 0.0845,-1.091803 -0.2473,-0.396029 -0.2509,-0.836825 -0.0159,-1.92786 0.19696,-0.913739 0.25197,-2.819427 0.15542,-5.383214 -0.0822,-2.182812 -0.14901,-4.147343 -0.14849,-4.365625 0.003,-1.107784 0.33788,-6.322959 0.45162,-7.026566 0.18373,-1.136623 -0.8142,-3.98862 -1.74196,-4.978373 -0.42654,-0.455057 -0.77605,-0.97618 -0.77674,-1.158081 0,-0.181901 -0.11522,-0.330729 -0.25456,-0.330729 -0.13933,0 -0.70488,-0.651034 -1.25677,-1.446742 -0.55189,-0.795708 -1.21913,-1.520428 -1.48275,-1.610492 -0.94998,-0.324565 -2.28464,-1.315641 -2.22621,-1.653091 0.0328,-0.1896 0.11922,-0.318293 0.19198,-0.286014 0.0728,0.03225 0.40195,-0.08565 0.73153,-0.262017 0.49666,-0.265827 0.62606,-0.250825 0.75592,0.08758 0.21944,0.57187 0.39373,0.529669 2.21019,-0.534908 2.04882,-1.200785 4.02793,-1.564164 4.85147,-0.890746 0.46443,0.379756 0.51356,0.540014 0.24829,0.80973 -0.47736,0.485378 -0.40653,1.205151 0.1579,1.604513 0.26874,0.190156 0.63463,0.790549 0.81307,1.334241 0.17841,0.543666 0.43479,1.056719 0.5697,1.140089 0.13488,0.08337 0.24527,0.439473 0.24527,0.791343 0,0.390419 0.257777,0.808646 0.661457,1.07315 0.3638,0.238363 0.66145,0.557001 0.66145,0.708078 0,0.568351 1.59721,3.626035 2.33617,4.472357 0.42294,0.484347 1.06976,1.475952 1.43743,2.203556 0.36766,0.727604 1.08196,1.936486 1.58734,2.686394 0.50538,0.749935 0.99645,1.67267 1.0913,2.050521 0.0948,0.377878 0.28009,0.687044 0.41166,0.687044 0.41016,0 3.44144,4.712811 3.4656,5.388054 0.006,0.165259 0.36311,0.712708 0.79375,1.216528 0.43066,0.50382 0.783,1.014942 0.783,1.135777 0,0.120862 0.45789,0.839735 1.01756,1.597502 0.55965,0.757766 1.216,1.734952 1.45857,2.171514 0.49599,0.892678 0.77957,1.357683 1.82335,2.989819 0.40019,0.625766 0.72761,1.302464 0.72761,1.503785 0,0.398701 1.53484,3.016039 2.01954,3.443896 0.16483,0.145521 0.36433,0.788882 0.44328,1.429676 0.079,0.640795 0.36298,1.474232 0.63119,1.852084 0.26821,0.377851 0.71144,1.341834 0.98496,2.142199 0.27353,0.800364 0.58323,1.574271 0.68821,1.719791 0.10502,0.145521 0.27535,0.732341 0.37854,1.304026 0.10322,0.571685 0.41781,1.52908 0.69914,2.127541 0.45736,0.973032 0.77456,2.75336 0.82634,4.638225 0.0101,0.363802 0.1314,1.822424 0.26977,3.24141 0.19971,2.047902 0.16098,3.206327 -0.1878,5.617288 -0.24164,1.67056 -0.40648,3.92039 -0.36629,4.99962 0.0496,1.33075 -0.0393,2.09767 -0.27609,2.38297 -0.19203,0.23141 -0.26868,0.63043 -0.17031,0.88676 0.14861,0.38735 0.39941,0.22037 1.48521,-0.98883 0.7185,-0.80015 1.60427,-2.07346 1.96839,-2.82959 0.36412,-0.7561 0.88083,-1.53 1.14824,-1.71979 0.26742,-0.18976 0.64297,-0.64024 0.83455,-1.00105 0.19161,-0.36079 0.50816,-0.81579 0.70345,-1.01108 0.19531,-0.19529 0.3551,-0.61857 0.3551,-0.9406 0,-0.36999 0.29218,-0.75811 0.79375,-1.05439 0.52691,-0.31125 0.79375,-0.679765 0.79375,-1.096193 0,-0.362135 0.29392,-0.858493 0.69535,-1.174247 0.47876,-0.376608 0.76782,-0.938848 0.92797,-1.805146 0.12793,-0.691992 0.38952,-1.377236 0.58129,-1.522757 0.63722,-0.483526 1.17044,-1.573609 1.34527,-2.750264 0.095,-0.639525 0.40675,-1.491351 0.69271,-1.892935 0.28594,-0.401585 0.52253,-0.949907 0.52573,-1.218486 0.003,-0.268578 0.22341,-0.96737 0.4894,-1.552892 0.51345,-1.1303 0.43301,-3.412041 -0.14595,-4.139513 -0.15414,-0.193675 -0.35877,-0.788167 -0.45468,-1.321091 -0.14584,-0.81018 0.003,-1.314846 0.90479,-3.080543 1.27667,-2.497984 1.89781,-2.813791 3.44818,-1.753156 0.51713,0.353801 1.18883,0.643255 1.49265,0.643255 0.3665,0 0.60751,0.219525 0.71612,0.652224 0.2889,1.15107 1.73797,3.01371 2.81588,3.619527 0.5756,0.323506 1.04654,0.692732 1.04654,0.820526 0,0.127767 1.25015,1.470422 2.77812,2.983627 1.52797,1.513231 2.77813,2.865516 2.77813,3.005084 0,0.139568 0.68733,0.947896 1.52741,1.796283 1.45759,1.472009 3.49967,4.517046 3.49967,5.218509 0,0.181928 0.35388,0.798486 0.78639,1.370119 0.43252,0.571605 0.78971,1.318974 0.79375,1.660789 0.004,0.341789 0.17727,0.996633 0.38497,1.45521 0.2077,0.45855 0.44614,1.36951 0.52991,2.02436 0.35012,2.73753 0.69824,8.66645 0.55922,9.525 -0.0824,0.50932 -0.20714,1.52135 -0.27704,2.24895 -0.0699,0.72761 -0.31851,1.93374 -0.5524,2.68031 -0.4287,1.36843 -0.26514,2.28481 0.49639,2.78136 0.14475,0.0944 0.0228,0.29731 -0.27403,0.45619 -0.29411,0.1574 -0.76714,0.68008 -1.05119,1.16149 -0.34176,0.57923 -0.84744,0.97693 -1.49492,1.17563 -0.90673,0.27829 -1.02807,0.24855 -1.655,-0.40545 -0.66757,-0.69641 -0.6744,-0.74597 -0.51543,-3.73518 0.10988,-2.06658 0.29194,-3.22908 0.57279,-3.6577 0.30454,-0.4648 0.34758,-0.81262 0.16542,-1.33625 -0.22987,-0.66067 -0.21188,-2.41951 0.0552,-5.40121 0.0618,-0.68955 -0.005,-1.32598 -0.1474,-1.41425 -0.14285,-0.0883 -0.18574,-0.49736 -0.0953,-0.90905 0.15393,-0.70094 -0.25898,-2.71098 -0.67837,-3.30214 -0.10324,-0.14552 -0.26845,-0.6813 -0.36711,-1.19062 -0.24958,-1.28842 -0.69572,-2.381255 -0.97213,-2.381255 -0.12787,0 -0.23249,-0.334909 -0.23249,-0.744246 0,-0.481568 -0.28017,-1.012666 -0.79375,-1.504712 -0.43656,-0.418253 -0.79375,-0.903684 -0.79375,-1.078733 0,-0.350308 -2.05417,-3.247337 -3.14563,-4.436321 -1.25468,-1.366785 -3.06875,-3.074856 -3.27052,-3.079433 -0.10914,-0.0026 -0.19843,-0.164994 -0.19843,-0.361156 0,-0.196189 -0.46924,-0.568299 -1.04275,-0.826902 -0.57351,-0.258631 -1.10556,-0.633889 -1.18232,-0.833941 -0.16179,-0.421613 -1.21452,-0.498236 -1.21452,-0.08842 0,0.151421 -0.22627,0.597905 -0.50281,0.992187 -0.27654,0.394282 -0.5801,1.250897 -0.67453,1.903545 -0.0945,0.652674 -0.47678,1.90283 -0.84963,2.778125 -0.81288,1.908281 -0.90231,2.131483 -1.80372,4.501885 -0.38737,1.018646 -1.0333,2.268802 -1.43539,2.778125 -0.40209,0.509323 -0.80986,1.324875 -0.90617,1.812322 -0.0963,0.48744 -0.53287,1.33802 -0.97015,1.89016 -0.4373,0.55213 -0.7951,1.1404 -0.7951,1.30725 0,0.3711 -1.06606,1.92204 -1.52135,2.21332 -0.1819,0.11636 -0.33073,0.38391 -0.33073,0.59454 0,0.21064 -0.39508,0.82979 -0.87791,1.37592 -0.48287,0.54612 -1.55467,1.88592 -2.38178,2.97733 -0.82709,1.0914 -2.03939,2.66922 -2.69394,3.50625 -0.65458,0.83707 -1.19012,1.80608 -1.19012,2.15339 0,0.50644 -0.17497,0.66429 -0.88374,0.79725 -0.48603,0.0912 -1.17064,0.47326 -1.52135,0.84907 -1.0795,1.15679 -2.07703,1.76625 -2.43287,1.48643 -0.1768,-0.13901 -0.62807,-0.32578 -1.00288,-0.415 -0.52366,-0.12467 -0.84151,-0.53313 -1.3726,-1.76403 -0.72973,-1.69119 -0.697,-2.30341 0.21357,-3.99656 0.20423,-0.37975 0.29583,-0.76599 0.20354,-0.85828 -0.0923,-0.0923 0.04,-0.39735 0.2939,-0.67794 0.33025,-0.36491 0.4931,-1.09982 0.57198,-2.5813 0.22418,-4.20926 0.59272,-7.44384 0.91725,-8.05022 0.16259,-0.30382 0.20352,-1.706322 0.10528,-3.608941 -0.0883,-1.711589 -0.19915,-3.94544 -0.24625,-4.964086 -0.095,-2.056738 -0.41441,-3.69943 -1.0288,-5.291666 -0.22463,-0.582084 -0.41362,-1.223883 -0.42,-1.426237 -0.0122,-0.386291 -0.63164,-1.78353 -1.91897,-4.32853 -0.42328,-0.836798 -0.70374,-1.628008 -0.62328,-1.758209 0.0805,-0.130228 -0.0316,-0.305065 -0.249,-0.388488 -0.21746,-0.08345 -0.39537,-0.339011 -0.39537,-0.567928 0,-0.770864 -1.56308,-3.767535 -3.03593,-5.82041 -0.8041,-1.120722 -1.4623,-2.233533 -1.46267,-2.472902 0,-0.239368 -0.41709,-1.125775 -0.92604,-1.969823 -0.50896,-0.844021 -0.92536,-1.756172 -0.92536,-2.026999 0,-0.481462 -1.38832,-1.862349 -1.87237,-1.862349 -0.13436,0 -0.24429,-0.290619 -0.24429,-0.645849 0,-0.355203 -0.10877,-0.713052 -0.2417,-0.795205 -0.13293,-0.08215 -0.50271,-0.688605 -0.82177,-1.347655 -0.31903,-0.659051 -0.71885,-1.342999 -0.88847,-1.519899 -0.62913,-0.656061 -2.91785,-4.016878 -3.53573,-5.191946 -0.3514,-0.668284 -0.80825,-1.389406 -1.01521,-1.602501 -0.32753,-0.337212 -0.37812,-0.268632 -0.39044,0.529166 -0.008,0.504137 -0.0763,2.260944 -0.15214,3.904033 -0.104347,2.259648 -0.0266,3.502978 0.31927,5.103627 0.39468,1.826685 0.41246,2.366673 0.12999,3.94732 -0.17999,1.00711 -0.26082,1.938602 -0.17962,2.069994 0.0812,0.131366 -0.0874,1.08712 -0.374727,2.123863 -0.28731,1.03677 -0.52237,2.10238 -0.52237,2.368021 0,0.265642 -0.28281,1.070822 -0.62846,1.789272 -0.34566,0.718476 -0.71581,1.842082 -0.82259,2.496925 -0.17915,1.098868 -0.6326,2.492084 -2.33969,7.1891 -0.35282,0.970809 -0.88651,2.109179 -1.18591,2.529681 -0.29943,0.420503 -0.62299,1.114452 -0.71904,1.542151 -0.3032,1.350248 -3.05451,6.741504 -4.71102,9.231365 -0.87606,1.316778 -2.46481,3.377985 -3.53056,4.580445 -1.06575,1.20245 -1.93773,2.29997 -1.93773,2.43895 0,0.13896 -0.7674,1.13255 -1.70534,2.20798 -0.93794,1.07545 -1.78466,2.27139 -1.88162,2.65769 -0.0969,0.38626 -0.31432,0.79009 -0.48304,0.89738 -0.16872,0.10726 -0.4514,0.49271 -0.62817,0.85651 -0.17677,0.3638 -0.57871,0.98118 -0.89319,1.37192 -0.31448,0.39076 -0.64404,1.16467 -0.73234,1.71979 -0.12827,0.80635 -0.32829,1.08331 -0.9946,1.37713 -0.45872,0.20227 -0.97624,0.63349 -1.15004,0.95827 -0.17432,0.3257 -0.76881,0.72612 -1.32583,0.89299 -0.88605,0.26549 -1.13411,0.23188 -2.02397,-0.27408 -1.53318,-0.87177 -2.77503,-2.12386 -2.57689,-2.59813 0.42747,-1.02317 0.89689,-4.20706 0.75184,-5.09939 -0.12349,-0.7597 -0.0226,-1.21391 0.43363,-1.9521 0.48208,-0.78001 0.53647,-1.05505 0.28748,-1.45375 -0.43242,-0.69241 -0.38147,-1.56567 0.12393,-2.12413 0.43367,-0.47918 0.72678,-1.53704 1.15333,-4.16243 0.2564,-1.57813 -0.0455,-2.414425 -0.87164,-2.414425 -0.61227,0 -1.50646,0.471197 -1.50646,0.793829 0,0.319961 -2.38955,2.609826 -2.90844,2.787096 -0.21937,0.075 -0.8108,0.6989 -1.3143,1.38652 -0.5035,0.68766 -1.38362,1.78605 -1.95582,2.44089 -2.04324,2.33834 -3.48657,4.77779 -5.71382,9.65729 -0.69007,1.51181 -1.73728,4.76375 -2.12238,6.59067 -0.43398,2.05883 -0.4903,3.31925 -0.25392,5.68248 0.16647,1.66434 0.29838,2.03737 0.88884,2.51354 0.45981,0.37082 0.73573,0.89829 0.81915,1.56602 0.10959,0.87717 0.0151,1.10792 -0.73321,1.79144 -0.47246,0.43151 -1.21671,0.88826 -1.65391,1.01497 -0.43719,0.12671 -0.97349,0.28681 -1.19177,0.35576 -0.21828,0.069 -0.91716,-0.0138 -1.55307,-0.18394 z"
       id="path932"
       inkscape:connector-curvature="0" />
    <path
       style="fill:#000000;stroke-width:0.26458332"
       d="m 161.37773,209.28734 c -0.30882,-0.67778 -0.27848,-0.79044 0.3611,-1.34056 0.91424,-0.7864 1.41547,-0.75883 1.74038,0.0958 0.29948,0.78769 0.1076,1.68304 -0.36185,1.68846 -0.17208,0.003 -0.55806,0.0694 -0.8577,0.14994 -0.41301,0.11091 -0.62634,-0.0327 -0.88193,-0.59362 z"
       id="path930"
       inkscape:connector-curvature="0" />
    <path
       style="fill:#ffffff;stroke-width:0.26458332"
       d="m 121.70671,137.20751 c 0.29663,-0.15875 1.50918,-0.29191 2.69457,-0.29591 1.18541,-0.004 2.37517,-0.0881 2.64393,-0.18685 0.43394,-0.15943 0.44323,-0.21727 0.0831,-0.5162 -0.29319,-0.24331 -0.54735,-0.26077 -0.91692,-0.063 -0.28119,0.1505 -0.58687,0.19807 -0.67923,0.1057 -0.19632,-0.19634 -5.37028,-0.12546 -6.05703,0.083 -0.55647,0.16889 -0.36034,0.58113 0.42778,0.89911 0.7834,0.31607 1.17544,0.31046 1.80382,-0.0259 z"
       id="path928"
       inkscape:connector-curvature="0" />
    <path
       style="fill:#ffffff;stroke-width:0.26458332"
       d="m 142.39104,138.85415 c 0.44183,-0.17386 0.4485,-0.22564 0.0696,-0.54012 -0.24014,-0.19929 -0.69115,-0.27954 -1.05625,-0.18788 -0.35044,0.0879 -1.05071,-0.013 -1.55617,-0.22405 -0.50543,-0.21119 -1.32157,-0.42739 -1.81364,-0.48043 -0.49207,-0.053 -1.29532,-0.30623 -1.78498,-0.56267 -0.61542,-0.32226 -0.97512,-0.38139 -1.16502,-0.1915 -0.18989,0.18989 -0.44058,0.18595 -0.81195,-0.0127 -0.64574,-0.3456 -3.3904,-0.49557 -3.19191,-0.17442 0.39048,0.63183 1.8769,1.03442 4.20452,1.1388 1.69413,0.076 2.70997,0.24744 3.10505,0.52416 0.32292,0.22617 0.91784,0.41124 1.32202,0.41124 0.40417,0 0.73488,0.11907 0.73488,0.26459 0,0.30133 1.21173,0.32319 1.94386,0.0351 z"
       id="path926"
       inkscape:connector-curvature="0" />
    <path
       style="fill:#55d400;stroke-width:0.26458332"
       d="m 106.97643,150.40503 c 1.03883,-0.50472 1.31789,-0.54181 2.03621,-0.27066 0.71897,0.27138 0.95247,0.23997 1.71368,-0.23048 0.48469,-0.29956 0.88127,-0.64387 0.88127,-0.76513 0,-0.38795 2.57688,-2.12725 2.94897,-1.99043 0.19708,0.0724 0.8102,-0.0262 1.36247,-0.21907 1.94413,-0.67922 3.20659,0.18258 3.41693,2.33251 0.10824,1.10628 1.21365,1.72336 2.17014,1.21147 0.5832,-0.31213 0.74579,-0.30824 1.14528,0.0273 0.33271,0.27948 0.95642,0.36753 2.18538,0.30858 2.81596,-0.13507 8.02476,-0.31758 13.09687,-0.45889 5.36134,-0.14936 6.41118,-0.28088 7.08761,-0.888 0.32821,-0.29458 0.87521,-0.40322 1.7867,-0.35483 0.90784,0.0482 1.34747,-0.0385 1.42312,-0.28067 0.65415,-2.09457 0.0343,-2.88123 -2.86642,-3.63754 -1.1517,-0.30028 -2.29216,-0.72531 -2.53436,-0.94451 -0.24223,-0.21921 -0.7507,-0.39854 -1.12993,-0.39854 -0.37926,0 -0.98573,-0.11261 -1.34776,-0.25025 -0.42061,-0.15991 -1.29117,-0.15171 -2.41187,0.0228 -1.6238,0.25281 -1.8824,0.22148 -3.49223,-0.42299 -1.78472,-0.71446 -2.09995,-0.73599 -8.81798,-0.60222 -0.50932,0.0101 -1.40229,-0.19757 -1.98438,-0.46159 -0.58208,-0.264 -1.47505,-0.51065 -1.98437,-0.54811 -1.03166,-0.0758 -2.94953,0.38126 -3.21403,0.76602 -0.3383,0.4921 -3.72705,0.27829 -5.01997,-0.31676 -0.67241,-0.30943 -1.64851,-0.61717 -2.16916,-0.68382 -0.52064,-0.0666 -1.30048,-0.30419 -1.73296,-0.52784 -0.58452,-0.30226 -1.75951,-0.41884 -4.57772,-0.45418 -4.01611,-0.0503 -5.364877,0.11731 -6.090947,0.75723 -0.69156,0.60947 -3.02741,0.20778 -3.83045,-0.6587 -0.56528,-0.60997 -0.6864,-0.64053 -1.27981,-0.32295 -0.51134,0.27365 -0.80367,0.28323 -1.32971,0.0436 -0.53451,-0.24355 -0.87074,-0.22513 -1.62207,0.0888 -0.52129,0.2178 -1.2863,0.396 -1.70003,0.396 -0.45846,0 -1.10515,0.30985 -1.65592,0.79346 -0.72418,0.63582 -1.06136,0.76189 -1.69746,0.63468 -0.49938,-0.0999 -1.02625,-0.0109 -1.42062,0.23985 -0.74007,0.47058 -2.55173,0.99176 -6.1831,1.77871 -3.2655,0.70768 -3.87381,0.96163 -5.62663,2.34881 -1.205,0.95364 -1.3557,1.17287 -1.11517,1.62232 0.18324,0.34237 0.55384,0.51967 1.0863,0.51967 0.51192,0 0.97989,0.21206 1.2766,0.57848 0.32813,0.40521 0.77667,0.58516 1.49762,0.60082 0.56606,0.0124 1.28926,0.1687 1.60711,0.34758 0.8662,0.48742 2.81925,0.39275 4.52192,-0.2192 0.83311,-0.29943 1.90498,-0.58555 2.38193,-0.63582 0.47695,-0.0503 1.17372,-0.29224 1.54837,-0.53772 0.42977,-0.28159 0.89091,-0.37814 1.24948,-0.26159 2.05013,0.66635 8.9947,1.15475 12.20997,0.85868 1.377497,-0.12684 1.473857,-0.10634 4.497907,0.95684 2.31508,0.81391 2.25455,0.81214 3.70322,0.10832 z"
       id="path924"
       inkscape:connector-curvature="0" />
    <path
       style="fill:#ffffff;stroke-width:0.26458332"
       d="m 156.96046,152.18052 c 0.33715,-0.3638 0.73215,-0.66146 0.87772,-0.66146 0.14561,0 0.57505,-0.2441 0.95436,-0.54247 0.53329,-0.4195 0.80465,-0.48096 1.19681,-0.27107 0.39307,0.21037 0.70721,0.13716 1.39655,-0.32538 0.77674,-0.52121 0.92769,-0.81362 1.19158,-2.30863 0.16619,-0.94149 0.31427,-2.2476 0.32904,-2.90245 0.0241,-1.0651 -0.0589,-1.23944 -0.78664,-1.65364 -0.44743,-0.25467 -0.96136,-0.46302 -1.14204,-0.46302 -0.18071,0 -1.06593,-0.35719 -1.96715,-0.79375 -0.90123,-0.43657 -1.9998,-0.79375 -2.44129,-0.79375 -0.44146,0 -1.18372,-0.1991 -1.64944,-0.44247 -0.46569,-0.24333 -1.91965,-0.58145 -3.23098,-0.75136 -1.31133,-0.16989 -2.83708,-0.5238 -3.39053,-0.78642 -1.01349,-0.48094 -1.28194,-0.54002 -3.81638,-0.83987 -2.07568,-0.24556 -1.71606,0.26863 0.66146,0.94581 3.91933,1.1163 4.65529,1.38779 5.49217,2.02612 0.46291,0.35306 1.08855,0.64194 1.39033,0.64194 0.81468,0 1.38573,0.27609 1.38573,0.66995 0,0.19182 0.70607,0.80414 1.569,1.36075 1.73488,1.11897 1.84627,1.28114 2.05825,2.99638 0.30194,2.44306 0.01,3.71377 -1.02341,4.44677 -0.26794,0.19016 -0.48717,0.51758 -0.48717,0.72761 0,0.59671 0.75684,0.44894 1.43203,-0.27959 z"
       id="path922"
       inkscape:connector-curvature="0" />
    <path
       style="fill:#ffffff;stroke-width:0.26458332"
       d="m 143.2253,156.28156 c 0.0899,-0.14552 0.45416,-0.26458 0.80936,-0.26458 0.38595,0 0.64585,-0.15343 0.64585,-0.38127 0,-0.6328 -0.46718,-0.72271 -1.35898,-0.26154 -0.56661,0.293 -1.22492,0.39439 -1.99633,0.30742 -1.17079,-0.13194 -1.77176,0.20659 -1.11036,0.6255 0.50295,0.31856 2.80988,0.29901 3.01046,-0.0257 z"
       id="path920"
       inkscape:connector-curvature="0" />
    <path
       style="fill:#ffffff;stroke-width:0.26458332"
       d="m 125.29322,157.76116 c 1.34247,-0.0645 2.54333,-0.18068 2.66859,-0.2581 0.12522,-0.0774 1.16969,-0.10041 2.321,-0.0511 1.15131,0.0493 2.39122,-0.0254 2.7554,-0.16621 1.07712,-0.41622 3.22564,-0.77851 4.4324,-0.7474 0.61847,0.0159 1.12448,-0.0337 1.12448,-0.11033 0,-0.0767 -0.43984,-0.32314 -0.97742,-0.54774 -0.69525,-0.29049 -1.17843,-0.33832 -1.6737,-0.16568 -0.43953,0.15322 -0.87096,0.14496 -1.16999,-0.0225 -0.32311,-0.18082 -0.94758,-0.16312 -1.96432,0.0557 -0.81984,0.17642 -1.78827,0.35319 -2.15207,0.3928 -0.3638,0.0396 -0.98404,0.15877 -1.37832,0.26474 -0.45622,0.12263 -1.13014,0.0349 -1.85354,-0.24141 -0.82288,-0.31424 -1.79371,-0.41272 -3.51647,-0.35671 -2.22202,0.0723 -2.38527,0.11594 -2.46255,0.65905 -0.12026,0.84513 0.42084,1.7213 0.95877,1.55244 0.24579,-0.0771 1.54527,-0.19306 2.88774,-0.25762 z"
       id="path918"
       inkscape:connector-curvature="0" />
    <path
       style="fill:#ffffff;stroke-width:0.26458332"
       d="m 98.304713,158.95703 c 0.55568,-0.16489 1.5227,-0.15526 2.778117,0.0277 1.05921,0.15436 3.29502,0.28419 4.96851,0.2885 2.70558,0.007 4.08469,-0.0802 7.40833,-0.46847 0.50933,-0.0595 1.05744,-0.11578 1.21804,-0.12507 0.54007,-0.0312 0.23558,-1.82583 -0.40389,-2.38043 -0.48628,-0.42174 -0.90374,-0.50638 -2.13989,-0.43386 -0.84466,0.0496 -1.66582,0.1705 -1.82481,0.26876 -0.15896,0.0982 -0.42048,0.0974 -0.58116,-0.003 -0.34493,-0.2132 -1.93405,-0.34079 -5.96728,-0.47914 -2.65147,-0.0909 -3.14097,-0.1883 -4.806807,-0.95612 -1.11112,-0.51216 -1.99136,-0.77044 -2.19562,-0.64421 -0.18749,0.11589 -2.01303,0.1682 -4.05672,0.11626 -3.37877,-0.0859 -4.85159,-0.0863 -6.16321,-0.003 -0.25466,0.0164 -1.00884,-0.0502 -1.67595,-0.14801 -0.9008,-0.13208 -1.43889,-0.061 -2.09103,0.27626 -0.48297,0.24974 -1.12777,0.49604 -1.43291,0.54734 -0.30514,0.0513 -1.12939,0.2155 -1.83166,0.36489 -2.04851,0.43579 -5.55315,-0.0442 -7.3221,-1.00285 -0.80036,-0.43374 -1.95686,-0.92123 -2.57,-1.08334 -0.61313,-0.16208 -1.28248,-0.53414 -1.48744,-0.82674 -0.20496,-0.29263 -1.00833,-0.85477 -1.78527,-1.24918 -1.24581,-0.63246 -1.43818,-0.84103 -1.6291,-1.76625 -0.18232,-0.88353 -0.12188,-1.17581 0.38294,-1.85209 0.4115,-0.55123 0.61394,-1.21774 0.64573,-2.1259 0.0255,-0.7276 0.0568,-1.41221 0.0697,-1.52135 0.0129,-0.10914 0.31373,-0.19844 0.66855,-0.19844 0.35541,0 1.03863,-0.367 1.52135,-0.81722 0.48193,-0.44945 1.5013,-1.11823 2.26529,-1.48616 0.76398,-0.36796 1.38906,-0.78113 1.38906,-0.91821 0,-0.13708 0.10557,-0.18397 0.2346,-0.10422 0.12904,0.0797 0.38174,-0.0323 0.56157,-0.24897 0.18359,-0.22122 0.2109,-0.39397 0.0623,-0.39397 -0.61895,0 -5.52323,2.28121 -6.10288,2.83872 -0.19229,0.18497 -0.47763,0.33628 -0.63407,0.33628 -0.477,0 -3.20674,1.91812 -3.9106,2.74788 -0.96775,1.14086 -1.12836,1.94509 -0.51161,2.56183 0.28112,0.28112 0.51112,0.68268 0.51112,0.89239 0,0.20968 0.12388,0.45783 0.2753,0.55139 0.15142,0.0936 0.5717,0.63968 0.93396,1.21354 0.40844,0.64701 1.10795,1.26166 1.84136,1.61798 0.65049,0.31604 1.18271,0.65876 1.18271,0.76165 0,0.22548 2.55563,2.08876 2.86491,2.08876 0.11982,0 0.4831,0.28233 0.8073,0.62743 0.37402,0.39815 1.02182,0.6867 1.77253,0.7896 0.6507,0.0892 1.92425,0.40618 2.83011,0.70445 0.90586,0.29826 2.59953,0.6531 3.76369,0.78848 1.16417,0.13542 3.00477,0.41088 4.09022,0.61214 1.09303,0.2027 2.34504,0.28218 2.80619,0.17817 0.52088,-0.11747 1.06978,-0.0597 1.46603,0.15439 0.74403,0.40195 10.37504,0.30332 11.80447,-0.12086 z"
       id="path916"
       inkscape:connector-curvature="0" />
    <path
       style="fill:#ffffff;stroke-width:0.26458332"
       d="m 167.67248,181.1524 c 0.26641,-0.50933 0.56317,-1.36044 0.65942,-1.89141 0.0963,-0.53093 0.41085,-1.26513 0.69906,-1.63155 0.4074,-0.51792 0.46903,-0.811 0.27681,-1.31656 -0.19175,-0.50438 -0.10261,-0.93602 0.39724,-1.92337 0.35449,-0.70016 0.58026,-1.47545 0.50173,-1.72286 -0.0825,-0.26011 0.13658,-0.78184 0.51958,-1.237 0.36428,-0.43292 0.59526,-0.85424 0.51327,-0.93623 -0.28626,-0.28626 0.18547,-1.19121 0.68971,-1.32308 0.27959,-0.0731 0.58936,-0.45566 0.68834,-0.8501 0.14737,-0.58717 0.0417,-0.83027 -0.58325,-1.34131 -0.89027,-0.72803 -1.16014,-0.7887 -1.16014,-0.26077 0,0.21034 -0.32053,0.53776 -0.71233,0.7276 -0.44408,0.21519 -0.79417,0.66318 -0.92959,1.18959 -0.11951,0.46443 -0.557,1.08633 -0.97226,1.382 -0.55486,0.39511 -0.79949,0.83754 -0.92287,1.66913 -0.0923,0.62235 -0.2713,1.85462 -0.39772,2.73838 -0.12639,0.88376 -0.36436,1.8582 -0.52877,2.1654 -0.16444,0.30724 -0.29895,0.87191 -0.29895,1.25484 0,0.38294 -0.12036,0.92112 -0.26744,1.19597 -0.18775,0.35081 -0.16322,0.80217 0.0823,1.51477 0.19995,0.58036 0.26956,1.3149 0.16251,1.71513 -0.41558,1.55388 0.53774,0.88041 1.58337,-1.11857 z"
       id="path914"
       inkscape:connector-curvature="0" />
    <path
       style="fill:#ffffff;stroke-width:0.26458332"
       d="m 169.15447,191.86254 c 0.56049,-0.0768 1.22137,-0.57967 2.24895,-1.71135 0.80036,-0.88143 1.58866,-1.59988 1.75175,-1.59652 0.16311,0.003 0.87749,-0.78563 1.5875,-1.75324 0.71003,-0.9676 1.62875,-2.11822 2.0416,-2.55693 0.94642,-1.00568 1.27418,-1.8587 1.27622,-3.3215 0,-0.89273 0.31795,-1.7349 1.39295,-3.70417 1.34006,-2.4548 2.02838,-4.46349 2.00666,-5.85602 -0.006,-0.3638 -0.0132,-0.89958 -0.0167,-1.19062 -0.003,-0.29104 -0.0148,-0.79161 -0.0249,-1.11236 -0.0101,-0.32073 0.2282,-0.89668 0.52959,-1.27982 0.45598,-0.57968 0.54983,-1.08151 0.5589,-2.98868 0.0236,-4.93599 -0.0177,-5.45441 -0.4731,-5.95789 -0.31419,-0.34734 -0.44453,-0.96872 -0.4458,-2.12542 -0.003,-1.9531 -0.59584,-2.89161 -2.31671,-3.66205 -0.61135,-0.27374 -1.29228,-0.65836 -1.51318,-0.85476 -0.23636,-0.21013 -1.26876,-0.40468 -2.5086,-0.47268 -1.85586,-0.10181 -2.25695,-0.0378 -3.36579,0.53753 -1.45176,0.75321 -4.39705,3.22609 -4.97513,4.17716 -0.29091,0.47861 -0.32026,0.76425 -0.11237,1.09382 0.20468,0.32448 0.18478,0.63963 -0.073,1.15641 -0.35332,0.70824 -0.23794,1.56686 0.21056,1.56686 0.12994,0 0.23627,0.29766 0.23627,0.66146 0,0.81743 0.13526,0.82209 1.16565,0.0401 2.91501,-2.21218 7.6083,-1.40214 8.22816,1.42015 0.11031,0.5022 0.42833,0.93541 0.81658,1.11231 1.09617,0.49942 1.46955,2.68517 0.74846,4.38121 -0.23003,0.54104 -0.41146,1.66301 -0.40315,2.4933 0.008,0.83029 -0.10115,1.58144 -0.24323,1.66925 -0.14205,0.0878 -0.25831,0.39452 -0.25831,0.68157 0,0.76189 -1.04151,3.74295 -1.47794,4.23018 -0.20579,0.22974 -0.37415,0.6096 -0.37415,0.84413 0,0.23455 -0.29765,1.25161 -0.66145,2.26015 -0.36381,1.00854 -0.66191,2.17649 -0.66244,2.59546 0,0.83611 -0.60534,1.94596 -1.68259,3.09046 -0.38373,0.4077 -0.69768,0.85609 -0.69768,0.99648 0,0.14039 -0.39153,0.44193 -0.87006,0.67013 -0.47854,0.22821 -1.14873,0.82159 -1.4893,1.31863 -0.3406,0.49705 -0.71573,0.90374 -0.83365,0.90374 -0.1179,0 -0.76465,0.47625 -1.43719,1.05834 -0.67254,0.58208 -1.3644,1.06799 -1.53744,1.07981 -0.17307,0.0119 0.0351,0.17571 0.46246,0.36423 0.54425,0.24003 1.01992,0.26887 1.5875,0.0963 0.44572,-0.13552 1.16758,-0.29535 1.60415,-0.35518 z"
       id="path912"
       inkscape:connector-curvature="0" />
    <path
       style="fill:#445500;stroke-width:0.26458332"
       d="m 123.64613,204.82755 c 0.87313,-0.35967 1.76938,-0.6545 1.99165,-0.65519 0.7288,-0.003 1.57192,-0.77324 1.38354,-1.26524 -0.31726,-0.82843 -1.3153,-2.14616 -2.17059,-2.86586 -0.46342,-0.38994 -1.01635,-1.13826 -1.22875,-1.66298 -0.21238,-0.5247 -0.76766,-1.22137 -1.23394,-1.54813 l -0.84778,-0.59412 -0.2119,0.57282 c -0.12422,0.33581 -0.0991,0.68564 0.0607,0.84548 0.348,0.348 0.3466,1.60972 -0.003,2.86924 -0.30342,1.09249 -0.50644,1.28262 -1.48424,1.38997 -0.36933,0.0405 -0.92064,0.32281 -1.22512,0.62732 -0.46162,0.46162 -0.50417,0.65403 -0.25604,1.15808 0.16367,0.33248 0.37261,0.87239 0.46432,1.19981 0.14819,0.52901 0.33422,0.59462 1.67029,0.58904 0.9825,-0.004 2.05362,-0.23288 3.09102,-0.66024 z"
       id="path910"
       inkscape:connector-curvature="0" />
    <path
       style="fill:#ffffff;stroke-width:0.26458332"
       d="m 114.61122,222.04962 c 1.04016,-0.0444 2.38056,-0.0967 2.97873,-0.11607 0.67593,-0.022 1.45479,-0.28453 2.05788,-0.69379 0.90157,-0.61185 1.05447,-0.63598 2.15842,-0.3407 0.87283,0.23344 1.39014,0.24151 1.94937,0.0305 0.44066,-0.16634 0.91212,-0.19172 1.11961,-0.0602 1.00677,0.63794 3.96814,-0.22172 5.93362,-1.72246 0.68636,-0.52409 1.69315,-1.07278 2.23732,-1.21931 0.54414,-0.1465 1.13686,-0.44413 1.31718,-0.66137 0.18028,-0.21723 0.52157,-0.39876 0.7584,-0.40339 0.23685,-0.005 0.66175,-0.18322 0.94422,-0.39687 0.28249,-0.21365 0.68347,-0.38846 0.89111,-0.38846 0.20765,0 0.76769,-0.34256 1.24455,-0.76124 0.47683,-0.4187 1.44505,-0.97403 2.15159,-1.23412 0.70652,-0.26009 1.64177,-0.73385 2.07833,-1.05278 0.43656,-0.31895 1.09141,-0.67286 1.45521,-0.7865 0.3638,-0.11364 1.13771,-0.52805 1.71979,-0.92093 0.58208,-0.39288 1.67719,-1.05804 2.43356,-1.47812 0.79319,-0.44054 1.43462,-1.00042 1.51556,-1.32295 0.0772,-0.30752 0.72607,-0.92326 1.44192,-1.36826 0.93187,-0.57928 1.35009,-1.03 1.47238,-1.58679 0.094,-0.4277 0.64194,-1.40467 1.21775,-2.17101 0.57584,-0.76634 1.04696,-1.67492 1.04696,-2.01906 0,-0.34415 0.35718,-1.18893 0.79375,-1.87733 0.43656,-0.68836 0.79375,-1.49942 0.79375,-1.80229 0,-0.30289 0.35348,-0.93771 0.78552,-1.41073 0.43203,-0.47302 0.91977,-1.35858 1.08384,-1.96789 0.16406,-0.60931 0.52652,-1.39795 0.80541,-1.75252 0.29343,-0.37304 0.50284,-1.0459 0.497,-1.59681 -0.0225,-2.10643 0.43256,-6.01758 0.77012,-6.62028 0.19746,-0.35258 0.38235,-1.42414 0.41085,-2.38125 0.0463,-1.55403 0.54554,-3.80034 1.22748,-5.52296 0.13234,-0.33425 0.24061,-1.07138 0.24061,-1.63801 0,-0.56666 0.12602,-1.10818 0.28006,-1.20338 0.33266,-0.20558 0.0531,-1.75667 -0.36441,-2.022 -0.19759,-0.12557 -0.18661,-0.38983 0.0366,-0.87971 0.17547,-0.38513 0.25789,-0.79917 0.18314,-0.92011 -0.0747,-0.12092 -0.15401,-1.74911 -0.17616,-3.61818 -0.0222,-1.8691 -0.16047,-3.63509 -0.30742,-3.92446 -0.24312,-0.47879 -0.51424,-3.429 -0.48053,-5.22856 0.0172,-0.92409 -0.21453,-0.9162 -1.12909,0.0384 -0.64047,0.66849 -0.97504,0.78324 -2.62919,0.9017 -2.61903,0.18751 -3.11438,0.28958 -4.44084,0.9149 -0.63725,0.30043 -1.54678,0.62587 -2.02121,0.72321 -0.4744,0.0973 -1.21825,0.35444 -1.65298,0.57132 -1.07614,0.53684 -3.59066,0.77811 -4.05898,0.38944 -0.28154,-0.23366 -0.44383,-0.21141 -0.69881,0.0958 -0.18264,0.22008 -0.53182,0.40013 -0.77592,0.40013 -0.24413,0 -0.55697,0.10687 -0.69522,0.23749 -0.13824,0.1306 -0.7276,0.2971 -1.30969,0.36997 -0.58208,0.0729 -1.59411,0.27212 -2.24895,0.44273 -0.65485,0.17063 -1.60735,0.23958 -2.11667,0.15319 -1.57525,-0.26712 -1.3185,-0.27974 -7.54063,0.37071 -1.16416,0.12168 -2.65244,0.23468 -3.30729,0.25106 -1.28918,0.0323 -3.19243,0.28477 -3.49575,0.46379 -0.10364,0.0612 -0.0825,0.37486 0.047,0.69707 0.75761,1.88487 1.59666,5.15681 1.59666,6.22633 0,0.68321 0.10729,1.61632 0.23844,2.07357 0.14801,0.5161 0.14158,0.92824 -0.0169,1.08678 -0.27789,0.27789 -0.52406,2.40371 -0.4975,4.29606 0.009,0.65485 -0.23447,1.84547 -0.54152,2.64584 -0.30702,0.80036 -0.62106,1.75286 -0.69784,2.11666 -0.0768,0.3638 -0.34708,0.89959 -0.60068,1.19063 -0.25779,0.29583 -0.53507,1.19562 -0.62886,2.0406 -0.14759,1.32934 -0.10515,1.54495 0.35213,1.78969 0.43699,0.23387 2.92195,3.73359 2.92195,4.11514 0,0.0681 0.45863,0.59632 1.01915,1.17393 0.56055,0.57759 1.22523,1.58975 1.47709,2.24925 0.25188,0.6595 0.54959,1.1991 0.66162,1.1991 0.11202,0 0.76491,0.71437 1.45087,1.5875 0.68598,0.87312 1.44766,1.58654 1.69269,1.58535 0.24501,0 1.08189,0.68345 1.85971,1.52136 1.41263,1.52172 1.41414,1.52524 1.30759,3.02344 -0.14197,1.99599 -1.0936,3.37492 -2.99201,4.33544 -0.84026,0.42513 -1.64433,0.6577 -1.9749,0.57126 -0.65762,-0.17198 -5.77059,0.27416 -6.19437,0.54049 -0.1605,0.10089 -0.49086,0.15071 -0.73414,0.11073 -0.81534,-0.13393 -3.60816,0.96126 -5.27569,2.06888 -0.90834,0.60333 -1.83886,1.03688 -2.0678,0.96343 -1.66635,-0.53454 -2.42729,-0.95708 -3.17037,-1.76041 -0.75501,-0.81626 -0.8337,-1.04224 -0.68937,-1.97977 0.0896,-0.58208 0.31639,-1.29645 0.50395,-1.5875 0.18756,-0.29104 0.41807,-0.92302 0.51223,-1.4044 0.0942,-0.48141 0.35142,-1.05545 0.57166,-1.27569 0.22024,-0.22022 0.40042,-0.68956 0.40042,-1.04296 0,-0.35341 0.1228,-0.64257 0.27287,-0.64257 0.37825,0 0.23788,-1.86971 -0.18815,-2.50627 -0.52596,-0.78584 -0.42598,-1.36533 0.3783,-2.19297 0.40019,-0.4118 0.94427,-1.45769 1.20907,-2.32421 0.26479,-0.86653 0.60711,-1.98239 0.76073,-2.47967 0.26077,-0.84426 0.41264,-2.16786 0.57933,-5.04896 0.0379,-0.65485 0.20169,-1.43685 0.36399,-1.73779 0.16232,-0.30096 0.36081,-1.23976 0.44111,-2.08626 0.0803,-0.84649 0.25083,-1.67183 0.37891,-1.83407 0.12811,-0.16227 0.29488,-1.06892 0.3706,-2.0148 0.0757,-0.94589 0.342,-2.25557 0.59167,-2.91042 0.72114,-1.89156 0.74784,-2.70452 0.15774,-4.80745 -0.30451,-1.08524 -0.55367,-2.45671 -0.55367,-3.04771 0,-1.64812 -0.30062,-2.78712 -0.76782,-2.90931 -0.49964,-0.13067 -1.08426,-1.26563 -1.08426,-2.10494 0,-0.32621 -0.13764,-0.67818 -0.30589,-0.78216 -0.65031,-0.4019 -4.173,-0.33121 -7.48072,0.15015 -2.68272,0.39039 -3.75483,0.44349 -4.7811,0.23675 -0.7276,-0.14658 -4.835257,-0.31385 -9.128117,-0.37169 -4.29287,-0.0578 -8.34099,-0.15407 -8.99584,-0.21383 -0.65484,-0.0598 -3.09072,-0.24313 -5.41307,-0.40738 -3.28372,-0.23228 -4.44725,-0.41588 -5.23367,-0.82577 -0.55617,-0.28988 -1.40148,-0.52707 -1.87847,-0.52707 -0.47699,0 -1.84597,-0.35719 -3.04218,-0.79375 -1.19621,-0.43657 -2.44344,-0.79375 -2.77163,-0.79375 -0.32819,0 -1.41216,-0.62508 -2.40882,-1.38907 -0.99666,-0.76398 -2.41047,-1.72505 -3.14181,-2.13571 -1.32705,-0.74518 -1.33149,-0.74571 -2.22525,-0.26459 -0.95886,0.51615 -1.37953,1.45876 -0.90578,2.0296 0.26798,0.32289 0.32973,2.60974 0.20544,7.60817 -0.0266,1.07018 -0.19042,1.92447 -0.42267,2.20429 -0.3104,0.37402 -0.31863,0.55394 -0.0454,0.99153 0.38441,0.61553 0.8584,4.66127 0.64273,5.48598 -0.0797,0.30461 -0.0116,0.7144 0.15121,0.91059 0.16283,0.19619 0.2933,0.64204 0.28993,0.99078 -0.0366,3.78907 0.008,4.29932 0.41642,4.75046 0.30718,0.33944 0.35819,0.60505 0.17802,0.92702 -0.15844,0.28311 -0.16044,0.8078 -0.005,1.40806 0.13593,0.52626 0.31533,1.2545 0.39865,1.6183 0.0833,0.3638 0.37121,0.97539 0.63974,1.35911 0.40569,0.57971 0.43942,0.83765 0.1995,1.52588 -0.23818,0.68324 -0.20533,0.95483 0.18761,1.55131 0.26199,0.39769 0.44654,1.08026 0.41011,1.51683 -0.0364,0.43656 0.11876,1.50336 0.34487,2.37069 0.22611,0.86733 0.4111,2.01213 0.4111,2.544 0,0.56414 0.21892,1.24539 0.52544,1.63504 0.28899,0.3674 0.68985,1.36573 0.89079,2.21851 0.48465,2.05676 1.05942,3.37478 1.98438,4.55041 0.41925,0.53287 1.08304,1.65052 1.47509,2.48369 0.70325,1.4945 1.73156,2.5862 2.43603,2.5862 0.19865,0 0.36119,0.10861 0.36119,0.24135 0,0.13272 0.68461,0.70768 1.52136,1.2777 1.31056,0.89276 1.86732,1.08741 4.01832,1.40483 1.70016,0.25093 2.78041,0.56087 3.38519,0.97126 0.48852,0.33152 0.94899,0.60278 1.02327,0.60278 0.13335,0 1.36233,0.53342 3.94249,1.71119 0.7276,0.33213 1.97776,0.74604 2.77812,0.91977 0.80037,0.17375 2.40771,0.6074 3.57188,0.96366 1.16416,0.35629 2.31589,0.64575 2.55938,0.64326 0.2435,-0.003 0.77928,0.27109 1.19065,0.60801 0.8087,0.66236 3.54557,1.40364 6.210847,1.68222 0.91686,0.0958 2.03454,0.39108 2.48375,0.65612 0.64445,0.38023 1.19743,0.45675 2.62105,0.36263 0.99237,-0.0656 1.85824,-0.17322 1.92418,-0.23915 0.0659,-0.0659 0.49691,0.0506 0.95771,0.25887 0.5765,0.26061 1.32088,0.3312 2.38628,0.22635 0.85164,-0.0838 2.39945,-0.18878 3.43958,-0.23321 z"
       id="path908"
       inkscape:connector-curvature="0" />
    <path
       style="fill:#ffffff;stroke-width:0.26458332"
       d="m 123.58689,243.32689 c 0.54949,-0.11486 1.22817,-0.14894 1.50815,-0.0757 0.28001,0.0732 0.84244,-0.0947 1.24987,-0.37325 0.60992,-0.4169 1.1148,-0.49149 2.85747,-0.42211 1.16417,0.0463 2.55548,0.15494 3.09179,0.24132 0.67525,0.1088 1.16123,0.0268 1.58023,-0.26672 0.33282,-0.23313 0.99951,-0.42384 1.48158,-0.42384 0.48207,0 1.16682,-0.19023 1.52168,-0.42275 0.35485,-0.23252 0.97575,-0.45916 1.37974,-0.50366 0.40402,-0.0445 1.38941,-0.26882 2.18978,-0.49845 0.80036,-0.22963 1.66928,-0.35033 1.93092,-0.26821 0.26165,0.0821 0.61884,0.0318 0.79375,-0.11181 0.17492,-0.14359 0.61569,-0.30226 0.97949,-0.35258 0.93171,-0.12888 1.0318,-1.08871 0.15518,-1.48813 -0.36454,-0.1661 -0.89585,-0.75324 -1.18073,-1.30476 -0.28488,-0.55153 -0.75097,-1.14324 -1.03576,-1.31493 -0.2848,-0.17166 -0.59963,-0.64791 -0.69962,-1.05833 -0.1,-0.4104 -0.63066,-1.52009 -1.17932,-2.46597 -0.54864,-0.94589 -1.15631,-2.13651 -1.35036,-2.64583 -0.19404,-0.50933 -0.49834,-1.10464 -0.67622,-1.32292 -0.34229,-0.42003 -1.23068,-3.90903 -1.28003,-5.02708 -0.0379,-0.85847 -0.93898,-1.01344 -1.60615,-0.27623 -0.26919,0.29744 -0.69302,0.54081 -0.94189,0.54081 -0.24887,0 -0.75697,0.23953 -1.12916,0.53226 -0.42961,0.33795 -1.1947,0.56825 -2.09558,0.63082 -0.82566,0.0574 -1.80216,0.33221 -2.33556,0.65738 -0.50416,0.30734 -1.13093,0.55925 -1.39284,0.55981 -0.26189,0 -0.8572,0.20759 -1.32292,0.46014 -0.58875,0.31927 -1.49164,0.46614 -2.96341,0.48201 -1.16417,0.0127 -3.00964,0.17712 -4.10105,0.36563 -2.25488,0.3895 -13.70076,0.58788 -13.91502,0.2412 -0.0765,-0.1238 -0.81671,-0.2268 -1.64486,-0.22895 -0.82817,-0.003 -2.03382,-0.18772 -2.67925,-0.41246 -0.64542,-0.22473 -2.193237,-0.52824 -3.439577,-0.67447 -1.24635,-0.14621 -2.86139,-0.48734 -3.589,-0.75803 -0.7276,-0.27073 -1.89772,-0.70962 -2.60026,-0.97534 l -1.27734,-0.48313 -0.5086,0.62463 c -0.27972,0.34354 -0.50932,0.81979 -0.51022,1.05834 -7.9e-4,0.23854 -0.16379,0.73136 -0.36198,1.09516 -0.1982,0.3638 -0.97795,1.83602 -1.73278,3.27162 -0.75482,1.43558 -1.59867,2.92386 -1.87522,3.3073 -0.27655,0.3834 -0.76206,1.4115 -1.07892,2.28462 -0.31685,0.87313 -0.66291,1.70656 -0.76901,1.85208 -0.1061,0.14552 -0.27082,0.59079 -0.36604,0.98947 -0.1597,0.66865 -0.0663,0.77639 1.20366,1.38906 0.75724,0.36531 1.75665,0.66418 2.22092,0.66418 0.46427,0 0.99235,0.1786 1.1735,0.39688 0.18116,0.21828 0.70175,0.39949 1.15688,0.40269 0.45512,0.003 1.36022,0.24744 2.01132,0.5428 1.20073,0.54464 3.76036,0.82814 7.15055,0.79192 4.892387,-0.0522 6.718647,0.003 6.983647,0.20987 0.16082,0.12575 1.00677,0.14295 1.87989,0.0383 1.18544,-0.14216 2.05656,-0.0675 3.43959,0.29487 2.11137,0.5532 4.79753,0.65723 4.95265,0.19183 0.0748,-0.22429 0.52171,-0.19654 1.67569,0.10414 1.60131,0.41719 4.90842,0.38661 7.07075,-0.0654 z"
       id="path906"
       inkscape:connector-curvature="0" />
  </g>
</svg>
