<?xml version="1.0" encoding="UTF-8" standalone="no"?>
<!-- Created with Inkscape (http://www.inkscape.org/) -->

<svg
   xmlns:dc="http://purl.org/dc/elements/1.1/"
   xmlns:cc="http://creativecommons.org/ns#"
   xmlns:rdf="http://www.w3.org/1999/02/22-rdf-syntax-ns#"
   xmlns:svg="http://www.w3.org/2000/svg"
   xmlns="http://www.w3.org/2000/svg"
   xmlns:sodipodi="http://sodipodi.sourceforge.net/DTD/sodipodi-0.dtd"
   xmlns:inkscape="http://www.inkscape.org/namespaces/inkscape"
   version="1.1"
   id="svg64"
   width="1160.3191"
   height="1470.3353"
   viewBox="0 0 1160.3191 1470.3353"
   sodipodi:docname="caludron.jpg.svg"
   inkscape:version="0.92.3 (2405546, 2018-03-11)">
  <metadata
     id="metadata70">
    <rdf:RDF>
      <cc:Work
         rdf:about="">
        <dc:format>image/svg+xml</dc:format>
        <dc:type
           rdf:resource="http://purl.org/dc/dcmitype/StillImage" />
        <dc:title></dc:title>
      </cc:Work>
    </rdf:RDF>
  </metadata>
  <defs
     id="defs68" />
  <sodipodi:namedview
     pagecolor="#ffffff"
     bordercolor="#666666"
     borderopacity="1"
     objecttolerance="10"
     gridtolerance="10"
     guidetolerance="10"
     inkscape:pageopacity="0"
     inkscape:pageshadow="2"
     inkscape:window-width="1918"
     inkscape:window-height="1038"
     id="namedview66"
     showgrid="false"
     fit-margin-top="0"
     fit-margin-left="0"
     fit-margin-right="0"
     fit-margin-bottom="0"
     inkscape:zoom="0.40125504"
     inkscape:cx="279.32427"
     inkscape:cy="764.68577"
     inkscape:window-x="0"
     inkscape:window-y="0"
     inkscape:window-maximized="0"
     inkscape:current-layer="svg64" />
  <path
     style="fill:#000000;stroke-width:1.35946381"
     d="m 744.25552,286.77782 c -2.9908,-1.4084 -7.2731,-4.11075 -9.5162,-6.00529 -3.5589,-3.00564 -4.0856,-4.35586 -4.1349,-10.59798 -0.031,-3.93456 -0.507,-8.45423 -1.0578,-10.04385 -0.7686,-2.21878 -0.3794,-3.05281 1.6753,-3.59021 1.472,-0.385 3.7834,-3.04289 5.1362,-5.90646 2.1246,-4.49752 3.2926,-5.3692 8.5771,-6.40104 3.3647,-0.65703 6.7903,-1.74405 7.6122,-2.41549 0.9046,-0.73873 5.199,-0.33158 10.8757,1.03129 12.9321,3.10474 15.3849,6.12234 15.4498,19.00707 0.038,7.45258 -0.43,9.89458 -2.0107,10.50104 -1.1328,0.43476 -2.6512,2.34643 -3.3743,4.24819 -0.7231,1.90189 -2.7021,3.99383 -4.3979,4.64882 -1.6956,0.65499 -4.5661,2.78513 -6.3788,4.73365 -4.0026,4.30271 -10.4137,4.57718 -18.4557,0.79026 z"
     id="path2425"
     inkscape:connector-curvature="0" />
  <path
     style="fill:#000000;stroke-width:1.35946381"
     d="m 354.08942,75.215885 c -2.2431,-0.24742 -8.1796,-1.11911 -13.1924,-1.9371 l -9.1141,-1.48712 -4.8647,-9.84537 c -6.0129,-12.16938 -7.9219,-22.56302 -5.2977,-28.84374 1.6547,-3.96039 1.6103,-4.60546 -0.3945,-5.72743 -1.7743,-0.99295 -1.0279,-1.47257 3.476,-2.23346 3.1544,-0.53291 6.7747,-2.03063 8.0452,-3.32824 2.8226,-2.88301 17.518,-11.67956 21.5628,-12.9071497 1.6167,-0.49077 5.2185,-2.7033 8.0039,-4.91691 4.4752,-3.55663001 6.1098,-4.02035001 14.0537,-3.98785001 8.4242,0.034 9.3221,0.34584 14.2787,4.95171001 7.9281,7.3670697 10.6762,21.1726897 6.3986,32.1453297 -0.8206,2.10486 -1.4919,4.05325 -1.4919,4.32976 0,0.27652 -0.7134,2.2249 -1.5854,4.32976 -1.7393,4.19856 -2.0693,5.21884 -2.323,7.18041 -0.4735,3.66158 -13.1328,13.98807 -21.9214,17.88171 -12.3575,5.47497 -10.5236,4.95932 -15.6338,4.39569 z"
     id="path2427"
     inkscape:connector-curvature="0" />
  <path
     style="fill:#000000;stroke-width:1.35946381"
     d="m 600.15232,1468.4598 c -2.2431,-1.2723 -8.5031,-4.9134 -13.9114,-8.0911 -5.408,-3.1778 -10.52,-5.7777 -11.3598,-5.7777 -0.8397,0 -3.7772,-1.7824 -6.5277,-3.9608 -2.7505,-2.1784 -7.1444,-4.983 -9.7641,-6.2322 -2.6198,-1.2494 -6.2202,-4.3978 -8.0008,-6.9965 -1.7807,-2.5986 -5.8865,-6.6273 -9.1242,-8.9522 -3.2376,-2.3251 -5.8865,-4.9895 -5.8865,-5.921 0,-0.9314 -1.8353,-3.4257 -4.0784,-5.5428 -2.2431,-2.1171 -4.0784,-4.5691 -4.0784,-5.4488 0,-0.8797 -1.5587,-3.4519 -3.464,-5.7162 -1.9052,-2.2642 -3.6771,-5.2231 -3.9374,-6.5752 -0.2605,-1.3521 -1.8512,-5.2942 -3.5351,-8.7601 l -3.0616,-6.3016 -11.0138,0.7183 c -6.0577,0.395 -12.0132,1.232 -13.2347,1.86 -1.2213,0.6278 -6.5275,1.8098 -11.7914,2.6265 -7.7971,1.2097 -10.2827,1.1264 -13.413,-0.45 -2.9686,-1.4949 -9.0988,-1.853 -26.9533,-1.5743 -12.711,0.1984 -25.8407,-0.2259 -29.177,-0.9429 -3.3364,-0.717 -14.6827,-1.8119 -25.2141,-2.4332 -14.4257,-0.8509 -20.641,-1.8024 -25.2016,-3.8581 -7.4328,-3.3504 -19.1359,-5.0594 -22.5546,-3.2936 -1.3923,0.7191 -4.2036,2.0885 -6.2474,3.0431 -2.0438,0.9548 -4.0536,2.7999 -4.4664,4.1002 -0.7591,2.3916 -18.434,17.8545 -21.4505,18.7659 -0.8992,0.2716 -3.5917,2.5657 -5.9837,5.098 -3.2921,3.4852 -5.4774,4.6041 -8.993,4.6041 -2.5543,0 -6.1031,1.1304 -7.8863,2.5121 -1.7832,1.3817 -7.5245,5.4293 -12.7584,8.9949 -5.2339,3.5655 -10.4418,7.5237 -11.573,8.7959 -3.1319,3.5224 -18.4899,13.2284 -29.8311,18.8528 -12.9959,6.4449 -21.8808,6.5263 -34.6262,0.3173 -11.5968,-5.6496 -15.611,-10.1679 -16.6226,-18.7097 -0.5101,-4.3061 -1.9821,-8.2376 -3.9355,-10.5111 l -3.1208,-3.6318 3.9728,-5.8864 c 4.1247,-6.1117 4.9415,-8.8908 2.6131,-8.8908 -2.5056,0 -1.3974,-4.0632 4.0784,-14.9541 4.0028,-7.9612 5.4379,-12.4757 5.4379,-17.1068 0,-3.4603 0.9568,-9.9838 2.1262,-14.4967 1.3082,-5.0482 1.7822,-10.2419 1.2321,-13.4981 -0.5047,-2.9867 -0.2954,-6.0141 0.4803,-6.9487 2.2022,-2.6536 -0.9776,-5.576 -9.9562,-9.1506 -4.4862,-1.7861 -9.0744,-4.2865 -10.196,-5.5565 -3.0446,-3.4479 -14.7246,-9.05 -22.4091,-10.7482 -7.5936,-1.6781 -11.5775,-4.5783 -11.5775,-8.428 0,-2.8557 -12.9773,-16.0262 -15.7911,-16.0262 -0.9747,0 -5.7618,-4.1294 -10.6378,-9.1764 -4.8761,-5.047 -11.9074,-11.3175 -15.625,-13.9345 -3.7176,-2.6169 -6.7881,-5.3469 -6.823,-6.0663 -0.064,-1.327 -2.2344,-3.7476 -12.368,-13.7979 -4.8712,-4.8311 -10.8067,-14.8422 -10.8067,-18.2273 0,-2.9916 -7.6706,-12.1988 -12.3579,-14.8332 -2.9232,-1.6429 -5.3266,-3.7127 -5.3409,-4.5995 -0.053,-3.3043 -8.3127,-14.6637 -11.5604,-15.8985 -2.5097,-0.9542 -3.3679,-2.2794 -3.3679,-5.201 0,-2.1564 -1.8353,-7.3601 -4.0784,-11.5635 -2.2954,-4.3018 -4.0784,-9.7196 -4.0784,-12.3936 0,-3.7184 -1.0572,-5.713 -4.8648,-9.1778 -4.2205,-3.8405 -4.7382,-4.9705 -3.9074,-8.5296 0.5268,-2.2564 0.8509,-7.7733 0.7204,-12.2595 -0.1928,-6.6237 -0.9928,-9.2225 -4.2572003,-13.8274 -2.4991,-3.5256 -4.0244,-7.3825 -4.032,-10.196 -0.069,-25.4608 -0.9875,-43.0283 -2.3797,-45.5272 -1.31190004,-2.3544 -1.23720004,-3.7025 0.3771,-6.7973 2.5768,-4.9408 2.5736,-9.2403 -0.014,-11.823 -3.0149,-3.0149 -2.51910004,-8.5405 0.9867,-10.996 2.2042,-1.5438 3.1093,-3.6875 3.3332,-7.894 0.1692,-3.176 0.7102,-8.073 1.2025,-10.8824 0.6355,-3.6278 0.2606,-6.076 -1.2942,-8.4488 -3.1657,-4.8315 -2.6975,-9.99052 1.3936,-15.35422 2.2147,-2.9036 3.8456003,-7.1049 4.2715003,-11.0039 0.3789,-3.4689 1.5197,-7.5137 2.535,-8.9886 1.0153,-1.4747 1.8461,-5.0749 1.8461,-8 0,-9.2532 3.1791,-23.137 6.3849,-27.8844 1.7009,-2.5186 3.6502,-6.5997 4.332,-9.0689 0.6819,-2.4692 3.0426,-7.1378 5.2461,-10.3747 3.1233,-4.5875 3.7851,-6.688 3.0019,-9.5263 -0.6634,-2.4045 -0.337,-4.5943 0.9614,-6.4479 1.0813,-1.5439 2.9174,-6.023 4.0803,-9.9536 1.3971,-4.7221 4.1404,-9.3177 8.0863,-13.5459 3.6108,-3.869 5.972,-7.6858 5.972,-9.6532 0,-4.9238 2.6559,-11.7095 7.6949,-19.6599 2.4972,-3.94 4.5403,-8.3883 4.5403,-9.8852 0,-1.5074 1.3717,-3.3468 3.0743,-4.1225 3.4231,-1.5597 7.1046,-7.0232 10.9145,-16.198 1.3935,-3.3558 5.2396,-8.7692 8.5468,-12.0296 3.3073,-3.2605 6.0132,-6.9724 6.0132,-8.2487 0,-3.3678 6.115,-11.1318 10.5009,-13.3325 3.1815,-1.5964 10.8241,-11.0521 9.6039,-11.8821 -0.216,-0.147 -4.0632,-2.2547 -8.5494,-4.6841 -5.5587,-3.01 -12.8372,-9.2564 -22.8507,-19.6111 -16.8995,-17.4753 -23.81,-27.8109 -25.4104,-38.0053 -0.6129,-3.9035 -1.9436,-9.2927 -2.9574,-11.9759 -2.6329,-6.9691 -2.16,-18.2293 0.9077,-21.6193 1.3625,-1.5054 3.3309,-6.865 4.3744,-11.9102 3.5706,-17.265 3.9946,-18.7352 6.5708,-22.7875 1.4193,-2.2322 4.2833,-6.2287 6.3647,-8.881 4.3673,-5.5645 9.2107,-14.6421 9.2107,-17.2618 0,-0.9884 2.1391,-3.936 4.7534,-6.5504 2.6143,-2.6144 5.7434,-6.2645 6.9536,-8.1115 1.2102,-1.847 3.0627,-3.3582 4.1169,-3.3582 1.0541,0 2.481,-1.4849 3.1711,-3.2999 1.5487,-4.0734 5.6003,-8.9275 7.4769,-8.9577 0.7683,-0.014 5.3735,-4.0247 10.2336,-8.9161 5.2118,-5.2457 10.418,-9.2193 12.692,-9.6872 2.1205,-0.4362 4.186,-1.6553 4.5903,-2.7088 0.4043,-1.0535 4.787,-4.0468 9.7394,-6.6518 4.9522,-2.605 10.8394,-5.8998 13.0825,-7.3218 5.3526,-3.3935 26.6123,-9.2106 42.8231,-11.7176 7.1032,-1.0984 16.2796,-2.5585 20.392,-3.2446 4.1123,-0.686 12.5074,-1.6628 18.6557,-2.1704 9.0897,-0.7504 11.3242,-1.3815 11.9576,-3.3772 0.6992,-2.2027 2.0097,-2.3746 12.7867,-1.6763 7.8239,0.5068 13.6049,0.2084 16.5912,-0.8568 6.4585,-2.3033 28.6881,-5.5437 38.0314,-5.5437 4.3204,0 8.2332,-0.6118 8.6953,-1.3595 0.4622,-0.7477 3.6618,-1.3595 7.1104,-1.3595 3.742,0 7.2043,-0.8453 8.5869,-2.0965 1.5407,-1.3943 6.0404,-2.3016 13.4315,-2.7085 6.1131,-0.3363 12.4597,-1.3499 14.1037,-2.2525 2.6922,-1.4776 7.5841,-2.1551 17.1525,-2.3755 1.8081,-0.042 4.3829,-1.0671 5.7217,-2.2787 1.9294,-1.746 5.4333,-2.1953 16.8926,-2.1658 9.4427,0.024 16.0493,-0.6275 19.0447,-1.8791 2.5227,-1.0539 8.4657,-1.9164 13.207,-1.9164 5.4749,0 9.5831,-0.7283 11.2592,-1.996 1.4513,-1.0977 3.6155,-2.0154 4.8091,-2.0392 1.1936,-0.023 4.1559,-1.0337 6.5829,-2.2446 2.8012,-1.3974 6.2896,-1.9496 9.5519,-1.512 2.8266,0.3792 5.9495,0.1885 6.94,-0.4237 1.0161,-0.6279 3.6142,-0.3554 5.9614,0.6253 2.3872,0.9975 5.315,1.2956 6.869,0.6995 6.656,-2.5531 9.1411,-2.8719 25.8193,-3.3111 9.7202,-0.2561 22.873,-0.8619 29.2285,-1.3463 9.0816,-0.6921 40.1441,-1.5811 63.2151,-1.809 5.7722,-0.057 13.6845,0.6711 15.6338,1.439 10.3315,4.0687 13.0099,4.0789 24.0191,0.091 4.682,-1.6958 6.546,-1.7621 10.7295,-0.3814 5.6382,1.8608 33.0065,2.0942 34.8039,0.2969 0.6267,-0.6269 -1.4878,-4.7796 -4.699,-9.2285 -7.0014,-9.6999 -10.1108,-17.884 -10.3911,-27.3498 -0.18,-6.0779 0.1838,-7.1504 2.6971,-7.948 1.5977,-0.507 3.7536,-2.9527 4.7906,-5.4347 1.4168,-3.3908 2.9912,-4.7421 6.3333,-5.4361 2.4464,-0.5079 7.7559,-2.7601 11.7989,-5.0048 9.1517,-5.0813 19.5623,-7.8613 25.8856,-6.9122 7.1325,1.0704 13.146,7.6168 19.7016,21.4481 6.478,13.6672 7.1025,18.213 3.456,25.1501 -1.3756,2.6169 -3.4107,6.697 -4.5224,9.0669 -1.1116,2.3698 -3.1625,4.9196 -4.5576,5.6663 -1.3949,0.7464 -2.6285,2.5813 -2.741,4.0773 -0.2989,3.9659 8.3825,6.9982 20.3687,7.1149 5.4057,0.053 11.0029,0.5557 12.4382,1.1181 1.4354,0.5626 5.5683,0.4378 9.1843,-0.2772 5.09,-1.0064 7.8776,-0.8259 12.3445,0.7997 3.1734,1.1548 8.2169,2.5148 11.2077,3.0223 2.9908,0.5074 6.2206,1.5695 7.1774,2.3603 1.1905,0.9839 2.6924,1.0036 4.7581,0.062 2.0201,-0.9203 4.1429,-0.9255 6.4172,-0.015 1.8693,0.7478 11.2822,1.3126 20.9176,1.2548 l 17.519,-0.1047 7.631,5.0186 c 12.2436,8.0517 22.7141,12.745 29.6869,13.307 3.5712,0.2876 9.5519,1.1866 13.2904,1.9976 3.7385,0.811 11.0796,1.9842 16.3136,2.6071 15.8995,1.8924 29.2649,5.664 34.5098,9.7383 1.7831,1.3852 4.9447,2.5185 7.0255,2.5185 2.0808,0 6.7753,1.5028 10.4321,3.3394 3.7822,1.8997 7.8634,3.0218 9.4662,2.6027 1.56788,-0.41 6.05518,0.7581 10.11648,2.6332 4.0143,1.8535 9.7458,3.7942 12.7366,4.3126 7.6026,1.3179 19.9277,9.1471 25.1948,16.0044 2.4392,3.1757 6.7711,7.4359 9.6264,9.467 5.1835,3.6875 12.0803,13.033 12.0803,16.3695 0,0.9701 0.8671,3.0017 1.9269,4.5148 1.0597,1.5129 2.3607,5.1667 2.8911,8.1194 0.5303,2.9526 1.8524,6.3871 2.9379,7.6324 1.7325,1.9874 1.6919,2.6943 -0.3321,5.7833 -1.9062,2.9092 -2.0631,4.5197 -0.9051,9.2914 1.5696,6.4689 0.8816,20.4582 -1.1974,24.343 -0.7488,1.3988 -3.9894,5.5025 -7.2014,9.1191 -3.212,3.6166 -7.1924,9.3692 -8.8454,12.7836 -1.6528,3.4143 -3.8922,6.9441 -4.9763,7.8438 -1.0841,0.8998 -1.9712,2.7846 -1.9712,4.1884 0,1.4039 -0.5511,2.5525 -1.2247,2.5525 -0.6735,0 -4.4062,3.9214 -8.2948,8.714 -3.8885,4.7928 -8.2316,9.0178 -9.651,9.389 -2.2139,0.579 -2.5809,1.9821 -2.5809,9.8669 0,8.301 0.5884,10.28 6.0705,20.4191 9.0277,16.6968 14.6023,24.9374 21.9849,32.4991 8.9947,9.2132 14.607,16.7282 16.7514,22.4312 0.984,2.6169 2.7901,5.6757 4.0132,6.7973 2.652,2.4315 9.6369,14.1589 9.6369,16.1798 0,0.7818 2.193,5.8727 4.8733,11.3134 5.0406,10.2315 11.4403,28.4739 11.4403,32.6106 0,1.2979 2.1947,6.811 4.8771,12.2517 2.6823,5.4406 5.8007,12.9508 6.9296,16.6894 1.129,3.7385 2.8873,7.7372 3.9076,8.8861 1.0202,1.1489 3.1643,4.8194 4.7648,8.1568 4.1064,8.5632 7.23,14.1818 11.3216,20.3645 1.95,2.9466 3.5648,6.747 3.5886,8.4454 0.023,1.6982 0.9282,4.2574 2.01,5.6867 1.0815,1.4294 1.6346,3.9218 1.2288,5.5388 -0.4444,1.7705 0.1074,3.6418 1.3887,4.7047 1.1696,0.9708 2.1266,3.5556 2.1266,5.7444 0,4.8416 2.8907,10.6899 7.6228,15.422 2.9955,2.9956 3.396,4.295 2.6362,8.5524 -1.3885,7.7809 -0.7652,20.2746 1.6072,32.20942 2.9362,14.7715 3.3326,38.5024 0.829,49.6204 -1.0945,4.8601 -2.1367,13.2734 -2.316,18.6962 -0.1794,5.4227 -1.0587,10.5921 -1.9541,11.4874 -0.8953,0.8954 -1.6278,3.2123 -1.6278,5.1487 0,1.9364 -0.9894,7.167 -2.1985,11.6234 -3.1503,11.6096 -4.607,18.2498 -5.2898,24.1116 -0.3289,2.8234 -3.6726,11.4921 -7.4305,19.264 -3.7579,7.772 -6.8326,14.7135 -6.8326,15.4257 0,3.8738 -6.709,15.3034 -15.0621,25.6602 -16.1265,19.9948 -17.7671,21.8463 -34.8982,39.382 -9.1594,9.3757 -16.6535,17.5088 -16.6535,18.0736 0,3.2348 -17.5142,18.4367 -26.9067,23.3545 -30.2425,15.8339 -29.5368,15.0865 -29.4065,31.1533 0.091,11.1988 0.7526,14.7099 5.0742,26.9235 3.9214,11.0826 4.8563,15.5274 4.4323,21.0717 -0.2957,3.8645 -0.5908,11.1039 -0.6559,16.0873 -0.091,6.9583 -0.7465,9.7975 -2.8243,12.2352 -1.4881,1.746 -3.9929,4.8738 -5.5664,6.9508 -1.5733,2.077 -5.4027,5.0665 -8.5098,6.6433 -3.10698,1.5767 -7.35018,4.2887 -9.42908,6.0266 -3.5788,2.9918 -4.6275,3.1313 -19.7122,2.6238 -21.9535,-0.7389 -35.3258,-2.6928 -45.4215,-6.6369 -4.7168,-1.8428 -10.1053,-3.7925 -11.9745,-4.3326 -3.9153,-1.1315 -16.6276,-9.2812 -19.0726,-12.2273 -0.9088,-1.0951 -2.4407,-1.9909 -3.4043,-1.9909 -0.9634,0 -3.2423,-1.7713 -5.064,-3.9362 -1.8217,-2.165 -5.2837,-4.9558 -7.6934,-6.202 -2.4098,-1.2461 -5.5869,-4.3089 -7.0603,-6.8061 -1.5282,-2.5899 -4.2256,-4.9286 -6.2796,-5.4441 -1.9804,-0.497 -5.4362,-2.6982 -7.6795,-4.8915 -4.2831,-4.1875 -7.4583,-4.9863 -9.9428,-2.5018 -1.0751,1.0751 -2.376,0.903 -4.7042,-0.6225 -3.3503,-2.1952 -7.2617,-1.9586 -27.6605,1.673 -9.4614,1.6845 -25.067,3.6119 -46.2217,5.7089 -8.2248,0.8153 -18.6247,2.7179 -23.1109,4.2281 -4.4862,1.5102 -10.298,2.7002 -12.9149,2.6444 -7.0914,-0.1513 -21.97,7.2953 -25.0366,12.5306 -6.9243,11.8212 -10.3015,18.7284 -13.4077,27.4223 -1.8724,5.2407 -4.6578,11.6642 -6.1896,14.2744 -1.532,2.61 -4.4311,9.3338 -6.4427,14.9416 -2.0114,5.6077 -5.1067,11.9252 -6.8782,14.0387 -1.7716,2.1136 -3.2211,4.4421 -3.2211,5.1746 0,0.7323 -2.9058,2.596 -6.4574,4.1416 -3.5516,1.5454 -7.3751,3.599 -8.4967,4.5634 -1.1216,0.9644 -5.7097,3.084 -10.196,4.7101 -24.0575,8.7203 -39.2229,11.0401 -46.2217,7.0702 z"
     id="path74"
     inkscape:connector-curvature="0" />
  <path
     style="fill:#333333;stroke-width:1.35946381"
     d="m 637.53762,1441.4985 c 5.8555,-1.0815 23.0482,-15.0003 23.0852,-18.6895 0.014,-1.4043 1.9074,-5.8423 4.2074,-9.8622 2.2998,-4.0198 4.4635,-9.5817 4.808,-12.3595 0.3446,-2.7779 2.3576,-7.8222 4.4733,-11.2096 2.1158,-3.3872 5.9168,-10.3555 8.4466,-15.4851 2.53,-5.1296 5.9107,-10.6035 7.5128,-12.1643 1.602,-1.5608 2.6169,-3.6092 2.2551,-4.552 -0.3617,-0.9427 0.076,-3.9396 0.9745,-6.6598 1.179,-3.5726 2.8861,-5.4696 6.1486,-6.8328 2.484,-1.0379 4.9002,-2.5081 5.3692,-3.267 0.4691,-0.7592 2.8811,-1.3802 5.3599,-1.3802 2.4789,0 7.1212,-0.9224 10.3163,-2.0496 3.1952,-1.1273 14.1308,-2.9971 24.3014,-4.155 10.1707,-1.158 21.245,-2.7631 24.6097,-3.5669 3.3647,-0.8039 11.9926,-1.6501 19.1732,-1.8807 8.8645,-0.2845 15.6289,-1.3302 21.0717,-3.2574 9.9315,-3.5167 22.8927,-5.0885 24.2221,-2.9374 0.5212,0.8434 3.1008,1.5335 5.7323,1.5335 3.7513,0 5.9829,-1.1746 10.3322,-5.4379 6.1732,-6.0514 13.3574,-7.4721 15.7912,-3.1229 1.0399,1.8578 1.6882,1.9888 3.2846,0.6639 1.094,-0.9078 5.8944,-1.8729 10.6675,-2.1445 4.7731,-0.2717 11.4312,-1.4793 14.7958,-2.6835 3.3647,-1.2043 7.5024,-2.1985 9.1949,-2.2094 1.6924,-0.014 4.1395,-0.5744 5.4379,-1.2521 1.2983,-0.6776 5.1135,-1.9568 8.4781,-2.8423 3.3647,-0.8857 9.499,-3.3114 13.6318,-5.3907 4.1328,-2.0792 9.6386,-4.2229 12.2352,-4.7638 2.5965,-0.541 7.9235,-2.7607 11.8376,-4.9327 3.9141,-2.172 8.0457,-3.9491 9.1813,-3.9491 1.1356,0 4.3476,-1.2235 7.1376,-2.7189 2.7902,-1.4955 5.8156,-2.719 6.7235,-2.719 0.9078,0 3.3639,-1.7447 5.458,-3.8772 2.3173,-2.3597 7.4922,-5.047 13.2229,-6.8663 5.17848,-1.6442 11.47038,-4.7935 13.98178,-6.9987 2.5115,-2.2051 5.2768,-4.0092 6.1452,-4.0092 2.6616,0 11.9625,-7.028 21.5894,-16.3136 5.0387,-4.86 11.0968,-10.3659 13.4621,-12.2351 11.2676,-8.9044 32.2605,-32.3356 35.8572,-40.0221 1.4206,-3.036 2.647,-7.3552 2.7255,-9.5984 0.1182,-3.3835 0.7142,-4.083 3.4984,-4.1055 2.6637,-0.022 4.2757,-1.6635 7.8169,-7.962 2.4536,-4.364 4.4611,-8.8062 4.4611,-9.8715 0,-1.0653 0.9176,-2.2891 2.0392,-2.7193 1.1216,-0.4304 2.0392,-1.6983 2.0392,-2.8174 0,-1.1191 2.214,-6.2481 4.9199,-11.3975 3.0445,-5.7936 4.6392,-10.4364 4.1835,-12.1794 -0.7336,-2.8051 1.4153,-9.5856 5.2136,-16.4506 1.0981,-1.9845 1.9966,-6.9368 1.9966,-11.0048 0,-5.67 0.6346,-7.9709 2.7189,-9.8571 2.1614,-1.956 2.7121,-4.1598 2.6857,-10.7466 -0.019,-4.5572 -0.6264,-10.8557 -1.3513,-13.9966 -0.8707,-3.7725 -0.8495,-6.9432 0.063,-9.3418 0.9239,-2.4299 0.9294,-4.1745 0.016,-5.2743 -0.9557,-1.1515 -0.3455,-3.0239 2.0389,-6.2556 1.9105,-2.5895 3.0402,-5.5227 2.5759,-6.688 -1.0385,-2.6068 -2.0231,-14.7611 -2.4811,-30.6244 -0.2156,-7.4731 -1.1984,-14.18612 -2.525,-17.24792 -1.1945,-2.757 -1.8657,-6.1834 -1.4914,-7.6142 0.3741,-1.4309 -0.3467,-3.6285 -1.6018,-4.8835 -1.4588,-1.4589 -1.9946,-3.4278 -1.4852,-5.4573 0.784,-3.1236 -2.4751,-15.2215 -4.7813,-17.7482 -0.6484,-0.7103 -1.1788,-2.1367 -1.1788,-3.1699 0,-1.0332 -2.0501,-5.3762 -4.5557,-9.6515 -2.5057,-4.2752 -4.989,-9.884 -5.5185,-12.464 -0.5295,-2.5798 -2.436,-7.4437 -4.2366,-10.8084 -1.8006,-3.3647 -4.6047,-8.8504 -6.2313,-12.1904 -1.6264,-3.3401 -4.7051,-8.9136 -6.8413,-12.3856 -2.1364,-3.4719 -3.8843,-7.5802 -3.8843,-9.1294 0,-1.6228 -1.1524,-3.1827 -2.7189,-3.6798 -3.1053,-0.9856 -3.4047,-2.1691 -1.1251,-4.4486 1.2186,-1.2188 1.0824,-2.6424 -0.579,-6.0496 -4.3988,-9.0207 -6.4527,-14.4488 -6.4527,-17.053 0,-1.4685 -1.1216,-4.129 -2.4925,-5.9122 -2.8915,-3.7612 -10.3931,-21.6429 -11.72,-27.9372 -0.4989,-2.3669 -2.7051,-6.1848 -4.9028,-8.4843 -2.1976,-2.2997 -3.9956,-5.1608 -3.9956,-6.3581 0,-1.1974 -1.2735,-3.8029 -2.8301,-5.7901 -5.2202,-6.6643 -12.779,-15.6464 -15.5509,-18.4789 -1.5109,-1.5439 -3.958,-5.1823 -5.4379,-8.0853 -1.4798,-2.9028 -4.2417,-6.8793 -6.1373,-8.8365 -5.6468,-5.8302 -9.4489,-11.9025 -11.3364,-18.1057 -0.9783,-3.2146 -3.3802,-8.1874 -5.3375,-11.0506 -2.5263,-3.6954 -3.3438,-6.2812 -2.8175,-8.9126 1.2061,-6.0311 -2.0195,-7.6016 -9.93268,-4.8358 -3.6045,1.2599 -7.8542,2.4601 -9.4435,2.6673 -1.5895,0.2071 -4.2417,1.1001 -5.8938,1.9843 -1.6522,0.8842 -5.2458,1.834 -7.9858,2.1107 -8.3237,0.8404 -11.9612,1.5279 -13.6694,2.5835 -1.9287,1.1921 -24.014,1.3067 -25.9106,0.1346 -0.7199,-0.445 -0.964,-1.7082 -0.5422,-2.8072 0.8468,-2.2068 12.0129,-10.15 14.2683,-10.15 0.7826,0 8.7943,-2.447 17.8039,-5.4378 9.0094,-2.9909 17.1141,-5.4379 18.0104,-5.4379 0.8962,0 2.7367,-1.2235 4.0901,-2.7189 1.3533,-1.4954 3.2619,-2.719 4.2412,-2.719 0.9794,0 2.4199,-1.1942 3.201,-2.6539 1.5936,-2.9776 13.83728,-9.5812 17.76458,-9.5812 2.616,0 9.4452,-6.3576 9.4773,-8.8225 0.014,-0.7555 3.6725,-5.6558 8.139,-10.8898 4.4665,-5.2339 8.129,-10.2461 8.139,-11.1384 0.014,-0.8923 1.1403,-2.4217 2.5123,-3.3987 6.114,-4.3541 9.9694,-12.8593 10.9381,-24.1295 1.3794,-16.052 0.125,-25.7616 -3.947,-30.5416 -7.3832,-8.6682 -22.6509,-23.915 -23.9477,-23.915 -0.7575,0 -2.8603,-1.6026 -4.6731,-3.5613 -5.7194,-6.1802 -12.9401,-9.8591 -22.54368,-11.4855 -5.1154,-0.8664 -9.8819,-2.1177 -10.5922,-2.7805 -0.7104,-0.6628 -3.58,-1.2052 -6.3773,-1.2052 -2.7971,0 -5.4638,-0.6118 -5.9259,-1.3595 -0.4621,-0.7477 -2.4107,-1.3594 -4.3303,-1.3594 -1.9195,0 -6.947,-1.7566 -11.1719,-3.9036 -12.5309,-6.3677 -30.8726,-11.4179 -40.5791,-11.1729 -4.6749,0.1183 -9.6655,-0.4093 -11.0899,-1.1717 -1.4245,-0.7623 -5.4626,-1.7309 -8.9736,-2.1523 -7.6765,-0.9215 -14.3023,-3.4249 -27.8542,-10.5242 -9.8239,-5.1464 -10.7789,-5.3646 -26.1696,-5.9816 -13.4228,-0.5381 -15.9737,-0.3218 -15.9737,1.3537 0,2.7699 2.9826,3.6444 12.4302,3.6444 7.8222,0 16.2036,3.0011 32.6418,11.6878 1.9847,1.0487 4.3687,1.9068 5.2979,1.9068 0.9292,0 4.1995,1.9999 7.2672,4.4441 3.0679,2.4442 7.1073,5.1419 8.9766,5.9951 1.8692,0.8532 6.1918,2.8297 9.6055,4.3925 3.4139,1.5627 6.9337,2.8413 7.8219,2.8413 2.1403,0 8.2985,3.4014 20.3401,11.2342 5.4441,3.5414 10.4464,6.4389 11.1159,6.4389 0.6697,0 2.1801,1.8352 3.3564,4.0783 1.1762,2.2432 3.1761,6.0641 4.4441,8.491 1.268,2.4268 2.7445,7.1679 3.2811,10.5358 0.8225,5.1615 0.3537,7.4579 -2.9834,14.62 -2.1776,4.6731 -4.7245,8.5199 -5.6601,8.5483 -0.9356,0.029 -3.2989,2.3648 -5.2517,5.192 -3.3082,4.7896 -5.4895,6.1504 -24.6398,15.3711 -1.2984,0.6252 -3.1643,1.1366 -4.1463,1.1366 -0.9822,0 -2.535,0.7492 -3.4506,1.6648 -0.9156,0.9158 -3.9438,1.7252 -6.7294,1.7989 -4.9401,0.1305 -20.1331,3.6902 -38.7908,9.0881 -5.0908,1.4729 -10.5268,2.3455 -12.0802,1.9393 -1.5534,-0.4062 -5.6469,0.2295 -9.0968,1.4128 -3.4499,1.1832 -10.249,2.6604 -15.1091,3.2827 -17.4108,2.2292 -31.2534,5.1458 -33.7709,7.1153 -1.003,0.7845 -3.8051,1.2929 -6.2271,1.1299 -2.4222,-0.1631 -8.6368,0.3376 -13.8104,1.1126 -9.1862,1.3762 -51.6042,6.4983 -62.4258,7.5381 -2.9908,0.2874 -14.0024,0.5395 -24.4703,0.5603 -18.3413,0.037 -28.96,1.4101 -35.9247,4.6476 -3.9801,1.8502 -72.8902,1.4411 -84.3879,-0.5009 -4.1123,-0.6947 -12.9328,-1.6192 -19.6008,-2.0547 -6.6682,-0.4355 -12.4941,-1.0205 -12.9462,-1.3 -0.4523,-0.2795 -12.7376,-1.1758 -27.3006,-1.9918 -14.5631,-0.8159 -32.1749,-2.1347 -39.1374,-2.9307 -11.3826,-1.3013 -13.0276,-1.2016 -16.3135,0.9881 -3.9558,2.636 -20.3709,4.1852 -37.6411,3.5524 -2.9908,-0.1101 -7.579,-0.1594 -10.196,-0.1101 -2.617,0.049 -8.1228,-0.5894 -12.2352,-1.4182 -8.5774,-1.7287 -32.6278,-2.4321 -47.5812,-1.3917 -8.4704,0.5893 -10.9563,0.2652 -14.6894,-1.9147 -4.0689,-2.3762 -5.546,-2.4892 -15.6339,-1.1955 -6.1272,0.7856 -14.4572,2.0597 -18.5111,2.8312 -6.4868,1.2345 -8.8509,0.9718 -19.7122,-2.1904 -9.6802,-2.8181 -15.8591,-3.6758 -28.6551,-3.9771 -8.9724,-0.2114 -17.5882,-0.7014 -19.146,-1.0892 -2.7688,-0.6892 -25.7993,-14.3501 -31.1664,-18.4868 -6.895,-5.3144 -11.6443,-11.9076 -12.2826,-17.0512 -0.8074,-6.5071 -0.702,-16.5196 0.2746,-26.0926 0.6965,-6.8261 1.1459,-7.5169 9.5009,-14.6051 9.712,-8.2392 13.0248,-9.5508 20.9306,-8.2865 2.9523,0.472 6.441,0.3305 7.7527,-0.3147 23.1851,-11.4036 45.2926,-17.8897 60.9761,-17.8897 2.9746,0 7.6641,-1.15 10.4211,-2.5557 3.5754,-1.8227 6.752,-2.3595 11.078,-1.872 3.6285,0.4091 8.6935,-0.1668 12.6078,-1.4332 10.037,-3.2475 17.4108,-5.0148 20.9237,-5.0148 1.8431,0 4.436,-1.5626 6.1412,-3.7012 2.6194,-3.2851 3.6951,-3.6451 9.5673,-3.2019 11.4051,0.8609 14.3765,0.6191 29.7269,-2.4185 24.6942,-4.8867 25.448,-5.0707 36.128,-8.8172 6.5421,-2.2951 13.1445,-3.6127 18.1022,-3.6127 4.2922,0 9.0332,-0.6578 10.5356,-1.4618 1.5023,-0.804 5.8483,-1.7208 9.6576,-2.0373 3.8095,-0.3166 7.9432,-1.4958 9.186,-2.6206 1.4485,-1.3109 4.6599,-1.9731 8.9456,-1.8447 8.2141,0.2461 10.5608,-0.3311 14.0003,-3.4438 1.8899,-1.7104 3.6225,-2.1273 5.8428,-1.4057 6.2655,2.0363 19.3007,1.5263 23.7925,-0.9306 2.4517,-1.3412 5.6288,-2.0229 7.3405,-1.5753 1.9808,0.518 3.6049,-0.014 4.7263,-1.5473 1.4259,-1.95 3.2993,-2.226 11.3247,-1.6683 5.2889,0.3674 10.2574,1.0644 11.0413,1.5488 3.1349,1.9375 10.2168,1.8792 13.2513,-0.1087 2.3136,-1.516 4.8452,-1.8344 9.2871,-1.1684 4.8522,0.7278 6.6604,0.4144 8.8041,-1.5256 2.068,-1.8715 3.0708,-2.068 4.2968,-0.842 2.2964,2.2963 12.1294,1.9701 17.224,-0.5714 2.6894,-1.3417 5.7151,-1.8282 7.9232,-1.2739 3.0168,0.7572 3.3177,0.5896 1.934,-1.0776 -2.2545,-2.7164 -7.5267,-3.5225 -10.2094,-1.5608 -1.6546,1.2098 -3.8211,1.2614 -8.4555,0.2008 -4.6382,-1.0613 -6.9018,-1.0068 -8.8555,0.2132 -2.1073,1.316 -3.4456,1.2145 -6.7892,-0.5144 -3.904,-2.0188 -15.5398,-2.0143 -18.8106,0 -0.6259,0.3869 -3.9622,-0.1466 -7.4137,-1.1853 -3.4517,-1.0388 -6.2757,-1.411 -6.2757,-0.8273 0,3.0701 -12.8985,5.2754 -24.4704,4.1838 -8.9681,-0.846 -30.1333,1.444 -39.1845,4.2396 -6.9913,2.1594 -11.4751,2.6554 -19.7006,2.1792 -10.8189,-0.6263 -15.8803,-0.062 -32.8781,3.6592 -5.2337,1.146 -12.1292,2.0837 -15.3231,2.0837 -3.194,0 -12.0648,1.4658 -19.7128,3.2573 -15.0583,3.5276 -14.6343,3.4768 -33.6176,4.0095 -8.8943,0.2494 -14.1542,1.0575 -16.8958,2.5957 -2.1894,1.2285 -4.5073,1.9082 -5.1506,1.5105 -0.6435,-0.3976 -5.776,0.9114 -11.4055,2.909 -7.8638,2.7903 -12.0257,3.5032 -17.9603,3.0765 -7.6531,-0.5505 -40.3453,2.4491 -42.7254,3.92 -0.6802,0.4205 -7.4596,1.0246 -15.0653,1.3427 -7.6056,0.3182 -17.6519,1.5271 -22.3248,2.6866 -4.673,1.1596 -9.2456,1.8585 -10.1612,1.5533 -2.0298,-0.6766 -19.6048,5.1434 -23.778,7.8742 -1.6559,1.0836 -4.5922,1.9703 -6.5248,1.9703 -1.9328,0 -5.1941,0.8688 -7.2476,1.9307 -2.0535,1.0618 -7.3759,2.1914 -11.8279,2.5102 -8.1806,0.5857 -14.25,3.2044 -23.7281,10.2373 -2.6169,1.942 -5.064,3.9013 -5.4378,4.3543 -0.3739,0.4528 -3.1268,2.6244 -6.1176,4.8255 -2.9908,2.2013 -6.9866,5.5336 -8.8794,7.4053 -1.8929,1.8716 -4.8727,4.3206 -6.6219,5.4422 -6.8894,4.4174 -12.8597,12.0946 -18.5018,23.7906 -3.246,6.7293 -7.7819,14.3335 -10.0798,16.8983 -2.2979,2.5647 -4.1781,5.6541 -4.1781,6.8653 0,1.2111 -0.5035,2.7833 -1.1191,3.4936 -0.6157,0.7104 -2.1451,4.8092 -3.3987,9.1085 -7.185,24.6393 -7.5244,29.9661 -2.6041,40.8499 1.9462,4.3048 2.6762,7.8882 2.1467,10.5359 -0.52,2.6001 -0.247,4.0123 0.7757,4.0123 0.868,0 7.3305,5.7803 14.361,12.8452 7.0304,7.0648 15.4202,14.5127 18.6438,16.5506 9.779,6.1823 29.1924,12.8993 44.6058,15.4333 5.6078,0.922 12.5024,2.5303 15.3215,3.5738 2.819,1.0435 6.8123,1.8973 8.8739,1.8973 2.0617,0 4.9551,0.8282 6.4299,1.8404 1.4749,1.0123 5.2396,2.1719 8.3663,2.577 5.1363,0.6656 12.3288,3.4491 22.394,8.6663 1.9847,1.0287 4.7736,1.8704 6.1977,1.8704 1.424,0 3.7767,0.918 5.228,2.0401 2.5838,1.9975 2.5679,2.1 -0.7598,4.9124 -3.0369,2.5666 -4.4839,2.7818 -13.5946,2.0207 -5.6078,-0.4683 -14.4783,-1.4652 -19.7122,-2.2153 -16.8218,-2.4108 -36.3684,-4.1676 -49.4738,-4.4468 l -12.7682,-0.2719 -3.5453,4.7144 c -1.9499,2.5931 -5.8395,6.9343 -8.6434,9.6473 -2.8039,2.7131 -5.0979,5.5889 -5.0979,6.3909 0,2.9942 -4.9754,10.2425 -11.7147,17.066 -7.6217,7.7173 -18.7651,27.1329 -20.2884,35.3497 -0.5297,2.8574 -2.4161,6.922 -4.1923,9.0327 -1.776,2.1107 -3.2291,4.7838 -3.2291,5.9402 0,1.1565 -0.6375,2.4967 -1.4167,2.9782 -0.7792,0.4816 -2.375,3.2706 -3.5463,6.1978 -1.1712,2.9276 -2.6749,5.3226 -3.3413,5.3226 -0.6665,0 -1.2119,0.8427 -1.2119,1.8727 0,1.03 -0.8783,2.6017 -1.9518,3.4926 -1.0735,0.8909 -2.3455,3.4122 -2.8266,5.6027 -0.4811,2.1905 -1.8969,4.7575 -3.1461,5.7044 -4.9293,3.7362 -10.3098,15.2892 -12.6138,27.0837 -0.9221,4.7207 -3.2095,11.3361 -5.0832,14.7008 -3.9803,7.1483 -8.1252,21.9933 -9.1096,32.6271 -0.9632,10.4037 -3.6723,26.3723 -4.6129,27.1893 -1.8305,1.59022 -5.5744,14.94552 -6.4785,23.11092 -2.1736,19.6287 0.7611,70.8293 5.065,88.3651 0.8258,3.3647 2.3548,10.9061 3.3976,16.7586 2.2947,12.8764 13.743,37.4657 20.5524,44.143 2.5147,2.4659 4.5723,5.348 4.5723,6.4045 0,1.0565 2.7529,5.3007 6.1176,9.4316 3.3646,4.1309 6.1216,8.8958 6.1265,10.5887 0.014,3.7854 2.7429,7.8115 11.5465,17.0172 7.1901,7.5184 15.6338,18.2871 15.6338,19.9386 0,1.8362 12.674,14.3831 14.5288,14.3831 1.0137,0 2.4776,1.3765 3.2529,3.0588 0.7753,1.6824 4.7595,5.1381 8.8535,7.6796 4.094,2.5414 9.2435,6.8931 11.4433,9.6705 2.3467,2.963 8.0857,7.1854 13.8883,10.2182 5.4389,2.8427 11.8579,6.6546 14.2643,8.4711 4.4511,3.3598 19.1517,11.0817 21.2446,11.1593 0.6323,0.023 2.9767,1.3437 5.2099,2.9339 8.5151,6.0633 25.0513,14.5095 29.8371,15.24 1.363,0.2078 2.9016,0.8016 3.4193,1.3195 0.5178,0.5176 2.0877,0.9413 3.4888,0.9413 1.401,0 4.2431,1.2538 6.3159,2.7862 2.0726,1.5324 7.4008,3.3274 11.8403,3.9891 4.4394,0.6616 12.6598,2.4523 18.2676,3.9791 5.6078,1.527 12.297,2.7906 14.8648,2.8082 4.8691,0.033 16.4029,4.8622 16.4029,6.8672 0,0.6353 2.9058,1.5156 6.4574,1.9562 7.5645,0.9387 18.9137,4.4627 22.7337,7.059 1.4748,1.0025 4.8395,1.8421 7.477,1.8659 2.6376,0.023 5.983,0.9414 7.4345,2.0392 1.4514,1.0977 5.4278,2.0283 8.8365,2.068 6.2941,0.073 22.2962,2.6568 31.8362,5.1402 2.8858,0.7511 7.2264,1.0445 9.6457,0.6519 2.8028,-0.4547 6.0786,0.1671 9.0276,1.7137 2.9321,1.5379 7.3091,2.3748 11.9413,2.2834 4.0218,-0.079 8.7216,0.3914 10.444,1.0461 1.7426,0.6626 4.9112,0.6803 7.1441,0.039 2.2068,-0.6328 8.3925,-0.6699 13.7458,-0.083 7.1346,0.7832 11.4414,0.5521 16.1314,-0.8657 3.5188,-1.0638 8.5392,-1.774 11.1561,-1.5785 2.617,0.1956 8.2172,-0.1528 12.445,-0.7742 4.7311,-0.6955 8.6059,-0.6156 10.0776,0.2079 2.8222,1.5795 11.152,-1.3482 13.8857,-4.8802 2.0841,-2.6931 14.9793,-2.515 23.1121,0.3192 l 5.0542,1.7613 v 9.3914 c 0,7.678 0.558,10.1028 3.0588,13.2899 1.6823,2.144 3.0588,5.0448 3.0588,6.4463 0,1.4013 1.8352,4.4683 4.0784,6.8155 2.2431,2.3473 4.0783,5.0121 4.0783,5.922 0,2.9222 5.5483,8.8181 8.2982,8.8181 1.4646,0 3.025,0.9438 3.4676,2.0972 0.4426,1.1533 3.0234,3.3052 5.735,4.782 2.7118,1.4767 7.6833,4.8122 11.048,7.4123 11.296,8.7292 16.2354,11.5384 20.2878,11.5384 2.4488,0 4.7543,1.0364 5.8797,2.6432 2.6686,3.81 18.556,4.7246 33.6489,1.9373 z"
     id="path2389"
     inkscape:connector-curvature="0" />
  <path
     style="fill:#ff0000;stroke-width:1.35946381"
     d="m 541.01572,1213.9858 c -2.617,-0.5617 -7.6942,-2.3673 -11.2826,-4.0125 -4.4864,-2.0568 -7.7779,-2.716 -10.5366,-2.1101 -3.3558,0.737 -6.5129,-0.6236 -19.3052,-8.3198 -8.4114,-5.0604 -16.211,-9.9123 -17.3326,-10.7819 -1.1215,-0.8695 -4.7921,-3.0363 -8.1568,-4.8152 -6.8061,-3.5982 -13.8197,-8.7033 -20.3945,-14.8451 -2.3999,-2.2418 -4.8948,-4.076 -5.5442,-4.076 -0.6494,0 -2.1879,-1.9882 -3.4187,-4.4183 -1.231,-2.43 -3.2159,-5.5319 -4.4108,-6.8932 -1.3319,-1.517 -2.0152,-4.3056 -1.7654,-7.2046 0.2984,-3.4625 -0.573,-6.015 -3.2527,-9.5282 -2.0131,-2.6394 -4.4704,-7.8705 -5.4608,-11.6248 -0.9904,-3.7544 -2.7574,-7.8833 -3.9268,-9.1755 -1.1694,-1.2922 -2.1262,-3.0659 -2.1262,-3.9416 0,-0.8758 -0.5706,-1.5924 -1.2679,-1.5924 -1.6547,0 -2.8382,-3.8852 -3.5739,-11.7326 -0.3268,-3.4866 -1.2943,-7.1828 -2.1499,-8.2138 -1.1896,-1.4333 -0.9885,-2.9279 0.854,-6.3491 2.2315,-4.1438 2.2552,-5.0017 0.319,-11.6062 -2.0707,-7.0643 -2.0608,-7.1452 1.0565,-8.5654 3.9219,-1.7871 4.9976,-6.8719 3.027,-14.3081 -1.2904,-4.8689 -1.1733,-6.0946 0.7898,-8.2638 1.2676,-1.4008 2.3048,-4.7016 2.3048,-7.335 0,-2.6334 0.6565,-6.6713 1.4589,-8.973 1.005,-2.8831 1.0249,-4.9957 0.064,-6.7919 -0.9739,-1.8197 -0.9409,-3.0612 0.1087,-4.1115 0.8275,-0.8275 1.4515,-3.3686 1.3868,-5.647 -0.079,-2.7855 0.743,-4.603 2.5103,-5.5489 1.4454,-0.7735 2.628,-2.22 2.628,-3.21442 0,-0.9945 1.2235,-3.3635 2.7189,-5.2646 1.4954,-1.9012 2.7189,-4.7614 2.7189,-6.356 0,-3.8349 5.3479,-10.9461 8.2318,-10.9461 2.7872,0 9.9198,-10.3866 8.9206,-12.9905 -0.433,-1.1285 1.4167,-3.3779 4.6519,-5.657 2.9539,-2.081 6.1176,-5.4267 7.0306,-7.4349 1.3623,-2.9968 2.8522,-3.8154 8.3118,-4.5662 6.5191,-0.8966 9.2302,-2.6167 13.3146,-8.448 2.4441,-3.4896 21.9926,-13.9157 26.1343,-13.9388 1.6131,-0.014 5.686,-1.6124 9.0506,-3.5631 13.566,-7.8646 15.1077,-8.6558 16.8683,-8.6558 1.0072,0 2.5929,-0.9176 3.5237,-2.0392 0.9308,-1.1216 2.8128,-2.0392 4.1822,-2.0392 1.3694,0 7.991,-1.7829 14.7143,-3.9623 15.2816,-4.9532 25.9735,-6.0376 41.5996,-4.2195 6.7294,0.7831 13.1528,1.4231 14.2744,1.4224 5.5571,0 18.7081,-2.3898 21.4185,-3.8861 3.8974,-2.1519 13.3195,0.7366 21.6269,6.6301 3.113,2.2085 6.6756,4.0154 7.9171,4.0154 7.2319,0 31.6665,10.7092 42.5793,18.6618 3.2212,2.3472 7.785,4.6912 10.1419,5.2089 7.3505,1.6145 14.557,6.1599 19.0786,12.0333 2.3912,3.1062 9.2416,10.134 15.2233,15.6172 9.5985,8.799 11.9158,11.9754 13.7375,18.8311 0.2484,0.9346 1.7344,1.6993 3.3025,1.6993 5.3063,0 8.3004,2.8944 12.8808,12.4523 l 4.5663,9.52822 -2.5589,4.2077 c -3.0432,5.0041 -2.4697,6.4389 2.5736,6.4389 2.3402,0 5.8933,1.8316 9.436,4.8642 4.8445,4.1466 5.6826,5.636 5.6826,10.0988 0,5.167 -2.6883,9.5074 -5.8887,9.5074 -2.958,0 -9.0654,6.8521 -9.0654,10.1708 0,1.7949 -0.6024,3.6357 -1.3387,4.0908 -0.7363,0.455 -1.2195,2.2666 -1.0739,4.0259 0.1456,1.7593 -0.8984,5.3583 -2.3198,7.998 -2.1837,4.0546 -2.3272,5.3643 -0.9252,8.4416 1.165,2.5566 1.2354,4.1533 0.2365,5.3569 -0.7827,0.9431 -1.0301,2.7389 -0.5498,3.9906 0.5022,1.3086 -0.079,3.2595 -1.3674,4.5905 -5.6814,5.8696 -10.5036,13.4284 -12.2238,19.1608 -4.2552,14.1795 -13.6966,30.9159 -19.4858,34.5413 -0.9549,0.598 -1.736,2.3243 -1.736,3.8364 0,3.2805 -5.7236,13.3956 -9.5284,16.8389 -1.4887,1.3473 -2.7068,3.5934 -2.7068,4.9915 0,1.3979 -1.3765,3.0799 -3.0588,3.7373 -1.6823,0.6576 -8.2094,5.568 -14.5045,10.9119 -6.2953,5.344 -15.1424,11.8829 -19.6604,14.5309 -7.443,4.3621 -9.433,4.8806 -21.1814,5.5195 -10.9821,0.5972 -13.7608,1.2401 -18.155,4.1998 -5.583,3.7604 -16.5247,6.0284 -41.7132,8.6465 -17.1595,1.7835 -73.5212,2.6059 -80.2084,1.1703 z"
     id="path2391"
     inkscape:connector-curvature="0" />
  <path
     style="fill:#ccff00;stroke-width:1.35946381"
     d="m 367.93462,55.581425 c 3.2268,-1.56203 5.8768,-3.24436 5.8888,-3.73853 0.014,-0.49403 1.8472,-2.96934 4.0784,-5.5008 4.2747,-4.84989 5.6082,-12.84435 2.3573,-14.13298 -0.9347,-0.37046 -2.8058,-2.57918 -4.1581,-4.90821 l -2.4587,-4.23473 5.2967,0.51551 c 4.9129,0.47826 5.2531,0.28739 4.6948,-2.63288 -0.331,-1.73155 -1.7135,-4.15452 -3.0723,-5.38415 -3.022,-2.73484 -13.5572,-4.43226 -13.5572,-2.18425 0,0.84613 -1.8037,1.53837 -4.0082,1.53837 -5.4195,0 -14.0975,8.66481 -14.2963,14.27437 -0.027,0.7477 -1.2718,1.53986 -2.7672,1.76023 -1.4954,0.2205 -4.2111,1.53388 -6.0348,2.91877 -3.1722,2.40883 -3.2395,2.77317 -1.553,8.40216 0.9974,3.3292 3.9911,8.11233 6.8945,11.01574 4.3454,4.34539 6.0277,5.13157 10.98,5.13157 3.2165,0 8.4883,-1.27803 11.7153,-2.84019 z"
     id="path2429"
     inkscape:connector-curvature="0" />
  <path
     style="fill:#000000;stroke-width:1.35946381"
     d="m 462.84652,313.77691 c -2.2431,-0.80372 -6.6784,-3.96243 -9.8561,-7.01932 -4.4128,-4.24506 -5.7777,-6.57586 -5.7777,-9.86658 0,-2.36982 -0.9177,-5.07026 -2.0392,-6.00108 -1.1216,-0.93083 -2.0392,-3.05553 -2.0392,-4.72169 0,-4.02755 2.6509,-11.74509 4.9536,-14.42106 1.0173,-1.18219 1.5756,-2.42352 1.2408,-2.75835 -0.3349,-0.33484 0.7454,-3.02304 2.4006,-5.97389 2.4985,-4.45401 3.9434,-5.52432 8.5103,-6.30397 6.3313,-1.08091 16.9052,-6.61692 23.386,-12.24388 4.3911,-3.81261 11.2556,-5.13687 14.7058,-2.83693 2.6247,1.74963 13.4194,15.80812 15.169,19.75546 2.4881,5.61336 2.1101,17.27049 -0.7008,21.61398 -6.5129,10.0637 -16.3034,21.53404 -19.0253,22.2899 -1.6823,0.46711 -3.0588,1.39481 -3.0588,2.06136 0,0.66668 -0.7166,1.2121 -1.5923,1.2121 -0.8758,0 -2.7524,1.04991 -4.1702,2.33311 -1.4179,1.2832 -4.525,2.47857 -6.9044,2.65639 -2.3795,0.17782 -5.8558,0.62984 -7.7251,1.00464 -1.8692,0.37467 -5.2339,0.0231 -7.477,-0.78019 z"
     id="path2421"
     inkscape:connector-curvature="0" />
  <path
     style="fill:#ccff00;stroke-width:1.35946381"
     d="m 492.78072,290.82467 c 4.3762,-4.04603 6.7792,-13.97542 4.6775,-19.32804 -3.5262,-8.98007 -6.9211,-13.40105 -9.9581,-12.96792 -1.843,0.26278 -2.9146,1.40609 -2.9359,3.13274 -0.019,1.49542 -0.5282,4.1253 -1.1323,5.8442 -0.9894,2.81491 -1.6807,3.03786 -6.9614,2.24597 -4.4453,-0.66668 -6.1438,-0.39057 -7.0245,1.14155 -0.6389,1.11136 -2.3852,2.24705 -3.8806,2.52384 -6.4914,1.20122 -2.462,18.61432 4.9411,21.35296 4.329,1.60145 19.1057,-1.01593 22.2742,-3.9453 z"
     id="path2423"
     inkscape:connector-curvature="0" />
  <path
     style="fill:#000000;stroke-width:1.35946381"
     d="m 275.92022,471.22108 c -5.3446,-2.8628 -13.7345,-11.4584 -16.54,-16.9459 -2.1729,-4.25 -2.4929,-7.4389 -2.1149,-21.0751 0.2448,-8.8372 1.0372,-16.4842 1.7609,-16.9933 0.7235,-0.5092 2.0445,-2.5858 2.9355,-4.6147 0.8908,-2.0287 4.0902,-5.2482 7.1094,-7.1542 3.0194,-1.9059 5.4897,-4.0501 5.4897,-4.7646 0,-0.7145 2.9058,-4.2373 6.4574,-7.8282 6.8498,-6.9257 15.3028,-11.2183 27.5292,-13.9798 4.1123,-0.9289 9.129,-2.5256 11.1481,-3.54819 5.1853,-2.62621 8.3739,-2.33692 16.819,1.526 10.0281,4.58699 16.277,11.23519 17.4489,18.56399 0.5088,3.1817 1.5848,6.5798 2.3913,7.5516 1.0523,1.268 1.0427,1.7667 -0.034,1.7667 -0.9276,0 -1.3619,2.364 -1.1379,6.1934 0.222,3.7919 -0.315,6.7554 -1.385,7.6434 -0.9612,0.7977 -1.7475,3.7812 -1.7475,6.6301 0,4.1855 -0.5871,5.3611 -3.0588,6.1241 -1.6823,0.5193 -7.7112,5.6077 -13.3976,11.3072 -13.1202,13.1505 -17.429,16.4181 -28.6929,21.7591 -5.0177,2.3793 -9.4892,4.9178 -9.9363,5.6412 -0.447,0.7235 -2.27,1.3153 -4.051,1.3153 -1.7809,0 -3.6162,0.6117 -4.0784,1.3594 -1.2034,1.9473 -8.9203,1.662 -12.9149,-0.4775 z"
     id="path2417"
     inkscape:connector-curvature="0" />
  <path
     style="fill:#ccff00;stroke-width:1.35946381"
     d="m 300.16412,452.48658 c 0.2492,-0.6489 1.2336,-1.1799 2.1876,-1.1799 0.954,0 4.5145,-2.4471 7.9122,-5.4379 3.3978,-2.9908 6.8607,-5.4378 7.6956,-5.4378 2.6982,0 12.3393,-6.7742 12.3393,-8.6703 0,-1.0113 1.2235,-3.3942 2.7189,-5.2952 1.4954,-1.9012 2.7189,-4.6616 2.7189,-6.1345 0,-1.473 0.7876,-3.3315 1.7501,-4.1303 0.9937,-0.8248 1.89,-4.9994 2.0741,-9.6598 l 0.3242,-8.2074 -8.3414,-6.1405 c -4.5876,-3.3773 -9.7596,-6.1406 -11.4931,-6.1406 -4.4146,0 -7.6041,3.5701 -6.6359,7.4277 0.6215,2.476 -0.6185,4.6305 -5.7765,10.0369 -5.8527,6.1346 -7.3084,6.9514 -13.3706,7.5016 -9.8869,0.8972 -14.2689,3.2371 -14.2689,7.6193 0,1.9802 -0.8982,4.7879 -1.996,6.2393 -3.612,4.7757 -2.176,18.4448 2.562,24.3869 4.1635,5.2214 17.9602,7.4898 19.5995,3.2225 z"
     id="path2419"
     inkscape:connector-curvature="0" />
  <path
     style="fill:#ccff00;stroke-width:1.35946381"
     d="m 737.99912,468.78648 c 3.5868,-4.5345 3.9668,-8.1274 1.8826,-17.8056 -2.33,-10.8203 -6.7217,-13.4291 -12.4112,-7.373 -2.0761,2.2099 -4.6682,3.2429 -8.5154,3.3936 -6.9629,0.2729 -8.0065,0.9401 -8.0065,5.1194 0,6.7576 4.9318,13.6445 12.456,17.394 8.9315,4.4508 10.5622,4.3695 14.5945,-0.7284 z"
     id="path2415"
     inkscape:connector-curvature="0" />
  <path
     style="fill:#000000;stroke-width:1.35946381"
     d="m 810.63192,522.40498 c 5.2845,-0.6313 6.2097,-1.1091 4.7581,-2.4571 -2.0345,-1.8895 -18.2055,-5.2712 -19.9756,-4.1774 -0.6332,0.3914 -3.2267,0.065 -5.7631,-0.7255 -8.2513,-2.5714 -11.1478,-2.8791 -30.4417,-3.2346 -13.9741,-0.2575 -20.6584,-0.9685 -25.1501,-2.675 -7.6824,-2.9189 -28.0612,-3.6364 -30.1968,-1.0632 -0.8,0.9641 -2.4389,1.4507 -3.6419,1.0814 -3.3118,-1.0167 -44.556,-1.252 -53.8467,-0.3072 -4.4862,0.4561 -10.2979,0.8238 -12.9149,0.817 -7.3881,-0.019 -14.104,1.4942 -12.7296,2.8685 1.2166,1.2166 16.998,2.8103 32.4418,3.276 4.4863,0.136 10.9097,0.6838 14.2744,1.2192 3.3647,0.5352 7.9278,0.4591 10.1404,-0.1693 2.6623,-0.7561 5.8647,-0.5077 9.47,0.7343 4.35,1.4987 6.5933,1.5559 11.1369,0.2837 5.5641,-1.5578 8.7893,-1.4119 52.18,2.3602 4.1124,0.3574 14.0989,0.8438 22.1921,1.0806 8.0933,0.237 15.001,0.7167 15.3506,1.0662 0.9221,0.9222 15.0674,0.9359 22.7161,0.022 z"
     id="path2413"
     inkscape:connector-curvature="0" />
  <path
     style="fill:#ccff00;stroke-width:1.35946381"
     d="m 645.21412,667.39788 c 0.7826,-0.7826 7.1755,-2.0412 14.2064,-2.7968 7.0308,-0.7556 16.9265,-2.3351 21.9904,-3.51 5.9789,-1.3872 11.2221,-1.791 14.9541,-1.1516 3.1609,0.5415 6.9706,0.9232 8.4661,0.8483 9.383,-0.47 16.8667,-1.2597 19.3221,-2.039 1.5585,-0.4948 6.4132,-1.1608 10.7882,-1.4804 4.375,-0.3194 12.1557,-0.8915 17.2902,-1.2711 5.1346,-0.3795 14.6168,-2.5138 21.0717,-4.7426 6.4549,-2.2287 15.7125,-4.4554 20.5726,-4.9479 4.8601,-0.4927 14.6483,-1.8332 21.7514,-2.979 7.1032,-1.1459 15.362,-2.2836 18.3528,-2.5285 14.0779,-1.1525 21.9033,-2.3752 23.551,-3.6799 0.9898,-0.7837 5.2471,-1.6319 9.4607,-1.8849 4.2137,-0.2531 8.9097,-1.2504 10.4357,-2.2163 1.5258,-0.9659 6.4449,-2.5402 10.9312,-3.4983 4.4862,-0.9582 9.3803,-2.3364 10.8757,-3.0628 7.5653,-3.6747 11.7157,-6.5531 16.0019,-11.0981 2.5912,-2.7472 6.0036,-4.9951 7.5834,-4.9951 2.0255,0 3.1177,-1.1022 3.7044,-3.7385 0.4576,-2.0562 1.0554,-4.6562 1.3283,-5.7777 0.273,-1.1216 -1.1603,-4.437 -3.1852,-7.3679 -2.9175,-4.2229 -7.1962,-7.1404 -20.6201,-14.0601 -9.3162,-4.8023 -18.4222,-9.8985 -20.2354,-11.3248 -1.8132,-1.4263 -4.9602,-2.5933 -6.9933,-2.5933 -2.0608,0 -5.3227,-1.5069 -7.3711,-3.4054 -2.021,-1.873 -8.1716,-5.5109 -13.6681,-8.0842 -5.4964,-2.5735 -10.3918,-5.3233 -10.8785,-6.1108 -0.4868,-0.7877 -1.9784,-1.4321 -3.3149,-1.4321 -1.3364,0 -4.363,-0.9644 -6.7258,-2.143 -3.3802,-1.6863 -10.1626,-2.2385 -31.8164,-2.5902 -26.4917,-0.4304 -46.785,-1.8936 -66.9449,-4.8271 -5.2339,-0.7615 -20.5279,-1.2421 -33.9866,-1.0677 -13.4587,0.1744 -28.4468,-0.1461 -33.3068,-0.7123 -4.8601,-0.5661 -10.366,-0.9657 -12.2352,-0.8879 -16.218,0.6752 -55.478,-0.4184 -62.5353,-1.7422 -1.8693,-0.3504 -8.2928,-0.068 -14.2744,0.6295 -5.9817,0.6968 -13.9345,1.4876 -17.673,1.7575 -10.77,0.7775 -18.9565,2.3581 -19.9265,3.8474 -0.5936,0.9113 -2.1928,0.8459 -4.7581,-0.1947 -6.5642,-2.6625 -29.0893,-1.7611 -39.2366,1.5701 -3.724,1.2224 -12.8558,2.5458 -20.2927,2.9408 -7.437,0.3949 -15.3898,1.2928 -17.6731,1.9951 -2.2832,0.7025 -8.7394,2.7599 -14.3472,4.5722 -9.0796,2.9344 -17.3272,4.4189 -39.8848,7.1794 -3.6178,0.4428 -9.9341,2.2894 -14.0362,4.1034 -7.6022,3.3621 -16.3888,4.9403 -40.5617,7.2855 -16.9398,1.6435 -28.7554,4.4573 -46.2218,11.0076 -2.8319,1.062 -16.1265,3.4533 -29.5834,5.3212 -4.3078,0.5979 -9.2051,1.9866 -10.8829,3.0862 -1.8416,1.2065 -4.8433,1.7359 -7.5725,1.3352 -2.487,-0.365 -5.8484,-0.071 -7.4699,0.6542 -1.6215,0.7249 -6.3129,2.3956 -10.4253,3.7128 -4.1124,1.3172 -10.5358,4.6698 -14.2744,7.45 -3.7385,2.7803 -9.9707,6.5124 -13.8492,8.2937 -4.1274,1.8955 -7.3411,4.3443 -7.7491,5.9046 -1.1046,4.2238 5.7191,17.1685 10.3891,19.7087 2.2394,1.2179 7.178,4.4992 10.975,7.2918 5.1026,3.7528 8.1617,5.042 11.7258,4.9417 2.6522,-0.075 6.4975,0.5286 8.5454,1.3406 2.0478,0.812 7.8595,1.8709 12.9149,2.3531 5.0553,0.482 13.1679,1.6063 18.028,2.4982 11.0001,2.0187 40.3119,1.6927 50.3002,-0.5595 10.6922,-2.4109 66.5971,-3.6359 85.6462,-1.8768 4.8601,0.4489 11.8468,0.743 15.526,0.6537 3.9683,-0.097 7.9805,0.6832 9.8627,1.9166 2.0589,1.3489 6.1544,2.0366 11.6632,1.958 10.1222,-0.1443 25.0946,0.9691 27.9938,2.0817 1.1405,0.4376 9.148,1.0792 17.7946,1.4256 8.6464,0.3465 21.2267,1.5169 27.956,2.6008 6.7386,1.0855 26.9139,2.3098 44.9093,2.7253 17.9709,0.415 34.6737,1.3279 37.1173,2.0287 2.4437,0.7008 9.9939,1.2831 16.7783,1.2939 6.7844,0.014 12.6657,0.3501 13.0696,0.754 1.2945,1.2945 9.2037,0.7844 10.6767,-0.6886 z"
     id="path2411"
     inkscape:connector-curvature="0" />
  <path
     style="fill:#333333;stroke-width:1.35946381"
     d="m 992.85492,1365.0138 c 1.4681,-5.0347 1.4383,-7.2951 -0.1793,-13.6275 -1.0665,-4.1754 -2.2563,-11.5681 -2.644,-16.4282 -0.3877,-4.86 -1.2004,-9.4554 -1.806,-10.212 -0.6057,-0.7565 -1.0051,-6.3954 -0.8876,-12.5311 0.1169,-6.1355 -0.3959,-11.7649 -1.1408,-12.5098 -0.8993,-0.8993 -6.7551,1.1604 -17.4336,6.1321 -8.8437,4.1176 -19.9165,8.9308 -24.6066,10.6962 -4.69,1.7652 -10.3856,4.1707 -12.6571,5.3452 -2.2714,1.1746 -10.1545,3.4396 -17.5181,5.0332 -7.3634,1.5937 -15.04,3.7502 -17.0589,4.7922 -2.0191,1.0421 -5.1139,1.8946 -6.8774,1.8946 -1.7635,0 -4.334,0.8245 -5.7122,1.8323 -2.408,1.7607 -2.3872,1.9335 0.5318,4.4182 1.6707,1.4223 5.5873,5.1434 8.7034,8.2692 3.1162,3.1258 7.2955,6.0849 9.2873,6.5755 1.9918,0.4908 5.7052,3.2132 8.2519,6.0501 4.1701,4.6453 5.4993,5.2508 13.3718,6.0918 4.8079,0.5136 11.4944,1.8077 14.8591,2.8759 6.9989,2.2221 16.3123,3.6232 22.8273,3.4341 2.461,-0.072 6.7229,1.0236 9.4709,2.4334 l 4.9963,2.5633 7.2309,-3.5463 c 6.387,-3.1325 7.4363,-4.2508 8.9909,-9.5824 z"
     id="path2409"
     inkscape:connector-curvature="0" />
  <path
     style="fill:#333333;stroke-width:1.35946381"
     d="m 224.29082,1427.6596 c 2.6004,-2.1014 6.8691,-5.1173 9.486,-6.7022 2.617,-1.5848 6.555,-4.7596 8.751,-7.0552 2.1961,-2.2955 4.6999,-4.1736 5.5639,-4.1736 3.6601,0 28.0323,-14.884 27.0294,-16.5068 -0.9498,-1.5369 3.2013,-6.5975 5.4281,-6.6174 3.4942,-0.031 25.53,-12.2944 26.3131,-14.6436 0.6732,-2.0194 -15.2237,-9.8045 -20.0664,-9.827 -1.8692,-0.014 -6.4017,-0.9269 -10.0721,-2.0403 -3.6704,-1.1135 -8.901,-2.0245 -11.6234,-2.0245 -2.7225,0 -5.595,-0.645 -6.3835,-1.4335 -0.7884,-0.7885 -7.4871,-2.9628 -14.8861,-4.8318 -7.3989,-1.869 -15.4546,-3.9156 -17.9015,-4.5478 -2.447,-0.6322 -6.014,-2.1751 -7.9267,-3.4283 -6.182,-4.0506 -6.8932,-2.7077 -11.5008,21.7185 -4.421,23.4371 -5.7198,28.7411 -7.527,30.7379 -2.7579,3.0475 -4.0058,11.5913 -2.039,13.961 0.9675,1.1659 1.2466,3.957 0.7231,7.2312 -0.7831,4.8966 -0.449,5.6871 4.0853,9.6683 6.7442,5.9214 15.6056,6.1238 22.5466,0.5151 z"
     id="path2407"
     inkscape:connector-curvature="0" />
  <path
     style="fill:#000000;stroke-width:1.35946381"
     d="m 417.01652,809.46408 c -0.2709,-0.271 -5.5894,-0.8228 -11.819,-1.2263 -6.2296,-0.4035 -13.548,-1.3072 -16.2631,-2.0084 -2.7153,-0.7011 -8.9132,-1.6852 -13.7733,-2.1869 -4.8601,-0.5016 -9.1943,-1.1291 -9.6317,-1.3945 -0.4373,-0.2655 -10.5313,-1.1784 -22.4311,-2.0287 -18.7509,-1.3399 -22.0439,-1.9233 -24.6948,-4.3738 -3.8888,-3.5951 -3.8733,-6.5525 0.053,-10.2414 2.8852,-2.7105 4.5458,-2.9257 22.771,-2.9526 10.8125,-0.016 21.8002,0.2323 24.4171,0.5516 22.4493,2.7395 28.577,3.7489 33.3068,5.4861 4.1468,1.5232 10.2796,1.8807 25.8298,1.5057 11.2156,-0.2706 21.4087,-0.9078 22.6513,-1.4161 2.8255,-1.1556 39.1428,-2.3953 64.2183,-2.192 15.3894,0.1251 19.5263,-0.2596 22.2909,-2.071 2.3893,-1.5655 6.2538,-2.1925 13.051,-2.1172 5.4891,0.061 12.7634,-0.865 16.8557,-2.145 6.7406,-2.1082 7.7615,-2.1018 16.0292,0.1006 4.8565,1.2941 9.3486,2.0326 9.9821,1.6409 0.6336,-0.3915 8.4087,-1.0442 17.2777,-1.4503 8.869,-0.4062 24.3135,-1.314 34.321,-2.0177 11.4171,-0.8027 20.3331,-0.8002 23.9335,0.014 3.6534,0.8187 7.4114,0.8059 10.3443,-0.035 2.5335,-0.7267 6.6388,-1.3212 9.1228,-1.3212 2.4842,0 5.5471,-0.5433 6.8063,-1.2077 1.2594,-0.6642 10.2426,-1.6267 19.9628,-2.139 9.7202,-0.5121 20.4259,-1.5454 23.7906,-2.2963 3.3647,-0.7507 8.8705,-1.6203 12.2352,-1.9324 11.5122,-1.0679 16.996,-2.268 22.0372,-4.8226 2.7741,-1.4058 7.6849,-2.5561 10.9131,-2.5561 3.228,0 7.2537,-0.9697 8.9459,-2.155 1.6923,-1.1853 5.346,-2.3338 8.1194,-2.5524 2.7735,-0.2184 7.732,-1.1316 11.0189,-2.0291 3.2869,-0.8975 10.9339,-1.8701 16.9933,-2.1612 6.0594,-0.291 14.9935,-0.9147 19.8536,-1.3859 9.5058,-0.9217 15.8282,0.6397 17.2141,4.2512 1.1467,2.9885 -2.7426,6.4957 -7.5744,6.8302 -2.21,0.153 -7.9492,2.1356 -12.754,4.4057 -10.1057,4.7747 -22.3981,8.4594 -30.1926,9.0502 -2.9908,0.2268 -8.1148,1.3949 -11.3864,2.5957 -3.2719,1.2005 -7.6302,2.183 -9.6853,2.183 -2.0551,0 -6.1075,0.824 -9.0055,1.8309 -2.8978,1.0071 -8.269,1.9332 -11.9358,2.0581 -3.6669,0.1251 -10.3962,1.0781 -14.9541,2.1181 -8.0635,1.8397 -23.1874,3.8568 -42.008,5.6024 -5.0876,0.4719 -11.2052,1.4749 -13.5946,2.229 -9.954,3.1415 -44.8696,4.8116 -75.716,3.6216 -6.3555,-0.2451 -28.5271,-0.014 -49.2704,0.5232 -30.3624,0.78 -38.5269,1.3888 -41.8804,3.1229 -2.7095,1.4012 -7.3467,2.0994 -13.2651,1.9973 -25.2378,-0.435 -56.0733,0.3375 -62.1184,1.5562 -3.7386,0.7537 -12.5143,1.3848 -19.5018,1.4023 -6.9875,0.018 -14.4355,0.5283 -16.5511,1.1352 -2.1157,0.6067 -4.0683,0.8814 -4.3392,0.6105 z"
     id="path2405"
     inkscape:connector-curvature="0" />
  <path
     style="fill:#333333;stroke-width:1.35946381"
     d="m 679.68102,1004.2992 c 1.8692,0.06 5.2339,0.2362 7.477,0.3919 3.8381,0.2664 11.079,-1.9105 20.392,-6.13062 2.2431,-1.0164 7.443,-2.1755 11.5554,-2.5757 4.1124,-0.4001 10.055,-1.6474 13.206,-2.7717 3.4693,-1.2379 7.7065,-1.7232 10.7431,-1.2304 l 5.0144,0.8136 -0.7779,-5.7989 c -0.5825,-4.3429 -1.9145,-6.7733 -5.3053,-9.6791 -2.4901,-2.134 -5.5678,-4.2394 -6.839,-4.6786 -1.2714,-0.4392 -3.5462,-2.7961 -5.0549,-5.2375 -4.0216,-6.5069 -15.0901,-15.3169 -23.0376,-18.3368 -3.8164,-1.4502 -8.8307,-4.2284 -11.1429,-6.1739 -2.312,-1.9455 -5.0532,-3.5373 -6.0913,-3.5373 -1.0382,0 -3.8972,-1.7637 -6.3532,-3.9192 -5.3672,-4.7106 -11.2392,-7.2302 -22.1386,-9.4998 -4.4862,-0.9342 -9.9921,-2.2328 -12.2352,-2.8859 -2.2431,-0.6529 -7.4751,-1.5892 -11.6266,-2.0805 -10.1039,-1.1957 -12.1248,0.9282 -7.3153,7.6878 1.8671,2.6241 3.9001,7.9687 4.518,11.8769 0.7022,4.4422 2.3689,8.4831 4.4464,10.7802 8.2376,9.108 17.4546,26.3731 17.4546,32.6957 0,2.8942 1.2476,6.0555 3.3986,8.6118 1.8693,2.2215 3.3987,4.9028 3.3987,5.9584 0,1.0556 1.0706,3.18782 2.3791,4.73822 1.8758,2.2224 3.2417,2.6129 6.4574,1.8456 2.2431,-0.5354 5.6078,-0.9242 7.4771,-0.8642 z"
     id="path2403"
     inkscape:connector-curvature="0" />
  <path
     style="fill:#333333;stroke-width:1.35946381"
     d="m 490.71552,1011.2844 c 1.1216,0 5.9262,0.057 10.677,0.1155 4.7507,0.057 9.3389,-0.4494 10.1959,-1.1267 0.857,-0.6773 4.0053,-1.6541 6.9961,-2.1707 11.9693,-2.067 19.7122,-5.9608 19.7122,-9.91282 0,-1.0555 1.6313,-4.0578 3.625,-6.6718 4.0041,-5.2496 9.9697,-17.3984 9.9697,-20.3032 0,-1.021 1.2235,-2.5112 2.7189,-3.3115 1.4954,-0.8003 2.723,-2.5041 2.7279,-3.7863 0,-1.2822 1.2064,-4.1478 2.67,-6.3681 1.6865,-2.5588 2.3659,-5.2123 1.8554,-7.2466 -0.5235,-2.0858 0.1407,-4.4895 1.897,-6.865 3.5472,-4.798 4.9038,-9.2762 3.1402,-10.3661 -2.0208,-1.2489 -1.7513,-4.7924 0.3646,-4.7924 0.9786,0 2.9426,-0.8506 4.3644,-1.8902 2.2191,-1.6226 2.3563,-2.3925 0.9688,-5.4378 -2.2569,-4.9532 -6.5413,-4.513 -11.7838,1.2105 -2.3972,2.6169 -5.3244,4.7581 -6.5049,4.7581 -2.871,0 -25.6416,9.4458 -28.3553,11.7625 -1.1805,1.0077 -2.9185,1.8321 -3.8624,1.8321 -0.9439,0 -5.2046,2.447 -9.4683,5.4379 -4.2636,2.9908 -8.2919,5.4378 -8.9515,5.4378 -0.6597,0 -5.5272,4.441 -10.8167,9.8688 -5.2895,5.4278 -12.0643,11.6752 -15.0551,13.8831 -6.1025,4.505 -14.2744,12.7321 -14.2744,14.3708 0,0.5913 -0.4588,1.2792 -1.0196,1.5284 -1.3472,0.5988 -7.1372,14.86512 -7.1372,17.58602 0,3.899 1.9396,4.2671 17.6731,3.3544 8.5986,-0.4988 16.5514,-0.9022 17.673,-0.8965 z"
     id="path2401"
     inkscape:connector-curvature="0" />
  <path
     style="fill:#333333;stroke-width:1.35946381"
     d="m 727.67932,1138.1261 c 1.209,-1.3358 3.4623,-5.2869 5.0076,-8.7802 1.5451,-3.4933 3.4038,-6.7187 4.1303,-7.1678 0.7264,-0.4489 1.3207,-1.9947 1.3207,-3.4351 0,-3.1629 7.6479,-18.4736 11.3084,-22.6386 2.723,-3.0983 5.0645,-11.1852 5.6424,-19.4879 0.2205,-3.1675 1.7881,-6.3934 4.6066,-9.4793 3.848,-4.2131 5.4554,-9.233 3.5624,-11.1259 -1.5047,-1.5047 -12.8198,3.3487 -13.6098,5.8378 -0.4486,1.4133 -2.457,2.9147 -4.4635,3.3365 -3.6607,0.7697 -17.5932,6.4301 -22.6803,9.2143 -10.4013,5.6929 -15.0554,7.6341 -16.9063,7.0517 -1.3417,-0.4223 -3.2774,1.0169 -5.246,3.9003 l -3.1199,4.5694 3.7027,9.3431 c 3.3411,8.4311 5.2003,11.7771 13.0543,23.4944 1.2983,1.9369 4.0257,6.7334 6.0609,10.6588 2.0353,3.9255 4.0899,7.1372 4.5659,7.1372 0.4761,0 1.8548,-1.0929 3.0636,-2.4287 z"
     id="path2399"
     inkscape:connector-curvature="0" />
  <path
     style="fill:#333333;stroke-width:1.35946381"
     d="m 507.02912,1164.8826 c 0,-2.4563 1.7334,-6.7897 4.1461,-10.3645 2.2803,-3.3788 4.5176,-8.0557 4.9718,-10.3932 0.4542,-2.3373 1.4108,-4.6347 2.1259,-5.1052 1.5792,-1.0389 3.8681,-22.2248 2.7461,-25.4164 -0.4403,-1.2523 -2.0076,-3.6196 -3.483,-5.2604 -1.8722,-2.0822 -2.4234,-4.0167 -1.8244,-6.4031 0.6702,-2.6703 0.1854,-3.7728 -2.2128,-5.0318 -1.689,-0.8868 -3.5603,-2.4406 -4.1582,-3.453 -0.5979,-1.0126 -1.7328,-1.8409 -2.5218,-1.8409 -0.7891,0 -4.154,-1.8353 -7.4776,-4.0784 -3.3237,-2.2431 -6.6826,-4.0784 -7.4644,-4.0784 -0.7817,0 -3.0451,-1.1342 -5.0298,-2.5205 -1.9847,-1.3864 -5.4438,-2.9546 -7.6869,-3.4846 -4.2157,-0.9964 -23.8323,-13.2 -26.6228,-16.5624 -2.6647,-3.2107 -6.5374,-2.2738 -7.5884,1.8357 -1.78,6.9601 -0.7136,29.8522 1.9537,41.9397 0.6764,3.0656 2.2465,7.0253 3.4889,8.7992 1.2424,1.7738 2.259,4.5217 2.259,6.1064 0,1.5847 3.3531,7.7192 7.4512,13.632 4.0983,5.9129 8.6268,13.2623 10.0635,16.332 2.0154,4.3061 3.5793,5.7747 6.8446,6.4278 5.0715,1.0143 19.1436,7.5117 19.1436,8.8389 0,1.2467 5.5036,3.9252 8.4966,4.1353 1.7908,0.125 2.3791,-0.8769 2.3791,-4.0542 z"
     id="path2397"
     inkscape:connector-curvature="0" />
  <path
     style="fill:#333333;stroke-width:1.35946381"
     d="m 553.96312,1169.5671 c 0.7999,-1.6143 3.2609,-4.7773 5.4691,-7.0289 2.208,-2.2516 5.5311,-5.6719 7.3847,-7.6007 1.8535,-1.9288 4.4092,-3.507 5.6793,-3.507 3.3364,0 11.1472,-16.9506 10.1374,-21.9996 -0.5904,-2.9518 0.1524,-4.859 3.2797,-8.4208 2.2237,-2.5327 4.0635,-5.1358 4.0883,-5.7848 0.024,-0.649 1.2204,-2.5897 2.6568,-4.3126 2.1152,-2.5373 4.4346,-3.2856 12.2037,-3.9369 10.8416,-0.9089 14.1453,0.7522 15.7156,7.9015 0.4771,2.1718 1.9676,4.5376 3.3122,5.2573 1.3448,0.7197 3.4255,3.759 4.624,6.7541 2.1547,5.3855 6.964,8.3024 10.2945,6.244 0.7839,-0.4845 4.1365,0.9844 7.4503,3.2643 5.0938,3.5047 7.6119,4.2354 16.2936,4.7287 8.8476,0.5026 11.3584,1.256 18.1438,5.4441 4.3312,2.6735 9.5453,4.8607 11.5867,4.8607 3.179,0 3.7117,-0.559 3.7117,-3.895 0,-2.1422 -1.2235,-5.4505 -2.7189,-7.3515 -1.4954,-1.9013 -2.7189,-4.402 -2.7189,-5.5573 0,-3.5267 -3.0454,-9.026 -4.9984,-9.026 -1.0136,0 -2.799,-2.0046 -3.9673,-4.4549 -1.89,-3.9634 -3.5234,-5.439 -11.4263,-10.3218 -1.1215,-0.6929 -4.7104,-2.3649 -7.9753,-3.7154 -8.1869,-3.3867 -12.6146,-10.4743 -11.7683,-18.8381 0.8331,-8.2333 5.924,-17.0167 11.8257,-20.4028 2.6485,-1.5198 6.89,-4.1373 9.4254,-5.8167 5.1395,-3.4044 7.492,-3.71 12.858,-1.6699 4.7906,1.8214 7.9713,0.7065 9.8694,-3.4594 1.1819,-2.5939 2.5675,-3.3726 6.0015,-3.3726 3.3263,0 4.8072,-0.7799 5.807,-3.0588 0.8564,-1.9521 4.2756,-4.2201 9.4515,-6.269 7.9149,-3.1333 8.2171,-3.1524 12.5905,-0.7972 4.3804,2.359 4.5512,2.3471 7.6118,-0.5283 1.722,-1.6176 3.8395,-2.9413 4.7055,-2.9413 0.866,0 4.9219,-1.5849 9.0133,-3.522 8.0643,-3.8183 12.4759,-8.9073 10.8895,-12.5615 -0.5418,-1.248 -0.8581,-3.5873 -0.7027,-5.1982 0.1553,-1.6109 -0.4784,-3.3991 -1.4081,-3.9737 -0.9297,-0.5746 -9.943,-0.9046 -20.0293,-0.7335 -14.5703,0.2473 -19.0596,0.7844 -21.8464,2.6143 -10.2229,6.7122 -11.0282,7.0836 -23.8878,11.0171 -12.2742,3.7544 -17.5329,3.8118 -25.6027,0.2793 -3.6136,-1.5817 -7.6339,-2.8759 -8.9342,-2.8759 -4.5843,0 -14.7755,-4.255 -17.7341,-7.4042 -2.2887,-2.4361 -3.0863,-5.156 -3.3838,-11.5397 -0.2919,-6.26062 -1.1076,-9.11672 -3.2572,-11.40482 -2.2241,-2.3673 -2.6927,-4.131 -2.0878,-7.8578 0.6699,-4.129 0.1863,-5.3654 -3.4368,-8.7849 -2.674,-2.5239 -4.2163,-5.3106 -4.2163,-7.6183 0,-2.0012 -1.3765,-5.3678 -3.0588,-7.4814 -1.6824,-2.1135 -4.5779,-6.9017 -6.4345,-10.6402 -1.8566,-3.7385 -5.0427,-8.5009 -7.08,-10.5832 -3.2965,-3.3691 -4.0372,-3.5934 -6.7297,-2.0392 -4.6384,2.6778 -13.3665,12.351 -13.3856,14.835 -0.014,1.2169 -0.9303,2.9706 -2.0464,3.8969 -1.1162,0.9264 -2.6647,4.213 -3.4409,7.3036 -1.8047,7.1845 -6.6992,18.4811 -9.4172,21.7351 -1.1582,1.3867 -2.2667,5.669 -2.4636,9.5163 -0.9244,18.07622 -2.858,23.14012 -10.2938,26.95962 -6.009,3.0866 -19.7491,6.6054 -28.7728,7.3686 -2.9908,0.253 -13.6966,1.0431 -23.7906,1.7558 -39.5603,2.7928 -49.2355,6.9468 -33.2386,14.2704 4.15,1.8998 9.2741,4.6852 11.3868,6.1898 5.2724,3.7541 37.7052,20.4633 39.7199,20.4633 0.8964,0 2.6486,0.9218 3.8936,2.0486 1.245,1.1267 6.7953,2.6175 12.3339,3.313 8.5972,1.0795 10.5278,1.8238 13.1979,5.0886 2.2775,2.7847 2.9354,4.9328 2.4204,7.9026 -0.3889,2.2431 -1.4468,8.5136 -2.3506,13.9345 -0.998,5.9846 -2.2985,9.8561 -3.3109,9.8561 -2.8872,0 -8.7064,8.1718 -8.7064,12.2262 0,2.1235 -0.6407,4.0744 -1.4237,4.3354 -1.9234,0.6412 -1.9692,31.9118 -0.054,36.8796 1.3,3.3723 2.0679,3.7711 6.542,3.3986 3.5766,-0.2977 5.4974,-1.2863 6.5237,-3.3572 z"
     id="path2395"
     inkscape:connector-curvature="0" />
  <path
     style="fill:#333333;stroke-width:1.35946381"
     d="m 586.02942,1188.2629 c 3.0002,-1.4798 4.2214,-1.4038 7.8849,0.4906 2.5536,1.3206 5.5159,1.8667 7.2091,1.3293 1.5809,-0.5018 5.9857,-1.0892 9.7883,-1.3055 22.4737,-1.2779 28.7991,-2.2219 32.4265,-4.8394 3.1267,-2.2563 4.5676,-2.4916 8.5405,-1.3947 5.2191,1.441 16.1591,-1.309 17.3167,-4.3533 2.1306,-5.6023 -5.7467,-12.2247 -14.369,-12.0795 -3.1534,0.053 -7.2628,-0.461 -9.132,-1.1423 -1.8693,-0.6813 -8.2117,-1.8145 -14.0943,-2.5182 -9.0408,-1.0814 -11.3543,-1.9024 -14.9541,-5.3065 -8.2262,-7.7793 -12.9274,-8.4336 -16.1949,-2.2543 -2.1801,4.1232 -16.8898,16.9334 -19.444,16.9334 -1.0965,0 -2.5335,1.3764 -3.1931,3.0588 -0.6597,1.6823 -3.3974,5.4298 -6.084,8.3276 -2.6864,2.898 -4.8845,5.6769 -4.8845,6.1755 0,1.5992 15.5059,0.6926 19.1839,-1.1215 z"
     id="path2393"
     inkscape:connector-curvature="0" />
  <ellipse
     style="fill:#ccff00;fill-opacity:1"
     id="path2431"
     cx="754.45325"
     cy="263.94962"
     rx="10.793706"
     ry="9.4169579" />
</svg>
