<?xml version="1.0" encoding="UTF-8" standalone="no"?>
<!-- Created with Inkscape (http://www.inkscape.org/) -->

<svg
   xmlns:dc="http://purl.org/dc/elements/1.1/"
   xmlns:cc="http://creativecommons.org/ns#"
   xmlns:rdf="http://www.w3.org/1999/02/22-rdf-syntax-ns#"
   xmlns:svg="http://www.w3.org/2000/svg"
   xmlns="http://www.w3.org/2000/svg"
   xmlns:sodipodi="http://sodipodi.sourceforge.net/DTD/sodipodi-0.dtd"
   xmlns:inkscape="http://www.inkscape.org/namespaces/inkscape"
   width="142.28175mm"
   height="79.76664mm"
   viewBox="0 0 142.28176 79.766639"
   version="1.1"
   id="svg11072"
   inkscape:version="0.92.3 (2405546, 2018-03-11)"
   sodipodi:docname="larry.svg">
  <defs
     id="defs11066" />
  <sodipodi:namedview
     id="base"
     pagecolor="#ffffff"
     bordercolor="#666666"
     borderopacity="1.0"
     inkscape:pageopacity="0.0"
     inkscape:pageshadow="2"
     inkscape:zoom="1.4"
     inkscape:cx="134.83067"
     inkscape:cy="122.72665"
     inkscape:document-units="mm"
     inkscape:current-layer="layer1"
     showgrid="false"
     fit-margin-top="0"
     fit-margin-left="0"
     fit-margin-right="0"
     fit-margin-bottom="0"
     inkscape:window-width="1918"
     inkscape:window-height="1038"
     inkscape:window-x="0"
     inkscape:window-y="0"
     inkscape:window-maximized="0" />
  <metadata
     id="metadata11069">
    <rdf:RDF>
      <cc:Work
         rdf:about="">
        <dc:format>image/svg+xml</dc:format>
        <dc:type
           rdf:resource="http://purl.org/dc/dcmitype/StillImage" />
        <dc:title></dc:title>
      </cc:Work>
    </rdf:RDF>
  </metadata>
  <g
     inkscape:label="Layer 1"
     inkscape:groupmode="layer"
     id="layer1"
     transform="translate(-32.295402,-95.120702)">
    <path
       style="fill:#000000;stroke-width:0.11078033"
       d="m 93.77075,174.84606 c -0.33511,-0.0481 -0.88348,-0.122 -1.218591,-0.16414 -0.335108,-0.0421 -0.78377,-0.12173 -0.997019,-0.17687 -0.239601,-0.062 -0.810961,-0.0559 -1.495531,0.0157 -1.817568,0.19028 -4.685839,0.21432 -5.278138,0.0443 -0.283012,-0.0813 -0.797513,-0.18311 -1.143331,-0.22631 -0.38908,-0.0486 -0.741899,-0.17078 -0.925571,-0.32048 -0.50229,-0.4094 -3.097159,-1.26745 -3.35362,-1.10894 -0.16093,0.0995 -1.180499,-0.27287 -1.251109,-0.45688 -0.0509,-0.1327 -0.593751,-0.42692 -0.70885,-0.38421 -0.01741,0.006 -0.106892,-0.0635 -0.19885,-0.15546 -0.092,-0.092 -0.362249,-0.21972 -0.600649,-0.28391 -0.238401,-0.0642 -0.463431,-0.16522 -0.500071,-0.22449 -0.0366,-0.0593 -0.182189,-0.10777 -0.32345,-0.10777 -0.141269,0 -0.318911,-0.0748 -0.394761,-0.16617 -0.0759,-0.0914 -0.22868,-0.16617 -0.339619,-0.16617 -0.110951,0 -0.280282,-0.11217 -0.376301,-0.24926 -0.158449,-0.22621 -0.25889,-0.24809 -1.08639,-0.23663 -0.800111,0.0111 -2.49699,0.32739 -3.681519,0.68625 -0.53458,0.16196 -1.60887,0.0747 -2.326182,-0.18902 -0.581308,-0.21368 -0.873149,-0.24314 -2.326468,-0.23485 l -1.661782,0.009 -0.529968,-0.33611 c -0.291491,-0.18485 -0.571151,-0.33609 -0.621461,-0.33609 -0.0503,0 -0.274749,-0.12438 -0.49874,-0.27639 -0.224009,-0.15202 -0.629769,-0.33241 -0.90171,-0.40088 -0.271929,-0.0685 -0.494419,-0.16843 -0.494419,-0.22213 0,-0.0537 -0.0505,-0.0976 -0.11234,-0.0976 -0.183732,0 -0.88183,-0.48863 -0.883311,-0.61826 -7.94e-4,-0.0659 -0.13847,-0.18265 -0.30602,-0.25951 -0.167561,-0.0769 -0.4542,-0.21947 -0.63699,-0.31688 -0.18279,-0.0974 -0.5816,-0.30932 -0.88624,-0.47087 -0.304651,-0.16157 -0.738691,-0.40492 -0.964541,-0.54082 -0.22585,-0.13587 -0.43973,-0.23095 -0.4753,-0.21125 -0.0356,0.0197 -0.16842,-0.12806 -0.29523,-0.32835 -0.12682,-0.2003 -0.37406,-0.43837 -0.54943,-0.52906 -0.17536,-0.0907 -0.31884,-0.21244 -0.31884,-0.27057 0,-0.0581 -0.19937,-0.20739 -0.44304,-0.3317 -0.41665,-0.21255 -1.06603,-0.76374 -2.18578,-1.85525 -0.265449,-0.25875 -0.642489,-0.55309 -0.837869,-0.6541 -0.33812,-0.1748 -0.98073,-0.64516 -1.45102,-1.06209 -0.11948,-0.10593 -0.30017,-0.21892 -0.40154,-0.25109 -0.10136,-0.0322 -0.25307,-0.18701 -0.33712,-0.34406 -0.0841,-0.15706 -0.40362,-0.41204 -0.71012,-0.5666 -0.30651,-0.15456 -0.58221,-0.31303 -0.61267,-0.35213 -0.13028,-0.16728 -0.82145,-0.57814 -1.99405,-1.18537 -0.39604,-0.20508 -0.89455,-0.52727 -1.1078,-0.71596 -0.21325,-0.18869 -0.5996,-0.43692 -0.85855,-0.55162 -0.25895,-0.11469 -0.47082,-0.27395 -0.47082,-0.35394 0,-0.08 -0.14955,-0.30915 -0.33234,-0.50929 -0.18278,-0.20012 -0.33234,-0.40107 -0.33234,-0.44656 0,-0.0455 -0.1979,-0.22934 -0.43978,-0.40859 -0.24188,-0.17924 -0.51199,-0.47226 -0.600231,-0.65116 -0.0883,-0.1789 -0.32654,-0.4034 -0.52955,-0.49889 -0.26577,-0.12502 -0.3789,-0.2588 -0.40414,-0.47788 -0.0193,-0.16735 -0.0815,-0.30428 -0.13816,-0.30428 -0.0567,0 -0.29019,-0.16728 -0.518849,-0.37174 -0.228661,-0.20445 -0.532921,-0.43322 -0.67613,-0.50836 -0.200021,-0.10495 -0.249931,-0.20781 -0.215311,-0.44373 0.0382,-0.26032 -0.0335,-0.3643 -0.47098,-0.68253 -0.51042,-0.37127 -1.10276,-1.07334 -1.10276,-1.307 0,-0.0664 -0.0661,-0.12077 -0.14686,-0.12077 -0.17723,0 -0.6286,-0.46101 -0.6286,-0.64201 0,-0.0711 -0.12616,-0.16089 -0.28034,-0.19959 -0.20679,-0.0519 -0.26373,-0.12268 -0.21704,-0.26977 0.0453,-0.14265 -0.0774,-0.31702 -0.43099,-0.61258 -0.27185,-0.22725 -0.58433,-0.58038 -0.69439,-0.78475 -0.11006,-0.20437 -0.25822,-0.37159 -0.32924,-0.37159 -0.17286,0 -0.26235,-0.25783 -0.18807,-0.54187 0.0422,-0.16144 -0.002,-0.25108 -0.14606,-0.29802 -0.74443,-0.24204 -0.81192,-0.28958 -0.70225,-0.49451 0.15379,-0.28734 0.1409,-0.32031 -0.1717,-0.43916 -0.15389,-0.0585 -0.30708,-0.19436 -0.34043,-0.30191 -0.0334,-0.10753 -0.1161,-0.29523 -0.18389,-0.41709 -0.0678,-0.12185 -0.12937,-0.45858 -0.13686,-0.74828 -0.0113,-0.4375 -0.0764,-0.5915 -0.38411,-0.909 -0.30556,-0.31526 -0.37395,-0.47537 -0.39016,-0.91342 -0.0108,-0.29213 -0.0787,-0.70852 -0.1508,-0.92529 -0.10409,-0.31284 -0.10031,-0.48322 0.0183,-0.82597 0.12967,-0.37455 0.12647,-0.47194 -0.0242,-0.73447 -0.16241,-0.28298 -0.15879,-0.31931 0.0557,-0.55879 0.37432,-0.41794 0.52838,-0.91312 0.37388,-1.2018 -0.0809,-0.15118 -0.0909,-0.27225 -0.0259,-0.3147 0.24904,-0.16266 0.39214,-0.66498 0.41227,-1.44714 0.0129,-0.50247 0.0906,-0.9704 0.19412,-1.1698 0.2887,-0.55599 0.67563,-1.97032 0.65161,-2.38178 -0.0124,-0.21325 0.0752,-0.61206 0.19476,-0.88624 0.11958,-0.27418 0.28275,-0.67299 0.36262,-0.88625 0.0799,-0.21325 0.25876,-0.49316 0.39754,-0.62202 0.1534,-0.14244 0.29478,-0.45814 0.36061,-0.80524 0.0819,-0.4319 0.21006,-0.67211 0.52618,-0.9863 0.22984,-0.22844 0.51611,-0.53907 0.63614,-0.69029 0.12004,-0.15122 0.42244,-0.5247 0.67199,-0.82994 0.24956,-0.30525 0.5003,-0.63732 0.55721,-0.73792 0.1421,-0.25121 0.88189,-1.12372 1.51593,-1.78789 0.28941,-0.30316 0.52621,-0.59394 0.52621,-0.64617 0,-0.11169 0.18149,-0.2894 1.05867,-1.03658 0.6444,-0.5489 1.423251,-1.31074 2.135621,-2.089 0.20317,-0.22196 0.41547,-0.40356 0.47178,-0.40356 0.0957,0 0.73635,-0.43509 1.10163,-0.74814 0.0891,-0.0764 0.4362,-0.32244 0.77131,-0.54682 0.33511,-0.22439 0.75355,-0.54264 0.92986,-0.70723 0.17631,-0.16458 0.52527,-0.36371 0.77546,-0.4425 0.51321,-0.16162 1.11981,-0.46662 1.80976,-0.90995 0.25773,-0.1656 0.49453,-0.30111 0.5262,-0.30111 0.0317,0 0.15137,-0.0872 0.266,-0.19387 0.40942,-0.38084 0.73742,-0.59165 1.01018,-0.64923 0.15232,-0.0322 0.39146,-0.10488 0.53141,-0.16159 0.13996,-0.0567 0.32892,-0.10311 0.41992,-0.10311 0.15556,0 0.803789,-0.40118 0.937669,-0.58031 0.0336,-0.045 0.32778,-0.13235 0.65369,-0.19416 0.32591,-0.0618 0.6599,-0.16826 0.7422,-0.23656 0.14278,-0.11849 1.57178,-0.45671 2.75264,-0.6515 0.30464,-0.0503 0.77408,-0.17105 1.043181,-0.26844 0.26911,-0.0974 0.59029,-0.14501 0.71373,-0.10583 0.467099,0.14825 2.672311,0.0442 3.551749,-0.1676 0.4826,-0.11622 0.946701,-0.18474 1.03133,-0.15225 0.0846,0.0325 0.287991,-0.0686 0.451911,-0.22471 0.36635,-0.34881 0.5744,-0.37623 1.904349,-0.25103 1.279473,0.12044 1.447771,0.10515 1.668341,-0.15162 0.095,-0.11063 0.331841,-0.28339 0.526212,-0.3839 0.248838,-0.12869 0.353398,-0.26165 0.353398,-0.4494 0,-0.1723 0.0811,-0.29237 0.229211,-0.33938 0.126058,-0.04 0.313,-0.20775 0.41542,-0.37274 0.32331,-0.52085 1.058389,-1.34193 1.20137,-1.34193 0.0756,0 0.301799,-0.1673 0.50275,-0.37178 0.200949,-0.20448 0.48378,-0.43391 0.6285,-0.50983 0.271391,-0.14239 1.16034,-0.77807 1.453959,-1.03972 0.0914,-0.0814 0.515131,-0.2654 0.941631,-0.4088 0.426508,-0.14339 0.87517,-0.34464 0.997029,-0.44719 0.12186,-0.10255 0.413319,-0.2479 0.6477,-0.32301 0.234371,-0.0751 0.558401,-0.20556 0.720069,-0.28992 0.161661,-0.0843 0.38277,-0.15367 0.491361,-0.15403 0.108579,0 0.382762,-0.0823 0.60929,-0.18216 0.226531,-0.0998 0.636201,-0.22024 0.910381,-0.26763 0.27418,-0.0474 0.74776,-0.16658 1.052409,-0.26486 0.30465,-0.0983 0.803162,-0.25942 1.1078,-0.35811 0.304649,-0.0987 0.72839,-0.19878 0.941642,-0.22241 0.213249,-0.0237 0.770509,-0.0851 1.238358,-0.13652 0.542671,-0.0597 0.963779,-0.17269 1.16319,-0.31214 0.171911,-0.12022 0.561819,-0.25051 0.866471,-0.28951 0.3449,-0.0442 0.595699,-0.14163 0.664679,-0.25828 0.20007,-0.33835 0.637762,-0.70014 0.847031,-0.70014 0.112959,0 0.20538,-0.0777 0.20538,-0.1727 0,-0.095 0.0499,-0.1419 0.110779,-0.10425 0.0609,0.0376 0.110781,0.0157 0.110781,-0.0489 0,-0.0645 -0.0442,-0.11731 -0.0982,-0.11731 -0.0899,0 -0.226431,-0.62389 -0.40753,-1.8621 -0.0651,-0.44512 -0.110202,-0.49713 -0.668271,-0.77084 -0.40394,-0.19811 -0.598448,-0.36038 -0.598448,-0.499283 0,-0.11316 -0.054,-0.30673 -0.120102,-0.43015 -0.066,-0.12343 -0.138899,-0.51872 -0.161888,-0.87845 l -0.0418,-0.65404 0.46654,-0.23198 c 0.746691,-0.37129 1.05515,-0.43192 1.636411,-0.3217 0.505669,0.0959 0.990348,0.41812 0.990348,0.6584 0,0.17821 0.669743,0.24448 1.885882,0.18661 1.560459,-0.0743 2.246291,-0.17237 2.379159,-0.34038 0.114322,-0.14453 0.722001,-0.24452 2.15854,-0.35514 0.456052,-0.0351 0.928262,-0.13325 1.049372,-0.21808 0.121108,-0.0848 0.32126,-0.15372 0.444799,-0.15311 0.280979,10e-4 1.422051,-0.36737 2.44021,-0.78862 0.4265,-0.17647 0.866259,-0.32072 0.977241,-0.32058 0.110979,0 0.276558,-0.0745 0.367948,-0.16589 0.0914,-0.0914 0.33293,-0.16617 0.53676,-0.16617 0.203822,0 0.38853,-0.0538 0.410462,-0.11962 0.0594,-0.17837 1.308767,-0.5701 1.575347,-0.49397 0.28052,0.0801 1.33423,1.31646 1.3507,1.58479 0.006,0.1056 0.0505,0.2826 0.0978,0.39333 0.0473,0.11074 0.0336,0.31014 -0.0305,0.44313 -0.19475,0.40408 -0.233,0.88092 -0.11271,1.40497 0.11091,0.48319 0.17637,1.071273 0.23428,2.104823 0.0154,0.27418 0.18014,0.82375 0.36617,1.22128 0.18603,0.39751 0.37233,0.85864 0.41402,1.02472 0.0677,0.26967 0.12589,0.30174 0.54449,0.30002 0.73064,-0.003 1.93664,-0.29567 2.30803,-0.56013 0.24815,-0.1767 0.43529,-0.22383 0.71104,-0.17908 0.40351,0.0655 1.46219,-0.26561 2.41747,-0.75604 0.29514,-0.15153 0.57333,-0.25282 0.61821,-0.22509 0.12433,0.0769 1.15352,-0.21856 1.45915,-0.41882 0.14873,-0.0974 0.70629,-0.24697 1.23905,-0.33228 0.9486,-0.1519 1.33915,-0.12805 2.16904,0.13246 0.43366,0.13613 4.58277,0.15231 4.93278,0.0193 0.2674,-0.10167 1.35091,0.0962 2.10634,0.38474 0.27606,0.10543 0.6375,0.16579 0.80319,0.13411 0.16944,-0.0324 0.49824,0.0288 0.75149,0.1398 0.64648,0.28344 1.19882,0.44443 1.52467,0.44443 0.15577,0 0.34077,0.0693 0.41111,0.15412 0.0704,0.0848 0.2634,0.18112 0.429,0.21411 0.77359,0.15411 1.52407,0.4248 1.73985,0.62751 0.13047,0.12257 0.32759,0.22285 0.43804,0.22285 0.23748,0 1.52615,0.60978 2.0005,0.9466 0.18279,0.12978 0.50682,0.31295 0.72008,0.40701 0.21325,0.0941 0.56221,0.25133 0.77546,0.34948 0.21325,0.0981 0.68684,0.25586 1.05241,0.35047 0.36558,0.0946 0.84415,0.31566 1.06348,0.49123 0.21934,0.17557 0.59323,0.35448 0.83085,0.39757 0.23764,0.0431 0.62882,0.22122 0.86931,0.39586 0.24049,0.17465 0.48975,0.31909 0.5539,0.321 0.13842,0.004 0.99797,0.42478 1.39062,0.6806 0.15233,0.0992 0.44195,0.21486 0.64362,0.25694 0.20166,0.0421 0.69431,0.29624 1.09477,0.56478 0.40047,0.26854 0.78462,0.48825 0.85368,0.48825 0.0691,0 0.4668,0.19941 0.88386,0.44312 0.41706,0.24372 0.82007,0.44313 0.89557,0.44313 0.0755,0 0.34681,0.1518 0.60294,0.33735 0.25613,0.18553 0.58765,0.3837 0.7367,0.44037 0.14905,0.0567 0.271,0.15101 0.271,0.20964 0,0.13019 1.10775,0.74313 1.25792,0.69603 0.0591,-0.0186 0.93438,-0.0512 1.94503,-0.0725 1.01066,-0.0213 1.96218,-0.0673 2.11451,-0.10212 0.15232,-0.0348 0.59448,-0.0883 0.98259,-0.11879 0.38809,-0.0305 0.77417,-0.11238 0.85794,-0.1819 0.0838,-0.0695 0.26036,-0.0982 0.39239,-0.0636 0.13204,0.0345 0.3349,0.012 0.4508,-0.05 0.1491,-0.0798 0.25787,-0.0737 0.3719,0.021 0.12745,0.10578 0.20128,0.0988 0.35296,-0.0335 0.10547,-0.092 0.30844,-0.22764 0.45103,-0.30148 0.26701,-0.13828 0.30922,-0.12799 3.18949,0.77832 0.37357,0.11753 0.85351,0.21371 1.06653,0.21371 0.21303,0 0.44938,0.0748 0.52523,0.16617 0.0759,0.0914 0.30827,0.16617 0.51649,0.16617 0.20822,0 0.58084,0.10318 0.82803,0.2293 0.2472,0.12611 0.52714,0.19947 0.6221,0.16303 0.0958,-0.0368 0.35045,0.057 0.57215,0.21061 0.21972,0.15225 0.67309,0.41539 1.00749,0.58472 0.45772,0.23177 0.61746,0.37633 0.64624,0.58483 0.021,0.15232 0.1281,0.3614 0.23794,0.4646 0.10985,0.1032 0.21727,0.23737 0.23873,0.29813 0.0214,0.0608 0.1822,0.13614 0.35723,0.16751 0.30564,0.0548 0.92562,0.58612 1.13327,0.97125 0.12887,0.239 1.90955,2.16217 2.73046,2.94891 0.42661,0.40887 0.63698,0.69771 0.63698,0.87459 0,0.14526 0.0748,0.2928 0.16617,0.32787 0.0914,0.0351 0.16617,0.12387 0.16617,0.19735 0,0.17581 0.58101,0.72895 0.76568,0.72895 0.0805,0 0.11703,0.071 0.0827,0.16049 -0.0909,0.23694 0.22834,0.80256 0.4919,0.87148 0.1663,0.0435 0.219,0.1332 0.19333,0.32907 -0.0366,0.27901 0.58602,1.40847 0.77636,1.40847 0.19817,0 0.24189,0.36527 0.0743,0.621 -0.23238,0.35465 -0.21628,0.43902 0.15864,0.83134 0.2627,0.27489 0.3144,0.40721 0.26182,0.67009 -0.0536,0.2679 -0.0238,0.33847 0.16348,0.38744 0.12594,0.033 0.22393,0.14222 0.21777,0.24284 -0.0204,0.3331 0.37764,1.72299 0.69257,2.41833 0.17049,0.37645 0.3435,0.83701 0.38445,1.02345 0.041,0.18646 0.12047,0.36745 0.17671,0.4022 0.0562,0.0348 0.10226,0.18315 0.10226,0.32975 0,0.14659 0.0779,0.49614 0.17323,0.77676 0.12873,0.3792 0.14154,0.5484 0.0499,0.65888 -0.0919,0.11069 -0.0789,0.255 0.0506,0.56511 0.12647,0.3027 0.14654,0.50959 0.0735,0.75743 -0.0899,0.30504 -0.18132,3.46845 -0.14589,5.04916 0.008,0.33511 -0.054,0.9084 -0.13665,1.27398 -0.0827,0.36557 -0.13908,0.86408 -0.12537,1.1078 0.0165,0.2941 -0.0647,0.61077 -0.24153,0.94163 -0.16779,0.31393 -0.24927,0.61842 -0.22005,0.82236 0.0309,0.21603 -0.0404,0.45168 -0.21419,0.70784 -0.14331,0.21119 -0.26057,0.47063 -0.26057,0.57652 0,0.1059 -0.0739,0.25384 -0.16414,0.32875 -0.143,0.1187 -0.14369,0.16542 -0.005,0.36304 0.11582,0.16536 0.12828,0.28398 0.046,0.43775 -0.0621,0.11601 -0.0827,0.34836 -0.0458,0.51635 0.0481,0.21912 -0.001,0.39217 -0.17445,0.61247 -0.13285,0.16888 -0.25742,0.4398 -0.27685,0.60203 -0.0928,0.77501 -0.37563,1.9906 -0.53262,2.28901 -0.0962,0.18278 -0.17516,0.51317 -0.17553,0.7342 0,0.22964 -0.0754,0.46384 -0.17495,0.54649 -0.0959,0.0795 -0.27748,0.34736 -0.40364,0.59516 -0.12615,0.24779 -0.3967,0.65507 -0.6012,0.90506 -0.2045,0.24999 -0.37182,0.5745 -0.37182,0.72112 0,0.14662 -0.0997,0.32886 -0.22156,0.40496 -0.12186,0.0761 -0.22156,0.21822 -0.22156,0.31582 0,0.20926 -0.66098,1.26081 -0.79252,1.26081 -0.0498,0 -0.14734,0.22561 -0.21677,0.50133 -0.0767,0.30457 -0.24414,0.59806 -0.42665,0.74776 -0.16522,0.13555 -0.4376,0.43144 -0.60526,0.65753 -0.16767,0.22609 -0.39651,0.44017 -0.50854,0.47572 -0.11202,0.0356 -0.30602,0.23811 -0.43111,0.45011 -0.12509,0.212 -0.31548,0.41925 -0.42312,0.46056 -0.10763,0.0413 -0.42019,0.29282 -0.69456,0.55891 -0.27437,0.26609 -0.64487,0.56104 -0.82334,0.65543 -0.37204,0.19678 -1.94651,1.48884 -1.94651,1.59736 0,0.0396 -0.14789,0.13337 -0.32865,0.20824 -0.18077,0.0749 -0.35628,0.22315 -0.39003,0.32948 -0.0337,0.10635 -0.31336,0.38764 -0.62134,0.62508 -0.30798,0.23745 -0.83092,0.66852 -1.16208,0.95793 -0.33115,0.28941 -0.65303,0.5262 -0.71526,0.5262 -0.0622,0 -0.29851,0.0829 -0.52504,0.18409 -0.67506,0.30174 -1.176,0.47716 -1.36763,0.47893 -0.0992,10e-4 -0.24287,0.077 -0.31934,0.1692 -0.10754,0.12959 -0.17421,0.13835 -0.2943,0.0387 -0.11408,-0.0947 -0.22032,-0.0967 -0.40072,-0.008 -0.13501,0.0666 -0.41996,0.15461 -0.63321,0.19565 -0.21325,0.0411 -0.43758,0.11316 -0.49851,0.16023 -0.0609,0.0471 -0.38496,0.12229 -0.72008,0.16714 -0.87144,0.11665 -1.1072,0.22741 -1.11132,0.5221 -0.003,0.22569 -0.018,0.23289 -0.14273,0.069 -0.0881,-0.11578 -0.23954,-0.1638 -0.4124,-0.13075 -0.22293,0.0426 -0.29595,-0.008 -0.39688,-0.27548 -0.10791,-0.28587 -0.19556,-0.33758 -0.68678,-0.40513 -0.30969,-0.0426 -0.61742,-0.0439 -0.68382,-0.003 -0.0664,0.041 -0.19253,0.015 -0.28025,-0.0578 -0.0877,-0.0728 -0.59652,-0.15381 -1.13065,-0.18 -1.45672,-0.0714 -2.17639,-0.49076 -1.96816,-1.14685 0.12527,-0.39468 -0.21103,-0.24763 -0.73255,0.32033 -0.359,0.39096 -0.80455,0.69449 -1.59961,1.0897 -1.64045,0.81544 -2.56777,1.31997 -2.88563,1.57 -0.15626,0.12292 -0.39216,0.25764 -0.52423,0.29938 -0.13206,0.0417 -0.3959,0.19451 -0.5863,0.33949 -0.39909,0.30387 -1.71442,0.7489 -3.42034,1.15724 -0.30465,0.0729 -0.60376,0.16806 -0.66469,0.21143 -0.18714,0.13318 -1.51725,0.54248 -2.14811,0.66101 -0.32845,0.0617 -0.84763,0.26629 -1.15374,0.45464 -0.42726,0.26289 -0.63462,0.32683 -0.89259,0.27525 -0.1901,-0.038 -0.55779,0.006 -0.84665,0.10239 -0.28084,0.0933 -0.88164,0.18791 -1.33513,0.21027 -1.61546,0.0797 -2.92662,0.29407 -3.76018,0.61475 -0.5686,0.21875 -1.21549,0.35971 -2.04943,0.44657 -0.67022,0.0698 -1.49277,0.21149 -1.82788,0.31484 -0.49434,0.15246 -0.79524,0.17107 -1.59486,0.0986 -0.59654,-0.0541 -1.10679,-0.047 -1.29266,0.0177 -0.22638,0.0789 -0.36043,0.0666 -0.50997,-0.0468 -0.14629,-0.11095 -0.3886,-0.13586 -0.86871,-0.0893 -0.49051,0.0476 -0.78219,0.0157 -1.1078,-0.121 -0.24308,-0.10208 -0.74108,-0.22986 -1.10665,-0.28396 -0.36558,-0.0541 -0.93886,-0.14998 -1.27397,-0.21306 -0.57174,-0.10761 -0.65367,-0.0936 -1.32937,0.22759 -0.39603,0.18826 -0.81977,0.37945 -0.94163,0.42488 -0.46778,0.17442 -1.00601,0.35879 -1.21858,0.41745 -0.12186,0.0336 -0.3839,0.18169 -0.58232,0.32902 -0.19841,0.14734 -0.60283,0.33978 -0.8987,0.42764 -0.29587,0.0879 -0.66732,0.26152 -0.82545,0.3859 -0.47623,0.37461 -2.43901,0.9537 -3.89723,1.14982 -1.2277,0.16513 -1.85409,0.29721 -2.71412,0.57228 -0.87806,0.28083 -1.08373,0.30219 -3.046459,0.31637 -1.15765,0.008 -2.478712,0.0465 -2.935682,0.0847 -0.45697,0.0382 -1.105029,0.0301 -1.44014,-0.018 z"
       id="path11642"
       inkscape:connector-curvature="0" />
    <path
       style="fill:#ff6600;stroke-width:0.11078033"
       d="m 97.92501,172.39484 c 0.243719,-0.0591 0.841931,-0.0957 1.32936,-0.0813 1.5322,0.0452 4.21137,-0.47595 4.78725,-0.93114 0.074,-0.0585 0.44784,-0.15015 0.83085,-0.20376 1.85206,-0.25927 2.22026,-0.38063 3.45937,-1.14026 0.36199,-0.22191 0.73654,-0.40348 0.83233,-0.40348 0.17388,0 1.33441,-0.72973 1.33441,-0.83907 0,-0.0317 -0.24926,-0.30697 -0.5539,-0.61162 -0.30465,-0.30465 -0.55391,-0.64708 -0.55391,-0.76096 0,-0.11388 -0.0486,-0.22367 -0.10792,-0.24399 -0.0594,-0.0203 0.0285,-0.32293 0.19539,-0.67251 0.38716,-0.81125 0.91427,-1.12713 1.70448,-1.02146 0.46159,0.0617 0.53847,0.11348 0.70621,0.47543 0.10351,0.22338 0.30661,0.56485 0.45134,0.75881 0.14472,0.19395 0.26313,0.42979 0.26313,0.52409 0,0.26323 0.45229,0.31754 0.94292,0.11322 0.24301,-0.1012 0.46676,-0.22151 0.49723,-0.26735 0.0305,-0.0458 0.33217,-0.11737 0.67047,-0.15896 0.52748,-0.0648 0.64292,-0.0448 0.81052,0.14035 0.18749,0.20718 0.18402,0.23848 -0.0854,0.77006 -0.30842,0.60862 -0.22699,0.84719 0.24686,0.72328 0.27565,-0.0721 1.17144,0.14532 1.52223,0.36944 0.42145,0.26926 2.28123,0.20583 3.48209,-0.11877 0.57883,-0.15646 1.41754,-0.31038 1.86381,-0.34203 0.44627,-0.0317 0.90412,-0.10719 1.01746,-0.16786 0.13689,-0.0732 0.30392,-0.0731 0.49753,0 0.20462,0.0778 0.36356,0.0722 0.53346,-0.0189 0.1331,-0.0713 0.53167,-0.1218 0.88572,-0.11212 0.37316,0.0102 0.81549,-0.055 1.05242,-0.15507 0.2324,-0.0982 0.716,-0.17099 1.12117,-0.1688 0.79521,0.004 1.81056,-0.28345 2.31432,-0.65591 0.30831,-0.22793 0.34072,-0.23106 0.60411,-0.0585 0.2727,0.17869 0.85569,0.14499 0.85569,-0.0494 0,-0.10827 0.23271,-0.20477 0.94163,-0.39048 0.8053,-0.21096 2.07705,-0.70825 2.27972,-0.89144 0.0992,-0.0897 0.40016,-0.15807 0.69554,-0.15807 0.35146,0 0.72659,-0.10304 1.15447,-0.31712 0.3486,-0.17441 0.83323,-0.37987 1.07695,-0.45656 0.24371,-0.0767 0.59267,-0.22896 0.77546,-0.33839 0.46227,-0.27674 1.5025,-0.66029 1.79094,-0.66036 0.13201,-4e-5 0.33591,-0.13169 0.45311,-0.29259 0.15811,-0.21705 0.31659,-0.29566 0.61416,-0.30465 0.33773,-0.0102 0.52298,-0.13021 1.17293,-0.75987 0.42452,-0.41128 0.82105,-0.74777 0.88118,-0.74777 0.0601,0 0.475,-0.22421 0.92192,-0.49825 0.44692,-0.27403 1.01198,-0.59433 1.2557,-0.71178 0.24372,-0.11745 0.72561,-0.50392 1.07088,-0.85882 0.66672,-0.68532 0.98689,-0.92222 1.2464,-0.92222 0.088,0 0.41674,-0.29511 0.73046,-0.6558 0.31371,-0.36069 0.85835,-0.90625 1.21029,-1.21237 0.67766,-0.5894 0.94805,-0.63992 1.20685,-0.22551 0.11094,0.17765 0.10474,0.26374 -0.0332,0.46066 -0.0933,0.1332 -0.16963,0.35818 -0.16963,0.49998 0,0.40266 -0.69365,1.58428 -1.07256,1.82707 -0.0727,0.0466 -0.39707,0.33377 -0.72074,0.63813 -0.32365,0.30437 -0.78788,0.68653 -1.03159,0.84925 -0.24372,0.16272 -0.59268,0.45765 -0.77547,0.65542 -0.18278,0.19775 -0.53174,0.52054 -0.77546,0.71731 -0.24371,0.19676 -0.34342,0.3187 -0.22156,0.27097 0.12186,-0.0477 0.57052,-0.10669 0.99702,-0.13104 0.42651,-0.0243 1.06052,-0.0898 1.40893,-0.14535 0.3826,-0.0611 0.77349,-0.0609 0.98705,0 0.62025,0.17789 2.10515,0.1499 2.58031,-0.0486 0.23773,-0.0993 0.52109,-0.15241 0.62966,-0.11795 0.10858,0.0345 0.38719,-0.0329 0.61914,-0.14981 0.23196,-0.11686 0.65432,-0.24637 0.93859,-0.2878 0.42089,-0.0614 0.63144,-0.18367 1.13384,-0.65876 0.6052,-0.5723 2.05194,-1.39985 2.44722,-1.39985 0.3962,0 1.40031,-0.61363 2.07784,-1.26981 0.37985,-0.36786 0.84063,-0.74389 1.02397,-0.83561 0.21137,-0.10576 0.34692,-0.26789 0.37045,-0.44313 0.0204,-0.15199 0.15265,-0.40097 0.29387,-0.5533 0.14122,-0.15232 0.27483,-0.37665 0.29692,-0.49851 0.0319,-0.17616 0.11216,-0.21433 0.39154,-0.18625 0.47644,0.0479 0.76631,-0.12934 0.84359,-0.51578 0.0354,-0.17718 0.21651,-0.47422 0.40237,-0.66009 0.18587,-0.18586 0.33793,-0.40722 0.33793,-0.4919 0,-0.0847 0.14956,-0.29725 0.33235,-0.47237 0.18278,-0.17512 0.33234,-0.38342 0.33234,-0.46288 0,-0.14008 0.47102,-0.8354 1.04754,-1.54636 0.155,-0.19115 0.28182,-0.39434 0.28182,-0.45151 0,-0.0572 0.12463,-0.22105 0.27695,-0.36415 0.15232,-0.14309 0.27695,-0.37001 0.27695,-0.50426 0,-0.13424 0.0709,-0.30289 0.15751,-0.37479 0.18899,-0.15685 0.31375,-0.80836 0.33634,-1.75647 0.0141,-0.59229 0.0589,-0.73605 0.29827,-0.95804 0.23558,-0.21844 0.2927,-0.39438 0.34919,-1.07562 0.0578,-0.69755 0.10948,-0.85077 0.35993,-1.06749 0.22945,-0.19856 0.31686,-0.41326 0.4059,-0.99702 0.0624,-0.40919 0.20554,-1.05867 0.31807,-1.4433 0.18895,-0.64581 0.19136,-0.73245 0.0315,-1.13214 -0.16452,-0.41117 -0.16157,-0.44758 0.0591,-0.72806 0.12772,-0.1624 0.23224,-0.43696 0.23224,-0.61013 0,-0.17318 0.12542,-0.64811 0.27873,-1.05539 0.15596,-0.41434 0.24841,-0.83602 0.20991,-0.95736 -0.0379,-0.11927 -0.004,-0.33878 0.0762,-0.4878 0.12191,-0.2278 0.11952,-0.28671 -0.015,-0.36984 -0.1371,-0.0847 -0.1315,-0.14716 0.0391,-0.43592 0.19046,-0.32243 0.19064,-0.35135 0.004,-0.66766 -0.15998,-0.2708 -0.17363,-0.39607 -0.0755,-0.69237 0.22921,-0.69199 0.0233,-3.41163 -0.28656,-3.785 -0.0891,-0.1074 -0.11616,-0.28756 -0.0704,-0.46966 0.0829,-0.33027 -0.11439,-0.91249 -0.37659,-1.11141 -0.10616,-0.0806 -0.17353,-0.31232 -0.17711,-0.6093 -0.011,-0.90967 -0.18595,-1.80428 -0.37961,-1.94065 -0.12441,-0.0876 -0.172,-0.2371 -0.14155,-0.4446 0.0334,-0.22729 -0.0472,-0.42978 -0.29519,-0.7418 -0.18759,-0.23605 -0.34107,-0.49371 -0.34107,-0.57257 0,-0.0789 -0.14955,-0.24989 -0.33234,-0.38004 -0.18279,-0.13016 -0.33234,-0.33773 -0.33234,-0.46126 0,-0.12355 -0.0937,-0.35693 -0.20818,-0.51866 -0.11449,-0.16174 -0.24303,-0.55019 -0.28564,-0.86326 -0.0575,-0.42294 -0.16061,-0.64886 -0.40111,-0.87927 -0.17801,-0.17054 -0.32365,-0.42706 -0.32365,-0.57003 0,-0.14693 -0.15564,-0.4121 -0.35792,-0.60984 -0.23828,-0.23291 -0.34677,-0.43495 -0.32457,-0.60439 0.024,-0.18331 -0.0456,-0.29051 -0.24897,-0.38315 -0.41433,-0.18878 -1.28388,-1.05727 -1.28584,-1.28428 -0.003,-0.27397 -0.146,-0.47103 -0.45416,-0.62315 -0.14532,-0.0717 -0.31407,-0.24512 -0.375,-0.38531 -0.0632,-0.14532 -0.24175,-0.2814 -0.41543,-0.31653 -0.16755,-0.0339 -0.30464,-0.13017 -0.30464,-0.21395 0,-0.0838 -0.0499,-0.15232 -0.11078,-0.15232 -0.0609,0 -0.11079,-0.0657 -0.11079,-0.14607 0,-0.14029 -1.90144,-1.95876 -2.04813,-1.95876 -0.0393,0 -0.23291,-0.12313 -0.43022,-0.27363 -0.47411,-0.36162 -1.37144,-0.75348 -1.51799,-0.6629 -0.0641,0.0396 -0.20059,-0.001 -0.30337,-0.091 -0.1028,-0.0896 -0.38398,-0.19839 -0.62486,-0.24166 -0.24088,-0.0433 -0.63733,-0.18039 -0.88099,-0.30469 -0.3776,-0.19264 -0.71367,-0.23346 -2.27615,-0.27648 -3.96661,-0.10919 -4.14487,-0.10662 -4.54724,0.0656 -0.21326,0.0913 -0.66143,0.19369 -0.99593,0.22758 -0.68539,0.0695 -0.8595,0.30827 -0.40292,0.55262 0.23656,0.12661 0.4173,0.36983 1.03459,1.3923 0.61511,1.01885 0.72673,1.26251 0.72291,1.57801 -0.003,0.2706 0.0819,0.43158 0.3447,0.65137 0.19198,0.16055 0.37422,0.42254 0.40497,0.58219 0.042,0.21824 0.13264,0.2991 0.36502,0.32582 0.24335,0.028 0.2953,0.079 0.24423,0.23992 -0.0357,0.11242 -0.013,0.23646 0.0504,0.27566 0.0634,0.0392 0.11529,0.21175 0.11529,0.38349 0,0.17173 0.0693,0.36971 0.15391,0.43996 0.26349,0.21868 0.2863,0.67778 0.0456,0.91846 -0.18362,0.18362 -0.3052,0.20578 -0.77462,0.14122 -0.30625,-0.0421 -0.63863,-0.14854 -0.73863,-0.23649 -1.03001,-0.90593 -1.67735,-1.51989 -1.67735,-1.59086 0,-0.12824 -0.77885,-1.26571 -0.89597,-1.30851 -0.0556,-0.0203 -0.10105,-0.12474 -0.10105,-0.23208 0,-0.20552 -0.26776,-0.486 -0.56312,-0.58983 -0.12089,-0.0425 -0.17117,-0.18855 -0.16184,-0.47004 0.009,-0.28229 -0.0495,-0.45256 -0.19075,-0.55149 -0.11238,-0.0787 -0.24076,-0.27937 -0.2853,-0.44594 -0.10087,-0.37718 -1.29756,-1.05249 -1.86506,-1.05249 -0.28739,0 -0.39732,-0.0584 -0.46946,-0.24926 -0.0518,-0.13709 -0.0744,-0.28303 -0.0502,-0.32432 0.0557,-0.0952 -1.16489,-1.42047 -1.30832,-1.42047 -0.0587,0 -0.33994,-0.19448 -0.62505,-0.43217 -0.44595,-0.37177 -1.94711,-1.11875 -2.24829,-1.11875 -0.0922,0 -0.32523,-0.0984 -1.59351,-0.67262 -0.24371,-0.11035 -0.57654,-0.23296 -0.73961,-0.27249 -0.16307,-0.0395 -0.38267,-0.16706 -0.48799,-0.28344 -0.10532,-0.11638 -0.25877,-0.2116 -0.34099,-0.2116 -0.0822,0 -0.46085,-0.21581 -0.84138,-0.47959 -0.38053,-0.26378 -0.99098,-0.60027 -1.35656,-0.74776 -0.36557,-0.1475 -0.68174,-0.3069 -0.70259,-0.35423 -0.0589,-0.13353 -0.79978,-0.48671 -1.30838,-0.62367 -0.25235,-0.0679 -0.48729,-0.19777 -0.52211,-0.28851 -0.0348,-0.0907 -0.14424,-0.16497 -0.24317,-0.16497 -0.0989,0 -0.30662,-0.0997 -0.46153,-0.22156 -0.15493,-0.12186 -0.42558,-0.22156 -0.60145,-0.22156 -0.17588,0 -0.50565,-0.1222 -0.73283,-0.27155 -0.22718,-0.14936 -0.71216,-0.38362 -1.07773,-0.52059 -0.36558,-0.13698 -0.70071,-0.30703 -0.74475,-0.3779 -0.044,-0.0709 -0.31821,-0.19328 -0.60929,-0.27205 -0.29108,-0.0788 -0.58926,-0.18954 -0.66263,-0.24616 -0.37582,-0.29001 -1.08986,-0.56092 -2.1376,-0.81102 -0.63976,-0.15271 -1.28782,-0.30931 -1.44014,-0.348 -0.15232,-0.0387 -0.30188,-0.0752 -0.33234,-0.0811 -0.0305,-0.006 -0.13017,-0.0596 -0.22156,-0.11927 -0.0914,-0.0597 -0.51513,-0.14165 -0.94163,-0.18214 -0.42651,-0.0405 -1.14935,-0.12794 -1.60632,-0.19434 -1.1031,-0.16031 -2.50062,-0.18438 -3.65575,-0.063 -1.0508,0.11044 -2.04762,0.10989 -2.71412,-0.001 -0.28021,-0.0468 -0.70785,-0.007 -1.16319,0.10782 -0.39605,0.10003 -0.91948,0.22373 -1.16319,0.27489 -0.24372,0.0512 -0.99149,0.29188 -1.66171,0.53494 -0.67022,0.24308 -1.39306,0.50123 -1.60632,0.57368 -0.21325,0.0725 -0.63698,0.24757 -0.94163,0.38914 -0.30465,0.1416 -0.70037,0.29045 -0.8794,0.33081 -0.17902,0.0404 -0.38308,0.15212 -0.45346,0.24837 -0.0704,0.0962 -0.29155,0.19291 -0.49148,0.21479 -0.19994,0.0219 -0.49439,0.11162 -0.65435,0.19939 -0.15995,0.0878 -0.54007,0.27886 -0.84472,0.42463 -0.30465,0.14577 -0.62232,0.34788 -0.70594,0.44912 -0.0836,0.10124 -0.20133,0.18408 -0.26156,0.18408 -0.0602,0 -0.66482,0.36629 -1.3435,0.81397 -0.67868,0.4477 -1.458298,0.94414 -1.732478,1.10321 -0.27418,0.15908 -0.564451,0.39611 -0.64503,0.52676 -0.12886,0.20891 -0.208971,0.22828 -0.664681,0.16081 -0.581319,-0.0861 -1.534049,-0.46333 -1.656469,-0.6559 -0.133271,-0.20964 -0.666951,-0.5087 -0.90778,-0.5087 -0.124302,0 -0.487479,-0.12625 -0.807061,-0.28053 -0.783929,-0.37849 -1.68343,-0.63413 -2.35353,-0.66888 -0.304649,-0.0158 -0.728049,-0.0828 -0.940909,-0.14894 -0.212841,-0.0661 -0.54325,-0.12024 -0.734229,-0.12024 -0.190982,0 -0.517242,-0.071 -0.725032,-0.15785 -0.20778,-0.0868 -0.66783,-0.18463 -1.022329,-0.21738 -0.35451,-0.0327 -0.85439,-0.16111 -1.110869,-0.28527 -0.256471,-0.12415 -0.572852,-0.22574 -0.703072,-0.22574 -0.13022,0 -0.36,-0.0562 -0.51063,-0.12478 -0.291309,-0.13273 -0.95508,-0.068 -2.893798,0.28207 -0.548363,0.099 -1.282692,0.22556 -1.631842,0.2812 -0.349139,0.0556 -1.047059,0.25014 -1.550919,0.43222 -0.503862,0.18209 -1.33985,0.46587 -1.85775,0.63062 -1.224481,0.38953 -2.00074,0.75538 -2.317002,1.09203 -0.191238,0.20355 -0.451178,0.30167 -1.045868,0.39476 -0.435261,0.0681 -0.923711,0.19637 -1.08543,0.28497 -0.161721,0.0886 -0.353591,0.1611 -0.426381,0.1611 -0.357719,0 -0.923758,0.39593 -1.07148,0.74945 -0.183388,0.43894 -0.66919,0.90368 -0.94991,0.90876 -0.10663,0.002 -0.193868,0.0722 -0.193868,0.15611 0,0.0839 -0.0748,0.21466 -0.166161,0.29051 -0.0914,0.0759 -0.16618,0.23978 -0.16618,0.36431 0,0.21692 -0.143589,0.41718 -0.59549,0.83044 -0.664292,0.60749 -0.9149,0.80666 -1.081611,0.85957 -0.20184,0.0641 -0.604761,0.60309 -0.560718,0.75014 0.0149,0.0497 -0.146442,0.29303 -0.358492,0.54077 -0.40163,0.46921 -0.59722,1.1765 -0.45193,1.63425 0.0437,0.13777 0.01619,0.30927 -0.0655,0.40765 -0.2046,0.24654 -0.41348,1.72642 -0.57925,4.10372 -0.0177,0.25424 -0.0975,0.54088 -0.177239,0.63698 -0.0996,0.11995 -0.11004,0.21815 -0.0334,0.31321 0.146061,0.18126 0.01,0.51655 -0.343169,0.8444 -0.372992,0.34647 -0.71587,0.25815 -1.311889,-0.33787 -0.427562,-0.42755 -0.444101,-0.4667 -0.255543,-0.60458 0.184872,-0.13517 0.190442,-0.20974 0.0671,-0.89709 -0.234529,-1.30663 -0.261149,-1.5805 -0.15362,-1.5805 0.156501,0 0.360202,-0.51107 0.248481,-0.62339 -0.0529,-0.0532 -0.116911,-0.42071 -0.142261,-0.81676 -0.0254,-0.39603 -0.0831,-0.80688 -0.128331,-0.913 -0.0554,-0.12987 -0.02421,-0.21521 0.0954,-0.26111 0.21327,-0.0818 0.226801,-0.4436 0.0392,-1.04786 -0.103849,-0.33446 -0.207741,-0.45965 -0.415431,-0.50061 -0.15232,-0.03 -0.440848,-0.10665 -0.64118,-0.17023 -0.454729,-0.14436 -3.395329,-0.13624 -4.288539,0.0118 -0.36558,0.0606 -0.92107,0.11048 -1.234431,0.11083 -0.73727,0.001 -3.312211,0.50623 -3.972251,0.77966 -0.12186,0.0505 -0.42096,0.14833 -0.66468,0.21744 -0.50648,0.14361 -1.30254,0.46281 -1.38475,0.55524 -0.0985,0.1108 -1.258989,0.82323 -1.800179,1.1052 -0.28942,0.15079 -0.52621,0.31192 -0.52621,0.35807 0,0.0462 -0.16202,0.15487 -0.36004,0.2416 -0.19802,0.0867 -0.53451,0.31259 -0.74777,0.50192 -0.21325,0.18933 -0.99975,0.6516 -1.74777,1.02728 -1.00089,0.50267 -1.37623,0.74755 -1.42135,0.92732 -0.0337,0.13435 -0.26917,0.3965 -0.52322,0.58255 -0.25406,0.18605 -0.65202,0.51601 -0.88437,0.73325 -0.23235,0.21723 -0.57945,0.47616 -0.77135,0.5754 -0.19189,0.0992 -0.4416,0.29827 -0.55492,0.44233 -0.1133,0.14405 -0.26471,0.26381 -0.33645,0.26614 -0.2091,0.007 -1.438041,1.1811 -1.363031,1.30246 0.0375,0.0606 -0.006,0.13882 -0.0974,0.17376 -0.091,0.0349 -0.16553,0.1381 -0.16553,0.22927 0,0.0911 -0.10302,0.22088 -0.22894,0.28827 -0.20159,0.10789 -0.47886,0.38643 -1.25228,1.25803 -0.11399,0.12846 -0.40961,0.50774 -0.65694,0.84285 -0.24733,0.33511 -0.48384,0.63422 -0.52559,0.66468 -0.0417,0.0305 -0.1109,0.16756 -0.153679,0.30465 -0.0428,0.13709 -0.145821,0.24926 -0.228971,0.24926 -0.0832,0 -0.36355,0.42462 -0.62311,0.94359 -0.259559,0.51897 -0.5531,1.03072 -0.65231,1.1372 -0.25374,0.27237 -0.45602,0.88837 -0.31942,0.97279 0.0642,0.0397 -0.005,0.26254 -0.16891,0.54177 -0.15289,0.26089 -0.2491,0.50323 -0.21379,0.53854 0.0353,0.0353 -0.0412,0.28194 -0.17005,0.54807 -0.12884,0.26614 -0.23425,0.58582 -0.23425,0.7104 0,0.12458 -0.13015,0.41831 -0.28922,0.65272 -0.23262,0.34278 -0.26496,0.46507 -0.16524,0.62474 0.0682,0.10921 0.0787,0.19855 0.0234,0.19855 -0.0553,0 -0.12605,0.21187 -0.1572,0.47082 -0.0874,0.72605 -0.24258,1.32246 -0.44549,1.71159 -0.19079,0.36592 -0.25462,0.64714 -0.0868,0.38224 0.0868,-0.13703 0.14041,0.49042 0.27999,3.27953 0.0419,0.8373 0.21689,1.25217 0.61892,1.46733 0.12186,0.0652 0.22156,0.19392 0.22156,0.286 0,0.0921 0.14604,0.25124 0.32452,0.35368 0.26537,0.1523 0.31374,0.2402 0.26534,0.4822 -0.0462,0.23086 -0.009,0.31184 0.16832,0.36817 0.23083,0.0733 0.27543,0.16241 0.40637,0.8124 0.0444,0.2205 0.18949,0.43807 0.36831,0.55237 0.37029,0.23671 0.56391,0.47415 0.56844,0.69712 0.002,0.0952 0.15773,0.31955 0.3462,0.49851 0.18847,0.17895 0.46192,0.55907 0.60768,0.84471 0.14575,0.28563 0.45168,0.65952 0.67984,0.83085 0.63947,0.4802 0.80697,0.63038 0.80697,0.72351 0,0.0472 0.2368,0.32718 0.52621,0.62219 0.28942,0.295 0.74057,0.79189 1.00256,1.10418 0.26199,0.31229 0.660801,0.67265 0.88624,0.80081 0.24938,0.14176 0.48848,0.40171 0.61058,0.66384 0.110381,0.23695 0.37144,0.53636 0.58014,0.66534 0.208701,0.12898 0.46225,0.37469 0.56346,0.54601 0.1012,0.17133 0.359681,0.39528 0.57439,0.49766 0.21471,0.1024 0.56053,0.38028 0.768501,0.61753 0.207959,0.23724 0.486039,0.46523 0.61795,0.50663 0.131919,0.0414 0.343609,0.18049 0.470429,0.30912 0.290941,0.29506 1.633241,1.29077 2.018991,1.49765 0.15997,0.0858 0.68417,0.42229 1.164899,0.74777 0.480721,0.32548 0.909741,0.59177 0.953371,0.59177 0.0436,0 0.42469,0.29893 0.84681,0.66431 0.422109,0.36537 0.817329,0.66557 0.878259,0.66712 0.0609,0.002 0.34419,0.2136 0.62946,0.47119 0.28528,0.25761 0.69166,0.61006 0.90307,0.78322 0.39708,0.32525 2.15447,1.40226 2.2881,1.40226 0.0415,0 0.20988,0.15087 0.37418,0.33526 0.1643,0.18441 0.56643,0.45367 0.893621,0.59837 0.36296,0.16051 0.62366,0.35372 0.66868,0.49558 0.0406,0.12787 0.15767,0.23408 0.260191,0.23602 0.24412,0.005 0.57114,0.257 0.585409,0.4518 0.006,0.0847 0.254921,0.37238 0.552709,0.63933 0.404011,0.36216 0.72925,0.53744 1.281282,0.69051 0.4069,0.11283 0.843629,0.30202 0.9705,0.42042 0.558908,0.52159 2.371129,1.00071 4.274169,1.13001 1.541431,0.10473 1.808062,0.11345 2.447501,0.08 0.157999,-0.008 0.452308,0.0673 0.654011,0.16793 0.380809,0.18998 1.008197,0.22825 1.376389,0.084 0.20996,-0.0823 0.20996,-0.0856 0,-0.24147 -0.157599,-0.11703 -0.22121,-0.32064 -0.245049,-0.7843 -0.0306,-0.59463 -0.01421,-0.63908 0.32535,-0.88084 0.276219,-0.19667 0.49403,-0.25139 0.957569,-0.24055 0.521669,0.0122 0.7366,0.0967 1.64619,0.64702 0.575389,0.34812 1.258419,0.85443 1.517819,1.12512 l 0.471649,0.49216 0.935612,0.0186 0.935609,0.0186 0.105989,0.36004 c 0.0583,0.19803 0.145542,0.36004 0.193871,0.36004 0.0483,0 0.184581,0.0967 0.302781,0.21491 0.1182,0.1182 0.446109,0.29341 0.728689,0.38935 0.28257,0.0959 0.653392,0.24663 0.824032,0.33486 0.170638,0.0883 0.652809,0.25944 1.071488,0.38042 0.41868,0.121 0.985571,0.29512 1.25975,0.38695 0.27418,0.0918 0.997022,0.2808 1.60631,0.41992 0.609301,0.13913 1.132742,0.28052 1.163201,0.31421 0.350279,0.38726 3.30028,0.57546 7.311501,0.46646 1.11062,-0.0302 4.122578,0.0708 4.192328,0.14052 0.0611,0.0611 1.11633,-0.0538 1.623642,-0.17685 z"
       id="path11644"
       inkscape:connector-curvature="0" />
    <path
       style="fill:#000000;stroke-width:0.11078033"
       d="m 113.91523,128.14857 c -0.0244,-0.0244 -0.42353,-0.12262 -0.88705,-0.21836 -0.70171,-0.14494 -1.02568,-0.15364 -1.93544,-0.052 -1.36506,0.15256 -2.24689,0.0173 -3.2449,-0.49769 -0.75651,-0.39039 -1.32924,-0.61768 -1.55643,-0.61768 -0.1376,0 -0.41275,-0.13709 -0.61143,-0.30465 -0.19867,-0.16755 -0.66527,-0.52137 -1.03687,-0.78627 -0.48363,-0.34475 -0.77481,-0.65958 -1.02457,-1.1078 -0.63965,-1.14793 -0.78283,-1.4831 -0.72615,-1.69984 0.0309,-0.11827 -0.008,-0.36692 -0.0857,-0.55256 -0.11715,-0.27862 -0.11436,-0.43155 0.016,-0.87633 0.15379,-0.52459 0.15035,-0.54877 -0.13018,-0.91656 -0.2023,-0.26523 -0.28532,-0.50526 -0.2787,-0.80572 0.005,-0.23536 -0.0222,-0.60242 -0.0608,-0.81567 -0.0386,-0.21325 -0.0799,-0.5718 -0.0918,-0.79678 -0.0119,-0.22497 -0.0576,-0.44515 -0.10175,-0.48927 -0.16894,-0.16894 -0.0695,-0.5788 0.18015,-0.74235 0.14322,-0.0939 0.34755,-0.36129 0.45408,-0.59434 0.54765,-1.19804 0.65542,-1.37293 0.9286,-1.50683 0.16257,-0.0797 0.28913,-0.22719 0.28125,-0.32777 -0.008,-0.10499 0.13665,-0.25451 0.34017,-0.3511 0.19499,-0.0925 0.66891,-0.52991 1.05315,-0.97198 0.38425,-0.44206 0.87923,-0.89117 1.09997,-0.99803 0.22074,-0.10686 0.52667,-0.29639 0.67986,-0.42119 0.16942,-0.13802 0.51657,-0.25213 0.88624,-0.29132 0.33424,-0.0354 0.73235,-0.14969 0.88467,-0.2539 0.35441,-0.24248 2.95223,-1.06783 3.82192,-1.21427 0.71904,-0.12106 2.65356,-0.0997 2.95513,0.0326 0.13069,0.0573 0.23862,10e-4 0.36473,-0.19191 0.27821,-0.42459 0.90267,-0.53104 2.27345,-0.38752 1.5539,0.16269 1.82209,0.34607 1.93242,1.32123 0.0894,0.79045 0.44623,1.39674 1.18135,2.00736 0.52567,0.43663 0.52281,0.64633 -0.0163,1.19787 -0.45958,0.47016 -0.78969,0.42887 -1.37348,-0.17181 -0.30303,-0.31181 -0.58195,-0.49852 -0.74468,-0.49852 -0.1431,0 -0.32366,-0.10164 -0.40124,-0.22586 -0.0776,-0.12421 -0.18768,-0.19703 -0.24469,-0.1618 -0.057,0.0352 -0.39125,-0.0111 -0.74277,-0.10284 -0.6062,-0.15829 -0.67292,-0.15456 -1.29564,0.0725 -0.50444,0.18391 -0.82555,0.40994 -1.38613,0.97564 -0.98837,0.99739 -1.0144,1.037 -1.06984,1.62847 -0.0267,0.28489 -0.0947,0.56413 -0.15108,0.62051 -0.0629,0.0629 0.009,0.27889 0.18515,0.55827 0.29983,0.47497 0.30741,0.50952 0.2073,0.94518 -0.0337,0.14661 0.0175,0.44572 0.11387,0.66468 0.31197,0.70918 0.53235,1.11817 0.60252,1.11817 0.0378,0 0.1836,0.0997 0.3241,0.22156 0.1405,0.12186 0.32146,0.22156 0.40213,0.22156 0.0807,0 0.22639,0.12169 0.32385,0.27041 0.0987,0.15066 0.30834,0.28558 0.47336,0.30464 0.17985,0.0208 0.33915,0.13214 0.40555,0.2835 0.0601,0.13709 0.13579,0.24926 0.1681,0.24926 0.0323,0 0.29807,-0.22932 0.59056,-0.50959 0.44106,-0.42264 0.52709,-0.56914 0.50412,-0.85855 -0.0584,-0.73612 0.61118,-1.3926 1.28837,-1.26314 0.15426,0.0295 0.30715,0.0104 0.33975,-0.0423 0.11491,-0.18593 0.60991,-0.0924 1.18337,0.22367 0.31896,0.17577 0.70456,0.34981 0.85688,0.38674 0.57766,0.14009 0.60906,0.21175 0.3933,0.89768 -0.13626,0.43324 -0.27156,0.65503 -0.43824,0.7184 -0.38584,0.14671 -0.53137,0.40515 -0.57864,1.02767 -0.0409,0.53789 -0.1764,0.77542 -0.50496,0.88495 -0.0551,0.0183 -0.12043,0.25539 -0.14527,0.52676 -0.0399,0.43542 -0.12228,0.5654 -0.70136,1.10613 -0.3609,0.33699 -0.73327,0.76482 -0.82748,0.95071 -0.15487,0.30558 -0.58522,0.60222 -1.10048,0.75856 -0.11394,0.0346 -0.16651,0.12471 -0.1293,0.22169 0.0418,0.10899 -0.0787,0.24078 -0.36189,0.39567 -0.23355,0.12773 -0.74866,0.41104 -1.1447,0.62958 -0.39604,0.21853 -0.84469,0.46579 -0.99702,0.54948 -0.15232,0.0837 -0.37754,0.15244 -0.50049,0.15281 -0.12295,0 -0.40357,0.12302 -0.62362,0.27254 -0.22004,0.14953 -0.42,0.25194 -0.44435,0.22759 z"
       id="path11688"
       inkscape:connector-curvature="0" />
    <path
       style="fill:#000000;stroke-width:0.11078033"
       d="m 87.234709,134.50598 c -0.69795,-0.15242 -1.381099,-0.34501 -1.577121,-0.44462 -0.105799,-0.0538 -0.263977,-0.0978 -0.351509,-0.0978 -0.0875,0 -0.308708,-0.14955 -0.491498,-0.33234 -0.240821,-0.24081 -0.437581,-0.33234 -0.71451,-0.33234 -0.557821,0 -1.360371,-0.39507 -1.7111,-0.84233 -0.267282,-0.34084 -0.721821,-0.6213 -1.38566,-0.85496 -0.123881,-0.0436 -0.19386,-0.18326 -0.19386,-0.38688 0,-0.17796 -0.0978,-0.40719 -0.22157,-0.51917 -0.121852,-0.11028 -0.221552,-0.26308 -0.221552,-0.33956 0,-0.0765 -0.134638,-0.3447 -0.299199,-0.59604 -0.251431,-0.38403 -0.34427,-0.44754 -0.581601,-0.39787 -0.155319,0.0325 -0.351658,0.0146 -0.43632,-0.0399 -0.172108,-0.11067 -0.261059,-0.78154 -0.126359,-0.95305 0.259231,-0.33009 0.225531,-0.59161 -0.12087,-0.93801 -0.214701,-0.2147 -0.363281,-0.4838 -0.379262,-0.68688 -0.01439,-0.18365 -0.0816,-0.38919 -0.149129,-0.45677 -0.0676,-0.0676 -0.12287,-0.3589 -0.12287,-0.6474 0,-0.28849 -0.0564,-0.66487 -0.12532,-0.83639 -0.184729,-0.45973 -0.201081,-1.78519 -0.02381,-1.93229 0.0985,-0.0817 0.111771,-0.18109 0.0417,-0.31194 -0.114252,-0.2135 -0.0322,-0.67096 0.120349,-0.67096 0.0538,0 0.0978,-0.0738 0.0978,-0.16406 0,-0.0902 0.11824,-0.19374 0.262761,-0.23001 0.14451,-0.0363 0.330729,-0.19924 0.413829,-0.36214 0.229971,-0.45087 0.572111,-0.9055 0.68144,-0.9055 0.0538,0 0.609409,-0.24925 1.234742,-0.5539 0.62534,-0.30465 1.195109,-0.5539 1.266147,-0.5539 0.071,0 0.12918,-0.0897 0.12918,-0.19931 0,-0.22642 0.546611,-0.46537 1.064551,-0.46537 0.180811,0 0.524309,-0.0997 0.763321,-0.22157 0.239019,-0.12185 0.51961,-0.22156 0.623541,-0.22156 0.103917,0 0.42477,-0.10108 0.712988,-0.22462 0.288229,-0.12356 0.72168,-0.24947 0.963232,-0.27982 0.241559,-0.0304 0.707779,-0.14586 1.036068,-0.25668 0.48105,-0.16241 0.596879,-0.17207 0.596879,-0.0498 0,0.0834 0.1256,0.19947 0.279122,0.25784 0.496319,0.1887 1.717659,0.44229 2.13014,0.44229 0.642159,0 2.61299,0.49117 2.908188,0.72477 0.0914,0.0723 0.358082,0.16084 0.592641,0.1967 0.628941,0.0962 1.892742,0.78097 1.93358,1.04773 0.01849,0.12093 0.18053,0.38438 0.360032,0.58543 0.462518,0.51805 0.464597,1.20918 0.005,1.5367 -0.433149,0.30844 -0.6238,0.28849 -0.77697,-0.0813 -0.136009,-0.32834 -0.924099,-0.90817 -1.234379,-0.90817 -0.101169,0 -0.36758,-0.12462 -0.59204,-0.27695 -0.224459,-0.15232 -0.493141,-0.27914 -0.597061,-0.28181 -0.103918,-0.003 -0.38835,-0.0821 -0.632068,-0.17658 -0.270542,-0.10484 -0.896141,-0.18461 -1.606312,-0.20484 -0.639749,-0.0182 -1.61185,-0.0822 -2.16022,-0.14218 -0.80005,-0.0875 -1.045488,-0.0789 -1.24238,0.0435 -0.134948,0.0839 -0.297659,0.15259 -0.36159,0.15259 -0.1259,0 -0.769239,0.6671 -0.77456,0.80317 -0.0021,0.0457 -0.106188,0.18602 -0.232018,0.31184 -0.278752,0.27876 -0.209802,0.78757 0.16416,1.21139 0.134409,0.15231 0.30257,0.41403 0.373679,0.58158 0.0711,0.16757 0.180229,0.30465 0.242459,0.30465 0.0622,0 0.11316,0.0742 0.11316,0.16479 0,0.0906 0.1994,0.29065 0.443121,0.4445 0.274511,0.17329 0.443119,0.36353 0.443119,0.49991 0,0.12108 0.0529,0.22017 0.117642,0.22017 0.0647,0 0.376269,0.1197 0.69238,0.26599 0.782378,0.36209 0.851199,0.37617 2.210678,0.45166 0.656051,0.0364 1.2567,0.0907 1.334781,0.12073 0.0781,0.03 0.45361,-0.0627 0.834509,-0.20588 0.708282,-0.26627 1.078201,-0.66787 0.942031,-1.02273 -0.0348,-0.0905 0.01619,-0.19183 0.11558,-0.22998 0.0977,-0.0375 0.17766,-0.13616 0.17766,-0.21925 0,-0.0831 0.266531,-0.27717 0.592291,-0.43126 0.736888,-0.34861 1.8776,-0.38925 2.23261,-0.0795 0.296158,0.25836 0.60929,0.83167 0.60929,1.11554 0,0.12629 0.125899,0.31211 0.279789,0.41294 0.197919,0.12969 0.26007,0.24542 0.2124,0.3956 -0.037,0.11676 -0.02019,0.2722 0.0375,0.34544 0.0577,0.0732 0.108521,0.20793 0.11303,0.29933 0.02522,0.51175 0.166232,1.2903 0.252582,1.39494 0.0549,0.0665 0.0686,0.15223 0.0304,0.19041 -0.0382,0.0382 0.01469,0.19789 0.1176,0.3549 0.17925,0.27357 0.15399,0.71848 -0.0408,0.71848 -0.15993,0 -0.222168,0.4816 -0.0839,0.64924 0.104939,0.12721 0.103931,0.17231 -0.005,0.20886 -0.0762,0.0256 -0.13848,0.18863 -0.13848,0.36224 0,0.21836 -0.0683,0.33733 -0.221559,0.38597 -0.13752,0.0437 -0.22156,0.16761 -0.22156,0.32684 0,0.17965 -0.222919,0.44681 -0.744,0.89165 -0.40921,0.34932 -0.870329,0.80466 -1.024721,1.01186 -0.196569,0.2638 -0.646499,0.55829 -1.50096,0.98239 -1.36429,0.67716 -1.992199,0.88866 -3.175958,1.06975 -0.96842,0.14815 -3.75362,0.20114 -4.30005,0.0818 z"
       id="path11680"
       inkscape:connector-curvature="0" />
    <path
       style="fill:#000000;stroke-width:0.11078033"
       d="m 130.24278,100.37639 c 0.0685,-0.20541 0.30696,-0.23948 0.30696,-0.0438 0,0.0965 -0.0789,0.17539 -0.17541,0.17539 -0.0965,0 -0.15566,-0.0592 -0.13155,-0.13155 z"
       id="path11734"
       inkscape:connector-curvature="0" />
    <path
       style="fill:#000000;stroke-width:0.11078033"
       d="m 174.4188,135.07141 c 0,-0.12186 0.0191,-0.22156 0.0425,-0.22156 0.0234,0 0.0685,0.0997 0.1004,0.22156 0.0319,0.12186 0.0128,0.22156 -0.0425,0.22156 -0.0552,0 -0.10041,-0.0997 -0.10041,-0.22156 z"
       id="path11732"
       inkscape:connector-curvature="0" />
    <path
       style="fill:#000000;stroke-width:0.11078033"
       d="m 47.686129,162.20911 c 0,-0.059 0.0748,-0.1073 0.16617,-0.1073 0.0914,0 0.16617,0.0196 0.16617,0.0435 0,0.0239 -0.0748,0.0722 -0.16617,0.10729 -0.0914,0.0351 -0.16617,0.0155 -0.16617,-0.0435 z"
       id="path11702"
       inkscape:connector-curvature="0" />
    <path
       style="fill:#000000;stroke-width:0.11078033"
       d="m 151.76425,165.20366 c 0.0376,-0.0609 0.0904,-0.11078 0.11732,-0.11078 0.0269,0 0.0489,0.0498 0.0489,0.11078 0,0.0609 -0.0528,0.11078 -0.11731,0.11078 -0.0645,0 -0.0865,-0.0498 -0.0489,-0.11078 z"
       id="path11700"
       inkscape:connector-curvature="0" />
    <path
       style="fill:#000000;stroke-width:0.11078033"
       d="m 96.595641,99.067797 c 0.0376,-0.0609 0.0186,-0.11078 -0.0423,-0.11078 -0.0609,0 -0.141589,0.0498 -0.17925,0.11078 -0.0376,0.0609 -0.0186,0.11078 0.0423,0.11078 0.0609,0 0.141589,-0.0498 0.179239,-0.11078 z"
       id="path11698"
       inkscape:connector-curvature="0" />
    <path
       style="fill:#000000;stroke-width:0.11078033"
       d="m 96.20791,99.301217 c 0,-0.14287 -0.302869,-0.23777 -0.507799,-0.15914 -0.141272,0.0542 -0.146662,0.0856 -0.0277,0.16101 0.195651,0.12402 0.53549,0.12283 0.53549,-0.002 z"
       id="path11696"
       inkscape:connector-curvature="0" />
    <path
       style="fill:#784421;stroke-width:0.11078033"
       d="m 95.026937,106.37238 c 0.201591,-0.14741 0.19549,-0.16646 -0.145,-0.45298 -0.19549,-0.16449 -0.355438,-0.36942 -0.355438,-0.4554 0,-0.086 -0.0463,-0.15632 -0.10287,-0.15632 -0.241221,0 -0.45103,-0.37324 -0.45103,-0.80235 0,-0.25801 -0.0754,-0.53752 -0.174612,-0.64711 -0.221588,-0.24486 -0.50497,-1.41855 -0.527881,-2.18637 -0.01289,-0.43351 -0.0688,-0.61805 -0.211449,-0.69788 -0.10663,-0.0597 -0.193861,-0.17614 -0.193861,-0.25879 0,-0.30425 -1.323728,-0.33811 -2.725189,-0.0697 -0.31073,0.0595 -0.671399,0.0804 -0.8015,0.0463 -0.130098,-0.034 -0.324519,-0.026 -0.432059,0.0179 -0.18056,0.0737 -0.17857,0.0867 0.02601,0.17088 0.121849,0.0501 0.358648,0.0946 0.526198,0.0989 0.244743,0.006 0.304652,0.0596 0.304652,0.27119 0,0.14485 0.0751,0.32569 0.166849,0.40185 0.0918,0.0762 0.15743,0.26921 0.14592,0.429 -0.01151,0.15977 0.037,0.39743 0.10776,0.52811 0.0708,0.13068 0.161541,0.51703 0.201681,0.85854 0.0402,0.34153 0.115959,0.62095 0.1685,0.62095 0.0525,0 0.0955,0.094 0.0955,0.20882 0,0.11485 0.124632,0.29048 0.27695,0.39028 0.15232,0.0998 0.27695,0.24641 0.27695,0.32577 0,0.47163 1.559491,1.20066 2.571742,1.20225 0.405349,10e-4 0.67922,0.0566 0.761328,0.15552 0.160192,0.19301 0.227592,0.1931 0.490781,10e-4 z"
       id="path11694"
       inkscape:connector-curvature="0" />
    <path
       style="fill:#784421;stroke-width:0.11078033"
       d="m 98.20196,106.9016 c 0.152321,-0.0688 0.362551,-0.19572 0.46717,-0.28214 0.108101,-0.0893 0.297,-0.1292 0.437531,-0.0925 0.306527,0.0802 1.101439,-0.2605 1.471589,-0.63067 0.15166,-0.15165 0.45173,-0.33938 0.66683,-0.41715 0.41906,-0.15154 0.49482,-0.28561 0.2208,-0.39077 -0.0936,-0.0359 -0.24448,-0.20884 -0.33518,-0.38425 -0.10691,-0.20674 -0.25183,-0.31891 -0.41198,-0.31891 -0.18785,0 -0.30636,-0.12927 -0.4945,-0.53937 -0.13609,-0.29666 -0.32274,-0.60187 -0.414781,-0.67826 -0.092,-0.0764 -0.16733,-0.18011 -0.16733,-0.23053 0,-0.0504 -0.1484,-0.31154 -0.329769,-0.58028 -0.24715,-0.3662 -0.334809,-0.63149 -0.349941,-1.05901 -0.0113,-0.31882 -0.0857,-0.62478 -0.168759,-0.6937 -0.0817,-0.0678 -0.148561,-0.19968 -0.148561,-0.29305 0,-0.344213 -0.49743,-1.234153 -0.69238,-1.238723 -0.199789,-0.005 -0.281149,-0.2261 -0.0831,-0.2261 0.0609,0 0.110781,-0.0498 0.110781,-0.11078 0,-0.0609 -0.0872,-0.10912 -0.193871,-0.10709 -0.220538,0.004 -0.69237,0.3643 -0.69237,0.52842 0,0.18171 -0.285779,0.2726 -1.182388,0.37605 -0.182571,0.0211 -0.522161,0.816163 -0.419521,0.982233 0.0466,0.0754 0.0966,0.50541 0.11113,0.95549 0.0218,0.67557 0.0768,0.89112 0.31545,1.23549 0.158999,0.22943 0.289078,0.52011 0.289078,0.64597 0,0.22166 0.824453,1.36558 0.984203,1.36558 0.138649,0 0.34163,0.71075 0.275278,0.96393 -0.0425,0.16219 -0.215408,0.29435 -0.51629,0.39466 -0.593828,0.19794 -0.622088,0.34384 -0.11054,0.57065 0.23087,0.10236 0.492522,0.22528 0.58143,0.27316 0.23736,0.12782 0.468111,0.12238 0.77997,-0.0184 z"
       id="path11692"
       inkscape:connector-curvature="0" />
    <path
       style="fill:#ffd42a;stroke-width:0.11078033"
       d="m 113.46513,125.34977 c 0.2607,-0.0601 0.56162,-0.18853 0.66873,-0.28546 0.10711,-0.0969 0.3674,-0.25566 0.57842,-0.35271 0.21103,-0.0971 0.58308,-0.29756 0.8268,-0.44553 0.24372,-0.14798 0.5179,-0.27145 0.60929,-0.27438 0.14808,-0.005 0.77547,-0.47709 0.77547,-0.58384 0,-0.0678 -0.34557,-0.10168 -0.95889,-0.0939 -0.37404,0.005 -0.61766,-0.0488 -0.70593,-0.15518 -0.0742,-0.0893 -0.18322,-0.16242 -0.2424,-0.16242 -0.2115,0 -1.30541,-0.71919 -1.30541,-0.85824 0,-0.078 -0.044,-0.22835 -0.0979,-0.33416 -0.0538,-0.10579 -0.16195,-0.32944 -0.24028,-0.497 -0.0783,-0.16755 -0.21034,-0.30465 -0.29336,-0.30465 -0.083,0 -0.1817,-0.0802 -0.21932,-0.17825 -0.0376,-0.098 -0.1749,-0.29316 -0.30506,-0.43361 -0.13015,-0.14044 -0.2903,-0.37179 -0.35591,-0.51412 -0.0656,-0.14232 -0.24931,-0.52765 -0.40824,-0.85629 -0.15893,-0.32864 -0.25967,-0.64495 -0.22385,-0.7029 0.13327,-0.21563 0.12888,-1.74655 -0.007,-2.40542 -0.12616,-0.61213 -0.12144,-0.69555 0.046,-0.81446 0.12234,-0.0869 0.20957,-0.35866 0.25349,-0.78971 0.0572,-0.56145 0.11628,-0.69584 0.40523,-0.92197 0.23701,-0.18549 0.33826,-0.35984 0.33826,-0.5825 0,-0.17477 0.0498,-0.34859 0.11077,-0.38624 0.0609,-0.0376 0.11079,-0.11538 0.11079,-0.17271 0,-0.21991 -0.69091,-0.088 -1.57326,0.3004 -0.50562,0.22258 -1.14363,0.46861 -1.41781,0.54678 -0.83691,0.23859 -1.26586,0.42196 -1.59672,0.68259 -0.17404,0.13709 -0.35956,0.24925 -0.41227,0.24925 -0.10006,0 -0.14755,0.0371 -1.01695,0.79504 -0.48983,0.42701 -0.9159,1.11577 -0.80312,1.29825 0.0257,0.0417 -0.0962,0.17184 -0.27108,0.28934 -0.33053,0.22215 -0.43778,0.45643 -0.44035,0.96194 -7.9e-4,0.16396 -0.0561,0.33187 -0.12288,0.37312 -0.0677,0.0418 -0.10011,0.2529 -0.0733,0.47735 0.0265,0.2213 -0.003,0.48436 -0.0642,0.5846 -0.0813,0.13193 -0.0434,0.39194 0.13709,0.94163 0.13716,0.41766 0.27746,0.99618 0.31178,1.28559 0.0343,0.28941 0.0985,0.52621 0.14265,0.52621 0.0441,0 0.0802,0.19518 0.0802,0.43373 0,0.407 0.3122,0.92323 0.9971,1.64872 0.0748,0.0793 0.17452,0.20394 0.22156,0.2771 0.0882,0.13715 0.3456,0.28869 1.58106,0.93081 0.59327,0.30835 0.82737,0.37039 1.32937,0.35235 0.33511,-0.0121 0.68407,0.009 0.77546,0.0462 0.70228,0.28779 1.87462,0.33076 2.85577,0.10467 z"
       id="path11690"
       inkscape:connector-curvature="0" />
    <path
       style="fill:#000000;stroke-width:0.11078033"
       d="m 144.95126,130.04446 c 0,-0.023 0.0872,-0.11024 0.19387,-0.19386 0.17571,-0.13779 0.17962,-0.13388 0.0418,0.0418 -0.14472,0.18453 -0.23569,0.24322 -0.23569,0.15204 z"
       id="path11686"
       inkscape:connector-curvature="0" />
    <path
       style="fill:#ffd42a;stroke-width:0.11078033"
       d="m 91.475789,131.92053 c 0.29147,-0.0903 0.611722,-0.24596 0.71166,-0.34589 0.129951,-0.12995 0.293011,-0.16366 0.572432,-0.11831 0.478808,0.0777 1.316389,-0.30373 1.486429,-0.67692 0.0626,-0.1375 0.156289,-0.25 0.2081,-0.25 0.0822,0 0.512731,-0.84216 0.764609,-1.49553 0.184581,-0.47881 0.21871,-0.85719 0.0912,-1.01087 -0.105201,-0.12676 -0.0782,-0.21768 0.133709,-0.45039 0.146029,-0.16035 0.190731,-0.24641 0.0993,-0.19122 -0.0914,0.0552 -0.390499,0.10405 -0.664679,0.10858 -0.274179,0.005 -0.947171,0.11204 -1.495531,0.23892 -0.700468,0.16207 -1.057269,0.19845 -1.199549,0.12231 -0.11647,-0.0623 -0.46954,-0.0752 -0.83086,-0.0304 -0.345581,0.0429 -0.977281,0.0806 -1.403782,0.0838 -0.694938,0.005 -0.87326,-0.0427 -1.717098,-0.46174 -0.517901,-0.25716 -1.117769,-0.60873 -1.33305,-0.78126 -0.215281,-0.17253 -0.545629,-0.34756 -0.73411,-0.38896 -0.188482,-0.0414 -0.50178,-0.19265 -0.69623,-0.3361 -0.19444,-0.14346 -0.4997,-0.32137 -0.678342,-0.39537 -0.178638,-0.074 -0.324799,-0.18029 -0.324799,-0.23621 0,-0.0559 -0.206,-0.30972 -0.457769,-0.56403 -0.414131,-0.41828 -0.462939,-0.5268 -0.51203,-1.13824 -0.0395,-0.49208 -0.005,-0.77021 0.12514,-1.02277 0.168108,-0.32508 0.166748,-0.35598 -0.02151,-0.49144 -0.312229,-0.22469 -0.37856,-0.53132 -0.180371,-0.83379 0.259741,-0.39641 0.129111,-0.62835 -0.304988,-0.54153 -0.19308,0.0386 -0.429101,0.1377 -0.524502,0.22019 -0.0954,0.0825 -0.31387,0.18338 -0.485519,0.22421 -0.18194,0.0433 -0.389821,0.2113 -0.498509,0.4029 -0.102542,0.18075 -0.267962,0.355 -0.367612,0.38719 -0.291769,0.0943 -0.73065,0.84348 -0.792779,1.35334 -0.0316,0.25895 -0.0123,0.47082 0.0429,0.47082 0.15248,0 0.119682,0.52895 -0.036,0.58085 -0.101409,0.0338 -0.084,0.16121 0.0679,0.49813 0.112271,0.24898 0.17099,0.50633 0.13048,0.57187 -0.10218,0.16533 0.254489,0.88086 0.506251,1.0156 0.126179,0.0675 0.207118,0.23139 0.207118,0.41934 0,0.19097 0.13222,0.45326 0.347062,0.68848 0.190889,0.209 0.51585,0.74015 0.722138,1.18035 0.20629,0.4402 0.48206,0.85762 0.61282,0.92761 0.45131,0.24152 1.553562,1.09623 1.772192,1.37418 0.1206,0.15332 0.265028,0.25048 0.320958,0.21592 0.0559,-0.0345 0.238872,0.0103 0.406562,0.0996 0.752268,0.40093 1.583129,0.67022 2.298909,0.7451 1.093959,0.11446 3.00492,0.0259 3.6318,-0.16835 z"
       id="path11682"
       inkscape:connector-curvature="0" />
    <path
       style="fill:#000000;stroke-width:0.11078033"
       d="m 165.31506,141.12872 c -0.0859,-0.0859 -0.13243,-0.32634 -0.11262,-0.5816 0.0186,-0.23936 0.0603,-0.77382 0.0927,-1.18768 0.0404,-0.51502 0.0155,-0.80488 -0.0789,-0.91857 -0.1121,-0.13507 -0.0972,-0.22215 0.0798,-0.46611 0.18691,-0.25767 0.21287,-0.44853 0.18391,-1.35243 -0.0595,-1.85691 -0.31796,-4.05566 -0.4892,-4.16149 -0.0545,-0.0337 -0.0991,-0.1493 -0.0991,-0.25695 0,-0.10764 -0.12463,-0.3128 -0.27695,-0.45589 -0.1858,-0.17455 -0.27695,-0.37929 -0.27695,-0.62207 0,-0.19904 -0.046,-0.39032 -0.10226,-0.42508 -0.0562,-0.0348 -0.13284,-0.20243 -0.17022,-0.37262 -0.0374,-0.17018 -0.24061,-0.55227 -0.45164,-0.84908 -0.21102,-0.29682 -0.38368,-0.63059 -0.38368,-0.74172 0,-0.11113 -0.0385,-0.20206 -0.0856,-0.20206 -0.0471,0 -0.17955,-0.17448 -0.2944,-0.38773 -0.11484,-0.21325 -0.24233,-0.38773 -0.28331,-0.38773 -0.041,0 -0.32638,-0.24926 -0.63425,-0.55391 -0.30786,-0.30464 -0.60298,-0.55556 -0.65582,-0.55759 -0.0528,-0.002 -0.21204,-0.10033 -0.35378,-0.21846 -0.26075,-0.21732 -0.25879,-0.52448 0.005,-0.85502 0.18166,-0.22724 0.84547,-0.29992 1.05985,-0.11602 0.10419,0.0894 0.26421,0.19534 0.35561,0.23547 0.0914,0.0402 0.36557,0.19833 0.60929,0.35153 0.24371,0.1532 0.50543,0.30775 0.5816,0.34344 0.0762,0.0357 0.13847,0.10244 0.13847,0.14833 0,0.0459 0.17526,0.26927 0.38948,0.4964 0.21422,0.22714 0.53211,0.69524 0.70644,1.04022 0.17431,0.34498 0.39754,0.77679 0.49607,0.95958 0.0985,0.18279 0.17944,0.4016 0.17981,0.48626 0,0.0847 0.1429,0.38505 0.31672,0.66755 0.17382,0.28249 0.35316,0.76159 0.39852,1.06466 0.0454,0.30306 0.10894,0.59401 0.14129,0.64653 0.0324,0.0525 0.0795,0.37068 0.10472,0.70701 0.0252,0.33633 0.12499,0.76446 0.22166,0.95139 0.13165,0.2546 0.1629,0.54976 0.1245,1.17626 -0.0282,0.46002 -0.0182,1.21026 0.0222,1.66723 0.0404,0.45697 0.0376,0.8807 -0.006,0.94163 -0.0438,0.0609 -0.11426,0.41673 -0.1567,0.79065 -0.0424,0.37392 -0.13983,0.80066 -0.21641,0.94831 -0.0885,0.17049 -0.10542,0.35997 -0.0465,0.51927 0.0542,0.14658 0.047,0.33646 -0.0175,0.45686 -0.0606,0.11331 -0.11026,0.37381 -0.11026,0.57889 0,0.20506 -0.0598,0.43268 -0.13294,0.50579 -0.17636,0.17636 -0.59048,0.16916 -0.77308,-0.0134 z"
       id="path11678"
       inkscape:connector-curvature="0" />
    <path
       style="fill:#000000;stroke-width:0.11078033"
       d="m 153.64463,148.98453 c -0.12878,-0.30822 -0.1359,-0.55738 -0.0388,-1.35706 0.0654,-0.53874 0.13852,-0.99986 0.16245,-1.02472 0.0239,-0.0249 -0.012,-0.1121 -0.0799,-0.19386 -0.0913,-0.10997 -0.0878,-0.19155 0.0134,-0.31343 0.0752,-0.0906 0.11133,-0.23101 0.0803,-0.31198 -0.0816,-0.2126 0.12951,-2.95046 0.25844,-3.35182 0.0922,-0.28702 0.23298,-2.98028 0.22258,-4.2584 -0.002,-0.21325 -0.003,-0.54975 -0.001,-0.74777 0.001,-0.19802 -0.0534,-0.36004 -0.12112,-0.36004 -0.0838,0 -0.11408,-0.3451 -0.0949,-1.0801 0.0219,-0.83909 -0.0146,-1.16978 -0.16353,-1.48195 -0.10544,-0.22099 -0.21048,-0.60701 -0.23343,-0.85778 -0.023,-0.25077 -0.13741,-0.74295 -0.25434,-1.0937 -0.37544,-1.12623 -0.66476,-2.06404 -0.80593,-2.61227 -0.0777,-0.30181 -0.27498,-0.67174 -0.45327,-0.85002 -0.42694,-0.42694 -0.41235,-0.80317 0.0444,-1.14402 0.52581,-0.3924 0.82112,-0.52546 1.00747,-0.45395 0.29789,0.11432 0.70231,0.86635 0.88966,1.65437 0.25441,1.07016 0.47787,1.85007 0.80892,2.82353 0.15542,0.45697 0.29847,1.06466 0.31789,1.35043 0.0194,0.28577 0.0851,0.61255 0.1459,0.72619 0.0608,0.11364 0.0836,0.40762 0.0507,0.65328 -0.0381,0.28367 0,0.56443 0.10348,0.76935 0.15924,0.31445 0.16784,0.74264 0.0398,1.98438 -0.0314,0.30464 -0.006,0.72837 0.0569,0.94163 0.0785,0.26709 0.0772,0.8358 -0.004,1.82787 -0.065,0.79208 -0.13592,1.88881 -0.15763,2.43717 -0.0446,1.12759 -0.1704,2.35547 -0.26661,2.60334 -0.0676,0.17401 -0.0722,0.21377 -0.18173,1.55092 -0.0374,0.45697 -0.0996,1.04824 -0.1382,1.31393 -0.0509,0.35026 -0.0281,0.51069 0.0827,0.58358 0.23249,0.15287 -0.37993,0.65044 -0.80058,0.65044 -0.2728,0 -0.35987,-0.0671 -0.48956,-0.37754 z"
       id="path11676"
       inkscape:connector-curvature="0" />
    <path
       style="fill:#000000;stroke-width:0.11078033"
       d="m 46.433249,149.86585 c -0.0885,-0.0885 -0.18666,-0.13512 -0.21815,-0.10363 -0.0315,0.0315 -0.23933,0.0231 -0.46186,-0.0186 -0.29377,-0.0551 -0.39438,-0.12535 -0.36732,-0.2564 0.0205,-0.0993 -0.034,-0.23495 -0.12124,-0.30149 -0.0872,-0.0666 -0.16952,-0.30225 -0.18296,-0.52377 -0.0197,-0.32387 -0.11307,-0.47378 -0.47679,-0.76525 -0.24879,-0.19936 -0.45491,-0.45173 -0.45806,-0.56083 -0.005,-0.18467 -0.25718,-0.60525 -0.67728,-1.13101 -0.20184,-0.2526 -0.3857,-0.86048 -0.49914,-1.6503 -0.0429,-0.29837 -0.14563,-0.67225 -0.22839,-0.83086 -0.0828,-0.15859 -0.15077,-0.41934 -0.15115,-0.57946 -3.18e-4,-0.16011 -0.0689,-0.45922 -0.15234,-0.66469 -0.278701,-0.6865 -0.400651,-3.28572 -0.20723,-4.41704 0.1095,-0.64053 0.15268,-0.77919 0.46573,-1.49554 0.1065,-0.24371 0.22381,-0.56874 0.26068,-0.72227 0.0368,-0.15353 0.16192,-0.38101 0.27789,-0.50549 0.11598,-0.12449 0.26574,-0.32886 0.3328,-0.45417 0.15835,-0.29589 0.84916,-0.62173 1.12948,-0.53277 0.14077,0.0447 0.22338,0.17532 0.23183,0.3666 0.0212,0.48049 -0.0184,0.61033 -0.3,0.98217 -0.14687,0.19395 -0.26703,0.4275 -0.26703,0.51899 0,0.0915 -0.0581,0.30669 -0.1292,0.47821 -0.071,0.17152 -0.13591,0.33678 -0.14412,0.36725 -0.008,0.0305 -0.095,0.32957 -0.19273,0.66468 -0.28264,0.96862 -0.49267,3.49206 -0.27969,3.36043 0.0468,-0.0289 0.0803,0.21261 0.0745,0.53677 -0.009,0.50165 0.0278,0.83351 0.1206,1.08791 0.0111,0.0305 0.0114,0.19003 8.46e-4,0.3546 -0.0107,0.16456 0.0544,0.46367 0.14469,0.66468 0.0903,0.20101 0.19486,0.54751 0.23231,0.76999 0.0374,0.22249 0.18309,0.6213 0.32363,0.88624 0.14053,0.26496 0.29013,0.62052 0.33242,0.79014 0.0431,0.17273 0.19741,0.36332 0.3508,0.43321 0.30108,0.13719 0.33121,0.20916 0.15948,0.3809 -0.12327,0.12326 -0.033,0.4838 0.12106,0.4838 0.0516,0 0.17757,0.18694 0.28003,0.41542 0.49541,1.10472 0.71059,1.48792 0.93966,1.67341 0.14092,0.11411 0.21451,0.25756 0.1695,0.33039 -0.10633,0.17205 -0.23872,0.16221 -0.43311,-0.0322 z"
       id="path11674"
       inkscape:connector-curvature="0" />
    <path
       style="fill:#000000;stroke-width:0.11078033"
       d="m 75.27043,155.89157 c 0,-0.0645 0.0498,-0.0865 0.110779,-0.0489 0.0609,0.0376 0.110781,0.0904 0.110781,0.11731 0,0.0269 -0.0498,0.0489 -0.110781,0.0489 -0.0609,0 -0.110779,-0.0528 -0.110779,-0.11732 z"
       id="path11670"
       inkscape:connector-curvature="0" />
    <path
       style="fill:#000000;stroke-width:0.11078033"
       d="m 65.38329,156.25724 c -0.167561,-0.10389 -0.304649,-0.22525 -0.304649,-0.2697 0,-0.0444 -0.224333,-0.35622 -0.498512,-0.69285 -0.27418,-0.33662 -0.49851,-0.64166 -0.49851,-0.67788 0,-0.0362 -0.179361,-0.2737 -0.39856,-0.52777 -0.446,-0.51692 -0.811639,-1.1269 -1.505379,-2.51136 -0.259501,-0.5179 -0.503851,-0.96656 -0.542991,-0.99703 -0.0392,-0.0305 -0.109339,-0.18002 -0.156009,-0.33234 -0.0467,-0.15232 -0.17471,-0.40461 -0.28452,-0.56065 -0.10981,-0.15604 -0.232632,-0.43022 -0.272931,-0.6093 -0.0403,-0.17907 -0.168251,-0.53691 -0.284321,-0.79519 -0.11607,-0.25828 -0.211039,-0.51596 -0.211039,-0.57262 0,-0.0567 -0.0707,-0.24414 -0.156991,-0.41664 -0.215178,-0.42986 -0.729258,-2.28677 -0.729258,-2.63414 0,-0.15555 -0.0426,-0.28281 -0.0947,-0.28281 -0.0931,0 -0.213591,-0.91963 -0.303242,-2.31526 -0.025,-0.38992 -0.0921,-0.76502 -0.148939,-0.83353 -0.20464,-0.24659 -0.228262,-1.06914 -0.039,-1.358 0.163449,-0.24943 0.164169,-0.30181 0.008,-0.57035 -0.109599,-0.18842 -0.14073,-0.3781 -0.0858,-0.52277 0.117409,-0.30912 0.18564,-2.33736 0.0821,-2.4409 -0.13426,-0.13427 -0.0953,-0.56278 0.0631,-0.69426 0.10913,-0.0906 0.12586,-0.2938 0.066,-0.80174 -0.0606,-0.51423 -0.0308,-0.85991 0.122069,-1.41546 0.11126,-0.40428 0.20143,-0.85969 0.200379,-1.01201 -0.004,-0.65109 0.121611,-1.31063 0.349462,-1.82788 0.210079,-0.47689 0.225869,-0.60485 0.11358,-0.9204 -0.115861,-0.32555 -0.10464,-0.38884 0.100439,-0.56671 0.126971,-0.11012 0.264451,-0.36894 0.305511,-0.57514 0.113679,-0.57091 0.711158,-1.35162 1.143709,-1.49446 0.38421,-0.12687 1.0438,-0.0418 1.246349,0.16073 0.185762,0.18577 0.201221,1.09867 0.01979,1.1683 -0.0867,0.0333 -0.157691,0.12816 -0.157691,0.21085 0,0.0827 -0.12463,0.26742 -0.27695,0.41052 -0.152329,0.14309 -0.278048,0.36366 -0.279379,0.49012 -0.0011,0.12647 -0.105611,0.45428 -0.231701,0.72846 -0.126098,0.27418 -0.248489,0.59822 -0.271979,0.72007 -0.0235,0.12186 -0.0851,0.45405 -0.137011,0.73819 -0.0519,0.28415 -0.181428,0.6496 -0.28792,0.81211 -0.106479,0.16251 -0.163989,0.37265 -0.127788,0.46698 0.0362,0.0943 0.01839,0.3271 -0.0395,0.51727 -0.25255,0.82939 -0.34195,1.28948 -0.42237,2.17362 -0.141711,1.55787 -0.0259,6.94027 0.15558,7.23135 0.0465,0.0745 0.0953,0.33494 0.108379,0.57866 0.0427,0.79216 0.11403,1.20913 0.299259,1.74866 0.100092,0.29155 0.181981,0.62913 0.181981,0.7502 0,0.12107 0.14955,0.54996 0.33234,0.95309 0.18279,0.40313 0.332341,0.80398 0.332341,0.89079 0,0.24035 0.673168,1.58401 0.793578,1.58401 0.0581,0 0.0782,0.0446 0.0445,0.099 -0.0827,0.13376 0.20252,0.78966 0.464132,1.06742 0.116459,0.12364 0.211738,0.29841 0.211738,0.38837 0,0.09 0.13294,0.37416 0.29541,0.63155 0.162481,0.25738 0.29542,0.54406 0.29542,0.63706 0,0.093 0.124622,0.27748 0.27695,0.40991 0.152321,0.13245 0.27695,0.30159 0.27695,0.37587 0,0.0743 0.17448,0.39434 0.387731,0.71123 0.213249,0.31689 0.387729,0.64964 0.387729,0.73943 0,0.0898 0.283821,0.46082 0.630711,0.82449 l 0.630711,0.66124 -0.293542,0.27217 c -0.344919,0.31984 -0.475369,0.33125 -0.884798,0.0774 z"
       id="path11668"
       inkscape:connector-curvature="0" />
    <path
       style="fill:#000000;stroke-width:0.11078033"
       d="m 96.21622,147.89146 c -0.01371,-0.13246 -0.16565,-0.1068 -0.213251,0.036 -0.02439,0.0731 0.0155,0.113 0.0886,0.0886 0.0731,-0.0244 0.129201,-0.0804 0.124629,-0.12463 z"
       id="path11666"
       inkscape:connector-curvature="0" />
    <path
       style="fill:#000000;stroke-width:0.11078033"
       d="m 107.67368,149.02973 c 0.0376,-0.0609 0.0186,-0.11078 -0.0423,-0.11078 -0.0609,0 -0.1416,0.0498 -0.17925,0.11078 -0.0376,0.0609 -0.0186,0.11078 0.0423,0.11078 0.0609,0 0.14159,-0.0499 0.17925,-0.11078 z"
       id="path11664"
       inkscape:connector-curvature="0" />
    <path
       style="fill:#000000;stroke-width:0.11078033"
       d="m 107.39673,145.87249 c 0,-0.0914 0.0498,-0.16617 0.11078,-0.16617 0.0609,0 0.11078,-0.0499 0.11078,-0.11078 0,-0.0609 -0.0684,-0.11078 -0.15201,-0.11078 -0.1453,0 -0.36254,-0.85175 -0.24677,-0.96751 0.11849,-0.11849 0.288,0.11576 0.288,0.39799 0,0.16701 0.0434,0.351 0.0965,0.40889 0.0531,0.0579 0.12878,0.24233 0.16828,0.40988 0.0602,0.25546 0.0357,0.30465 -0.15187,0.30465 -0.12497,0 -0.22367,-0.0733 -0.22367,-0.16617 z"
       id="path11662"
       inkscape:connector-curvature="0" />
    <path
       style="fill:#000000;stroke-width:0.11078033"
       d="m 105.2919,162.19966 c -1.19693,-0.43013 -1.36887,-0.4588 -2.271,-0.37855 -1.30627,0.1162 -2.69791,0.10329 -2.9721,-0.0276 -0.46,-0.21951 -0.665009,-0.25004 -2.055061,-0.30589 -0.768948,-0.0309 -1.672278,-0.10392 -2.007389,-0.16226 -0.335111,-0.0584 -1.082881,-0.1577 -1.6617,-0.22077 -1.643411,-0.17909 -1.86995,-0.20716 -2.991069,-0.37066 -0.578832,-0.0844 -1.37645,-0.23203 -1.772492,-0.32803 -0.396039,-0.096 -1.318278,-0.22498 -2.04943,-0.28663 -1.203259,-0.10145 -1.58727,-0.16053 -2.658729,-0.40908 -0.182791,-0.0424 -0.45697,-0.16005 -0.609291,-0.26144 -0.152328,-0.10139 -0.545298,-0.25015 -0.87327,-0.3306 -0.327981,-0.0804 -0.951119,-0.3082 -1.384758,-0.50613 -0.433642,-0.19793 -1.026782,-0.38508 -1.31808,-0.41589 -0.38032,-0.0402 -0.598972,-0.13419 -0.77547,-0.33328 -0.171731,-0.19371 -0.412732,-0.30078 -0.799711,-0.35529 -0.58828,-0.0829 -1.09269,-0.34001 -1.415399,-0.72155 -0.108252,-0.12798 -0.243851,-0.20362 -0.301342,-0.16808 -0.20751,0.12823 -1.220341,-0.42208 -1.804228,-0.98033 -0.982052,-0.93891 -1.597441,-1.40103 -1.870681,-1.40476 -0.300951,-0.004 -0.573839,-0.19249 -0.676961,-0.4673 -0.04,-0.10662 -0.142441,-0.19386 -0.227629,-0.19386 -0.20901,0 -1.513771,-1.25964 -1.513771,-1.46143 0,-0.0882 -0.118269,-0.26316 -0.262818,-0.38884 -0.144553,-0.12568 -0.347882,-0.47117 -0.451861,-0.76774 -0.21391,-0.61019 -0.52324,-1.28733 -0.625861,-1.37009 -0.119219,-0.0961 -0.431948,-0.75794 -0.431948,-0.9141 0,-0.22529 -0.828033,-1.454 -1.183593,-1.75633 -0.331629,-0.28198 -0.588888,-0.75567 -0.588888,-1.08429 0,-0.3181 -0.31563,-0.86428 -0.673431,-1.16535 -0.259681,-0.21851 -0.31532,-0.33637 -0.261001,-0.55283 0.0499,-0.19895 -0.0114,-0.38048 -0.22134,-0.65582 -0.161208,-0.21135 -0.359828,-0.69461 -0.446497,-1.08639 -0.204592,-0.92485 -0.639882,-1.78635 -0.999932,-1.97904 -0.18102,-0.0969 -0.281861,-0.23909 -0.270939,-0.38211 0.0328,-0.43051 -0.008,-0.51562 -0.510532,-1.0524 -0.419058,-0.44801 -0.491159,-0.58688 -0.430379,-0.82902 0.0402,-0.15998 0.166971,-0.34116 0.281821,-0.40263 0.11485,-0.0615 0.20882,-0.17259 0.20882,-0.24693 0,-0.0743 0.19931,-0.34678 0.442909,-0.60539 0.407829,-0.43298 0.487371,-0.47022 1.004301,-0.47022 0.726739,0 0.989959,0.14404 0.989959,0.54175 0,0.2574 0.121841,0.39807 0.69237,0.79925 1.115999,0.78476 1.406991,0.91117 2.187922,0.95053 0.956249,0.0482 2.638919,0.32392 2.803988,0.45948 0.0724,0.0595 0.430791,0.13532 0.796361,0.16852 1.088909,0.0989 1.653008,0.20019 1.806588,0.32443 0.0872,0.0705 0.960671,0.12823 2.193653,0.14491 1.415499,0.0191 2.099228,0.0696 2.21202,0.1632 0.0898,0.0745 0.44863,0.14845 0.797419,0.16431 0.34879,0.0159 0.822249,0.10954 1.052129,0.2082 0.27432,0.11773 0.483701,0.14565 0.60928,0.0813 0.105241,-0.054 0.39075,-0.0809 0.63446,-0.0598 0.243721,0.0211 1.165961,0.0846 2.049442,0.14127 0.88347,0.0566 1.803918,0.16248 2.045448,0.23521 0.273712,0.0824 0.67015,0.10302 1.05241,0.0547 0.337301,-0.0427 0.83761,-0.0758 1.111789,-0.0736 1.554113,0.0123 2.437173,0.0632 2.437173,0.14067 0,0.19448 0.76626,0.21701 1.440238,0.0424 0.474199,-0.12288 0.90891,-0.16088 1.32248,-0.11558 0.338841,0.0371 0.902491,0.0874 1.252551,0.11181 0.550349,0.0384 0.681511,0.0937 0.96933,0.4088 0.18307,0.20045 0.332859,0.43019 0.332859,0.51055 0,0.0804 0.0938,0.24677 0.20837,0.36978 0.168471,0.18082 0.190852,0.30137 0.116872,0.62939 -0.0503,0.22315 -0.166182,0.46033 -0.25745,0.52707 -0.169122,0.12366 -0.1704,0.46767 -0.006,1.60598 0.0561,0.38826 0.0326,0.53603 -0.10305,0.64862 -0.13847,0.11492 -0.14981,0.19418 -0.0535,0.37409 0.0712,0.1331 0.0977,0.49779 0.0636,0.87457 -0.0322,0.35547 -0.01349,0.67417 0.0417,0.70826 0.0551,0.0341 0.100269,0.21096 0.100269,0.39306 0,0.21463 0.101761,0.42539 0.289271,0.59917 0.27313,0.25314 0.351118,0.26588 1.39836,0.22849 0.61,-0.0218 1.14036,-0.0896 1.178568,-0.15078 0.0454,-0.0726 0.281012,-0.0761 0.678771,-0.0101 0.98284,0.163 3.10312,0.16403 3.57267,0.002 0.41091,-0.14204 0.58015,-0.49617 0.28426,-0.5948 -0.0959,-0.0319 -0.081,-0.16917 0.0554,-0.50999 0.23,-0.57481 0.23751,-0.94627 0.0227,-1.12453 -0.11109,-0.0922 -0.13224,-0.19503 -0.0657,-0.31938 0.054,-0.10088 0.0801,-0.30751 0.058,-0.45918 -0.15591,-1.07123 -0.14995,-1.05819 -0.54948,-1.20266 -0.21275,-0.0769 -0.38682,-0.17596 -0.38682,-0.22006 0,-0.0441 0.10219,-0.27767 0.2271,-0.51904 0.1358,-0.26242 0.20476,-0.55606 0.17155,-0.73041 -0.0306,-0.16036 -0.0206,-0.32654 0.0222,-0.36927 0.0427,-0.0427 0.0802,-0.11094 0.0831,-0.15155 0.0234,-0.31825 0.21877,-0.5813 0.47275,-0.63673 0.1635,-0.0357 0.52159,-0.13817 0.79577,-0.22772 0.27419,-0.0896 0.84748,-0.19207 1.27398,-0.22782 0.4265,-0.0358 0.96042,-0.15772 1.18647,-0.27106 0.22606,-0.11334 0.54678,-0.20606 0.7127,-0.20606 0.16593,0 0.57919,-0.0954 0.91835,-0.21205 0.33916,-0.11663 1.01548,-0.30178 1.50291,-0.41144 0.54343,-0.12227 0.94223,-0.27594 1.031,-0.39725 0.0796,-0.10881 0.24362,-0.19785 0.36444,-0.19785 0.12084,0 0.41764,-0.10097 0.65955,-0.22439 0.24191,-0.12341 1.09986,-0.39261 1.90655,-0.59821 1.47602,-0.37619 2.38856,-0.7256 3.15607,-1.20841 0.41777,-0.26283 1.54034,-0.59217 1.64877,-0.48373 0.032,0.032 0.2661,-0.006 0.52023,-0.0853 0.25414,-0.0789 0.68639,-0.20958 0.96057,-0.29037 0.27418,-0.0808 0.64212,-0.23212 0.81763,-0.33631 0.17551,-0.10418 0.39047,-0.16202 0.47769,-0.12856 0.34663,0.13302 2.23277,-0.24899 3.41285,-0.6912 0.36557,-0.13699 0.91393,-0.28398 1.21858,-0.32662 0.30465,-0.0427 0.70934,-0.17289 0.89932,-0.2894 0.18999,-0.1165 0.40425,-0.21183 0.47614,-0.21183 0.0719,0 0.39005,-0.16418 0.70699,-0.36483 0.31695,-0.20067 0.78454,-0.42592 1.03909,-0.50056 0.63821,-0.18717 2.06586,-0.90094 2.17373,-1.08679 0.0487,-0.084 0.18737,-0.15265 0.30812,-0.15265 0.12074,0 0.24731,-0.0724 0.28126,-0.16085 0.0345,-0.0899 0.28505,-0.19434 0.56814,-0.23679 0.54779,-0.0822 1.52521,-0.55217 2.02794,-0.97519 0.17241,-0.14507 0.35647,-0.42974 0.40904,-0.6326 0.0905,-0.34932 0.56513,-0.74415 1.30202,-1.0831 0.12186,-0.0561 0.41354,-0.23346 0.64819,-0.39423 0.28324,-0.19405 0.46941,-0.25715 0.5539,-0.18772 0.07,0.0575 0.41392,0.18759 0.76426,0.28907 0.45872,0.13287 0.63699,0.23811 0.63699,0.37605 0,0.10534 0.0577,0.24925 0.12824,0.31978 0.0971,0.0971 0.0904,0.17389 -0.0277,0.31644 -0.15757,0.19017 -0.18283,0.33693 -0.26472,1.53829 -0.0249,0.36558 -0.0767,0.93887 -0.11497,1.27397 -0.0383,0.33512 -0.0632,0.67161 -0.0553,0.74777 0.0506,0.48744 0.0197,0.84299 -0.13735,1.57862 -0.0976,0.45697 -0.212,1.15363 -0.25431,1.54815 -0.0423,0.39449 -0.15342,0.83405 -0.24694,0.97677 -0.0997,0.15218 -0.17725,0.54275 -0.18748,0.94442 -0.0166,0.64949 -0.41924,2.22578 -0.62636,2.45187 -0.053,0.0579 -0.0964,0.28857 -0.0964,0.51265 0,0.22697 -0.0736,0.46847 -0.16617,0.5453 -0.0914,0.0759 -0.16617,0.20923 -0.16617,0.29639 0,0.0872 -0.12462,0.34189 -0.27695,0.56606 -0.15232,0.22416 -0.27695,0.48798 -0.27695,0.58624 0,0.0983 -0.094,0.26373 -0.20884,0.36768 -0.11487,0.10395 -0.23909,0.3402 -0.27606,0.52501 -0.037,0.18479 -0.1673,0.47658 -0.28965,0.64842 -0.12236,0.17183 -0.22247,0.36292 -0.22247,0.42464 0,0.0617 -0.22433,0.49166 -0.49851,0.95543 -0.27418,0.46375 -0.5001,0.90406 -0.50203,0.97847 -0.002,0.0744 -0.0767,0.23206 -0.16618,0.35032 -0.0894,0.11828 -0.16264,0.29963 -0.16264,0.403 0,0.16103 -0.6804,1.26899 -0.87901,1.43141 -0.0373,0.0305 -0.16229,0.20364 -0.27786,0.38485 -0.11557,0.1812 -0.253,0.3806 -0.30541,0.44312 -0.36376,0.43391 -0.97489,1.33893 -0.97489,1.44372 0,0.0698 -0.12775,0.24685 -0.28386,0.39352 -0.15613,0.14668 -0.39193,0.44202 -0.524,0.6563 -0.13206,0.21429 -0.43146,0.58903 -0.66533,0.83275 -0.23386,0.24372 -0.54643,0.56962 -0.6946,0.72425 -0.14815,0.15461 -0.26938,0.38964 -0.26938,0.5223 0,0.13265 -0.0929,0.29089 -0.20636,0.35163 -0.11351,0.0607 -0.26911,0.26191 -0.34579,0.44702 -0.0767,0.18512 -0.20686,0.33657 -0.28929,0.33657 -0.0824,0 -0.22699,0.14909 -0.32121,0.33131 -0.0942,0.1822 -0.30738,0.41647 -0.47366,0.5206 -0.4376,0.27398 -0.6719,0.53348 -0.74763,0.82806 -0.0366,0.14227 -0.12601,0.33864 -0.19872,0.43637 -0.24645,0.3312 -1.12179,0.68958 -1.90394,0.77949 -1.71343,0.19697 -2.14032,0.27317 -2.30739,0.41181 -0.096,0.0797 -0.27418,0.11324 -0.39596,0.0746 -0.20932,-0.0664 -0.59635,0.003 -1.61709,0.29126 -0.97296,0.27449 -1.44786,0.44823 -1.60631,0.58766 -0.0914,0.0804 -0.44035,0.18048 -0.77546,0.22238 -0.33511,0.0419 -0.97639,0.19681 -1.42506,0.34427 -0.44866,0.14747 -0.8875,0.26812 -0.9752,0.26812 -0.0877,0 -0.34285,0.12463 -0.56702,0.27695 -0.4928,0.33488 -0.68299,0.34489 -1.05105,0.0554 -0.33529,-0.26374 -0.78318,-0.28127 -1.44507,-0.0565 -0.79733,0.2707 -2.16672,0.4146 -3.23286,0.33972 -0.70955,-0.0498 -1.22061,-0.0215 -1.77249,0.0984 -1.03735,0.22536 -1.97367,0.20391 -2.71411,-0.0622 z"
       id="path11646"
       inkscape:connector-curvature="0" />
    <path
       style="fill:#000000;stroke-width:0.11078033"
       d="m 123.79569,156.8749 c 0.005,-0.19146 0.51329,-0.55857 0.71158,-0.51349 0.12514,0.0284 0.11801,0.0804 -0.037,0.27018 -0.23938,0.29306 -0.67956,0.45183 -0.67458,0.24331 z"
       id="path11660"
       inkscape:connector-curvature="0" />
    <path
       style="fill:#000000;stroke-width:0.11078033"
       d="m 118.11287,157.54607 c 0.0752,-0.0757 0.16454,-0.10976 0.19866,-0.0756 0.0341,0.0341 -0.0274,0.096 -0.13664,0.13765 -0.15788,0.0601 -0.1706,0.0474 -0.062,-0.062 z"
       id="path11658"
       inkscape:connector-curvature="0" />
    <path
       style="fill:#000000;stroke-width:0.11078033"
       d="m 118.60721,157.66098 c 0.0263,-0.079 0.21918,-0.15985 0.42853,-0.17966 0.40242,-0.0381 0.29132,0.088 -0.21405,0.24289 -0.19079,0.0585 -0.2493,0.0412 -0.21448,-0.0632 z"
       id="path11656"
       inkscape:connector-curvature="0" />
    <path
       style="fill:#000000;stroke-width:0.11078033"
       d="m 117.31157,157.89215 c -0.0376,-0.0609 0.009,-0.11077 0.10424,-0.11077 0.095,0 0.17271,0.0499 0.17271,0.11077 0,0.0609 -0.0469,0.11078 -0.10425,0.11078 -0.0573,0 -0.13505,-0.0498 -0.1727,-0.11078 z"
       id="path11654"
       inkscape:connector-curvature="0" />
    <path
       style="fill:#000000;stroke-width:0.11078033"
       d="m 112.43729,158.7785 c -0.0459,-0.0743 0.017,-0.15056 0.15372,-0.18633 0.12731,-0.0333 0.20642,-0.10104 0.17582,-0.15055 -0.0306,-0.0495 0.23168,-0.12255 0.58284,-0.16231 0.35117,-0.0397 0.79109,-0.11895 0.97759,-0.17601 0.5089,-0.15567 1.35565,-0.0968 1.43096,0.0994 0.0347,0.0903 0.0369,0.19035 0.005,0.22225 -0.0319,0.0319 -0.058,-0.001 -0.058,-0.0738 0,-0.091 -0.0802,-0.0793 -0.25927,0.0381 -0.15784,0.10341 -0.7104,0.20737 -1.41245,0.26571 -0.63425,0.0527 -1.23538,0.13035 -1.33584,0.17256 -0.10046,0.0422 -0.21764,0.0201 -0.26041,-0.049 z"
       id="path11652"
       inkscape:connector-curvature="0" />
    <path
       style="fill:#000000;stroke-width:0.11078033"
       d="m 111.82794,158.88918 c 0,-0.0609 0.0528,-0.11078 0.11732,-0.11078 0.0645,0 0.0865,0.0498 0.0489,0.11078 -0.0376,0.0609 -0.0905,0.11078 -0.11732,0.11078 -0.0269,0 -0.0489,-0.0498 -0.0489,-0.11078 z"
       id="path11650"
       inkscape:connector-curvature="0" />
    <path
       style="fill:#ffd42a;stroke-width:0.11078033"
       d="m 113.54503,159.44239 c 1.10786,-0.40787 1.68095,-0.53491 2.6623,-0.59016 0.55033,-0.031 1.19839,-0.13114 1.44015,-0.2226 0.24175,-0.0915 0.87337,-0.2429 1.40358,-0.33655 0.53022,-0.0936 1.20321,-0.2908 1.49553,-0.43811 0.29234,-0.14732 0.69323,-0.30282 0.89088,-0.34555 0.19767,-0.0427 0.39707,-0.14198 0.44312,-0.22053 0.0971,-0.16555 1.24694,-0.52495 1.24694,-0.38975 0,0.0498 -0.0872,0.11332 -0.19386,0.14119 -0.10663,0.0279 0.008,0.0564 0.25479,0.0635 0.24677,0.007 0.50359,0.0678 0.57071,0.1349 0.17658,0.17659 0.74447,-0.11925 0.78613,-0.40955 0.0231,-0.16126 0.21262,-0.30448 0.63371,-0.47901 0.52813,-0.2189 0.60936,-0.29521 0.67253,-0.63194 0.0551,-0.29361 0.16569,-0.43183 0.4741,-0.59241 0.51138,-0.26626 1.81097,-1.50554 2.03635,-1.94184 0.0944,-0.18279 0.34751,-0.51308 0.56241,-0.73398 0.25515,-0.26229 0.40314,-0.52986 0.42649,-0.77111 0.0256,-0.26454 0.10139,-0.38644 0.26691,-0.42921 0.35686,-0.0922 0.86629,-0.57443 1.03331,-0.97809 0.083,-0.20045 0.23649,-0.42478 0.34121,-0.49851 0.10472,-0.0737 0.22844,-0.2587 0.27493,-0.41102 0.0465,-0.15232 0.27798,-0.56928 0.51441,-0.92657 0.23643,-0.35728 0.42986,-0.70231 0.42986,-0.76673 0,-0.0644 0.0793,-0.20471 0.17613,-0.31176 0.12759,-0.14097 0.14619,-0.24812 0.0675,-0.38871 -0.0837,-0.1495 -0.0198,-0.32787 0.27794,-0.7763 0.21261,-0.32021 0.35467,-0.63379 0.3157,-0.69685 -0.11201,-0.18123 0.25319,-0.78271 0.56015,-0.92257 0.30272,-0.13792 0.6253,-0.76745 0.52594,-1.02638 -0.0339,-0.0884 0.0375,-0.32393 0.15874,-0.52349 0.1212,-0.19957 0.25501,-0.52655 0.29734,-0.72664 0.0423,-0.20008 0.19091,-0.43845 0.33018,-0.5297 0.28453,-0.18643 0.45791,-0.99869 0.26325,-1.23325 -0.0814,-0.098 -0.0632,-0.18945 0.0626,-0.31525 0.0974,-0.0975 0.17717,-0.31544 0.17717,-0.48443 0,-0.16899 0.0997,-0.39749 0.22156,-0.50777 0.12186,-0.11028 0.22156,-0.31332 0.22156,-0.45118 0,-0.13788 0.13186,-0.51322 0.29303,-0.83409 0.25712,-0.51192 0.29311,-0.71667 0.2937,-1.67081 0,-0.59807 0.0376,-1.0874 0.0829,-1.0874 0.1854,0 0.21033,-0.37729 0.0375,-0.56823 -0.14318,-0.1582 -0.16961,-0.32939 -0.11805,-0.76468 0.0834,-0.70412 -0.0452,-0.77162 -0.77172,-0.40521 -0.29557,0.14906 -0.94796,0.37695 -1.44973,0.50641 -0.53248,0.13736 -1.16446,0.39666 -1.51792,0.62276 -0.33307,0.21306 -0.66547,0.38739 -0.73865,0.38739 -0.0732,0 -0.46193,0.15425 -0.86388,0.34278 -0.73184,0.34328 -1.05882,0.49205 -1.7832,0.81126 -0.21325,0.094 -0.46251,0.21868 -0.55391,0.27711 -0.0914,0.0584 -0.44993,0.23401 -0.79675,0.39018 -0.34682,0.15615 -0.65895,0.32984 -0.69365,0.38597 -0.0347,0.0561 -0.22451,0.1368 -0.42183,0.17929 -0.19732,0.0425 -0.48514,0.14177 -0.6396,0.22062 -0.15446,0.0788 -0.65297,0.17157 -1.1078,0.20606 -1.07527,0.0815 -2.85118,0.54644 -3.36823,0.88178 -0.12553,0.0814 -0.35287,0.17658 -0.5052,0.21146 -0.15232,0.0349 -0.47745,0.13812 -0.72252,0.22943 -0.24506,0.0913 -0.71864,0.18817 -1.05241,0.21526 -0.36018,0.0292 -0.90891,0.1906 -1.34999,0.39699 -0.40874,0.19124 -0.77122,0.3477 -0.80553,0.3477 -0.0343,0 -0.24826,0.11937 -0.47544,0.26525 -0.22717,0.14589 -0.58753,0.29604 -0.80078,0.33368 -0.21325,0.0376 -0.68684,0.2205 -1.05242,0.40637 -0.36557,0.18587 -0.96379,0.3791 -1.32936,0.4294 -0.9054,0.12456 -2.49862,0.44787 -2.76951,0.56201 -0.12186,0.0513 -0.79485,0.33075 -1.49553,0.62092 -1.26997,0.52592 -2.10483,1.13726 -2.10483,1.5413 0,0.19627 -0.2201,0.21879 -0.22508,0.023 -0.002,-0.0794 -0.0714,-0.0488 -0.16262,0.0717 -0.0875,0.1156 -0.13089,0.25584 -0.0964,0.31163 0.0345,0.0558 -0.0103,0.18554 -0.0995,0.28833 -0.11407,0.13145 -0.1514,0.38404 -0.12585,0.85157 0.02,0.36557 0.0404,0.764 0.0454,0.88541 0.005,0.1214 0.0864,0.33877 0.18097,0.48305 0.0968,0.14771 0.14781,0.38824 0.11679,0.55048 -0.033,0.17288 0.006,0.33416 0.0981,0.40319 0.0843,0.0633 0.1708,0.23455 0.19229,0.38063 0.0285,0.19371 0.11902,0.27412 0.33441,0.29709 0.16664,0.0177 0.30046,-0.0255 0.30708,-0.0994 0.0266,-0.2969 -0.0334,-0.82233 -0.14129,-1.23763 -0.17242,-0.66345 -0.2031,-1.04023 -0.0904,-1.10989 0.13318,-0.0823 0.55229,0.34143 0.55229,0.55838 0,0.0933 0.0667,0.19524 0.14821,0.22651 0.0845,0.0324 0.15556,0.24484 0.16535,0.4945 0.009,0.24071 0.12115,0.6589 0.24827,0.92934 l 0.23113,0.49169 -0.25114,0.33969 c -0.25649,0.34692 -0.47354,0.41455 -0.75625,0.23566 -0.13181,-0.0834 -0.13423,-0.13055 -0.0141,-0.27526 0.12045,-0.14514 0.11814,-0.17461 -0.0136,-0.17461 -0.29183,0 -0.53235,0.27346 -0.57593,0.6548 -0.0488,0.42708 -0.27926,0.64266 -1.15126,1.077 -0.56282,0.28035 -0.61036,0.28594 -1.27397,0.14946 -0.37913,-0.078 -0.78175,-0.18872 -0.89469,-0.2461 -0.11294,-0.0574 -0.86292,-0.10768 -1.66661,-0.11177 -1.18432,-0.006 -1.51449,0.0274 -1.74215,0.1766 -0.15448,0.10122 -0.30592,0.15901 -0.33653,0.1284 -0.0588,-0.0589 -2.318698,0.11488 -2.696168,0.20726 -0.121862,0.0298 -0.470821,0.13173 -0.77547,0.22646 -0.50328,0.1565 -0.602891,0.15606 -1.090131,-0.005 -0.41783,-0.13792 -0.561049,-0.2482 -0.64864,-0.49944 -0.0618,-0.17734 -0.202369,-0.37059 -0.312319,-0.42944 -0.118131,-0.0632 -0.178771,-0.18787 -0.14822,-0.30469 0.0291,-0.11119 -0.0976,-0.40375 -0.289462,-0.66863 -0.27913,-0.38534 -0.310488,-0.48273 -0.172468,-0.53569 0.0928,-0.0356 0.16869,-0.1873 0.16869,-0.33711 0,-0.14981 0.0482,-0.36244 0.107098,-0.47251 0.0659,-0.12309 0.0688,-0.33351 0.008,-0.54662 -0.059,-0.20577 -0.0584,-0.48922 0.0011,-0.69791 0.0674,-0.23481 0.0603,-0.4002 -0.0213,-0.49845 -0.0671,-0.0809 -0.14451,-0.50851 -0.171982,-0.95026 -0.0275,-0.44176 -0.0588,-0.92783 -0.0696,-1.08016 -0.0267,-0.3771 -0.30734,-0.77546 -0.54628,-0.77546 -0.108032,0 -0.282979,-0.0432 -0.388781,-0.0959 -0.632309,-0.31532 -1.3731,-0.36611 -1.534358,-0.10518 -0.036,0.0584 -0.15925,0.0193 -0.278051,-0.0883 -0.159941,-0.14475 -0.538282,-0.21874 -1.512231,-0.29576 -1.445948,-0.11436 -1.360059,-0.11319 -3.126809,-0.0427 -1.3593,0.0543 -2.589861,-0.06 -3.489582,-0.3241 -0.304649,-0.0894 -1.376439,-0.23401 -2.381779,-0.32133 -1.005329,-0.0873 -2.376239,-0.23637 -3.04646,-0.33124 -0.670219,-0.0949 -2.066049,-0.18858 -3.101851,-0.20822 -1.812668,-0.0344 -2.45754,-0.12726 -3.711138,-0.53448 -0.213252,-0.0693 -0.68684,-0.18713 -1.052409,-0.26191 -0.365581,-0.0748 -0.819352,-0.19947 -1.00838,-0.27709 -0.702771,-0.28858 -0.94878,0.0681 -0.588772,0.85361 0.274179,0.59823 0.670441,2.02957 0.595471,2.15087 -0.0266,0.043 0.0292,0.14248 0.12396,0.22111 0.0947,0.0786 0.240509,0.27493 0.323919,0.43625 0.0834,0.16131 0.292002,0.44368 0.46351,0.6275 0.171521,0.18381 0.384479,0.4792 0.473242,0.6564 0.0888,0.17722 0.230737,0.4063 0.315499,0.5091 0.0848,0.10278 0.119439,0.24297 0.0771,0.31152 -0.0435,0.0704 0.113109,0.30553 0.35964,0.54005 0.24017,0.22846 0.47139,0.5537 0.51381,0.72272 0.0424,0.16903 0.189439,0.41964 0.3267,0.5569 0.13726,0.13727 0.313888,0.46428 0.39252,0.7267 0.106249,0.35467 0.382288,0.71702 1.07529,1.41159 0.512789,0.51394 0.932339,1.02429 0.932339,1.1341 0,0.10981 0.0872,0.23256 0.193871,0.27279 0.41471,0.15645 0.692369,0.34312 0.692369,0.46545 0,0.0703 0.18695,0.21263 0.415431,0.31621 0.892119,0.40444 1.39479,0.6995 1.566061,0.91927 0.0983,0.12612 0.445349,0.31515 0.77121,0.42005 0.325868,0.1049 0.731869,0.30802 0.902239,0.45137 0.17036,0.14336 0.36594,0.26064 0.43461,0.26064 0.0687,0 0.181639,0.12463 0.25104,0.27695 0.0737,0.16175 0.218839,0.27695 0.34894,0.27695 0.122521,0 0.30703,0.0763 0.410041,0.16949 0.102999,0.0932 0.479848,0.21711 0.837438,0.27531 1.055391,0.17177 2.882021,0.84226 3.139381,1.15236 0.0735,0.0886 0.292259,0.19376 0.486069,0.2337 0.48232,0.0994 1.270781,0.36362 1.55647,0.52164 0.129831,0.0718 0.58511,0.13748 1.011722,0.14595 0.464489,0.009 0.912508,0.0861 1.116769,0.19177 0.229301,0.11858 0.63864,0.17704 1.24882,0.17838 0.499239,0.001 0.948841,0.0274 0.999119,0.0585 0.135131,0.0835 1.59538,0.20394 2.67262,0.22041 0.517901,0.008 1.05052,0.0756 1.183611,0.15054 0.13308,0.0749 0.40726,0.13686 0.609291,0.13776 0.202019,0.001 0.583088,0.0768 0.84682,0.16862 0.740269,0.25782 2.267899,0.42211 3.706328,0.39857 0.718043,-0.0118 1.498113,0.0305 1.733473,0.0939 0.23536,0.0634 1.05611,0.11937 1.82389,0.12441 0.76777,0.005 1.42221,0.0516 1.4543,0.10357 0.11638,0.1883 3.25699,-0.04 4.65005,-0.33798 0.71525,-0.15303 1.22136,-0.0569 1.46622,0.27832 0.18703,0.25608 0.23618,0.26506 1.13712,0.20769 0.5179,-0.033 1.19088,-0.15174 1.49553,-0.26391 z"
       id="path11648"
       inkscape:connector-curvature="0" />
  </g>
</svg>
